<svg width="120" height="100" viewBox="0 0 120 100" fill="none" xmlns="http://www.w3.org/2000/svg">
<g clip-path="url(#clip0_1466_1385)">
<path fill-rule="evenodd" clip-rule="evenodd" d="M61.6292 41.0891H42.7723V41.2577C42.7723 42.1488 43.4947 42.8713 44.3859 42.8713H47.429L46.9181 47.1696H42.7723V47.3382C42.7723 48.2293 43.4947 48.9518 44.3859 48.9518H46.7063L45.5712 58.5026H46.8857C47.6736 58.5026 48.3371 57.9135 48.4301 57.1309L49.4021 48.9518H54.9082V58.5026H56.0513C56.9101 58.5026 57.6065 57.8064 57.6065 56.9474V48.9518H60.0156C60.9068 48.9518 61.6292 48.2293 61.6292 47.3382V47.1696H57.6065V42.8713H60.0156C60.9068 42.8713 61.6292 42.1488 61.6292 41.2577V41.0891ZM54.9082 47.1696V42.8713H50.1248L49.6139 47.1696H54.9082ZM87.3016 41.0891H84.3913L81.1031 47.5544H82.6898V58.9109H83.9788C84.7518 58.9109 85.3785 58.2842 85.3785 57.5111V46.9541H84.3187L87.3016 41.0891ZM91.9882 41.0984H94.6849V42.6373H100.108V42.7759C100.108 43.6671 99.3855 44.3895 98.4943 44.3895H94.6849V55.6161H96.4617V57.3684H94.6849V58.9107H91.9882V57.3684H90.2012V55.6161H91.9882V44.3895H88.2784C87.3872 44.3895 86.6648 43.6671 86.6648 42.7759V42.6373H91.9882V41.0984ZM88.6141 45.9953H91.2193L89.378 57.5992C89.2582 58.3546 88.6068 58.9107 87.8419 58.9107H86.5647L88.6141 45.9953ZM95.3843 45.9953H97.9895L100.039 58.9107H98.7616C97.9968 58.9107 97.3454 58.3546 97.2255 57.5992L95.3843 45.9953ZM111.071 41.0985H108.522V42.6381H101.092V42.7962C101.092 43.6874 101.815 44.4098 102.706 44.4098H103.792L101.47 48.2817L101.379 48.3536H101.427L101.427 48.3539H104.366L104.366 48.3536H115.202L115.202 48.3537H118.261L116.188 45.1051H113.129L114.091 46.6134H105.41L106.732 44.4098H117.05C117.941 44.4098 118.663 43.6874 118.663 42.7962V42.6381H111.071V41.0985ZM102.573 48.9047H101.889V58.9109H103.132C103.905 58.9109 104.532 58.2842 104.532 57.5111V56.1215H112.773C113.609 56.1215 114.287 55.4435 114.287 54.6071V54.4361H104.532V53.4014H112.773C113.609 53.4014 114.287 52.7235 114.287 51.8872V51.7161H104.532V50.5988H115.091L115.091 57.2051L109.266 57.2054V57.2973C109.266 58.1884 109.989 58.9109 110.88 58.9109H116.432C117.205 58.9109 117.832 58.2842 117.832 57.5111V48.9047H116.365H115.091H104.532H102.573ZM64.4777 41.4974H78.6679V41.666C78.6679 42.5571 77.9453 43.2796 77.0543 43.2796H66.0913C65.2003 43.2796 64.4777 42.5571 64.4777 41.666V41.4974ZM75.0584 56.9294V56.933L76.1483 56.9331C76.9029 56.9331 77.5147 56.3214 77.5147 55.5669C77.5147 54.8128 76.9037 54.2012 76.1495 54.2006L70.8968 54.1964C70.8557 54.1964 70.8224 54.1632 70.8224 54.122V52.4312H76.7214C78.4507 52.4312 79.8527 53.833 79.8527 55.5623C79.8527 57.2916 78.4509 58.6935 76.7216 58.6935H75.0584V58.6939H63.3888L67.3895 49.3599H64.4638C63.5727 49.3599 62.8502 48.6374 62.8502 47.7463V47.5777H80.2928V47.7463C80.2928 48.6374 79.5703 49.3599 78.6792 49.3599H70.3414L67.312 56.9294H75.0584Z" fill="#14142B"/>
<path fill-rule="evenodd" clip-rule="evenodd" d="M32.8874 56.4359C33.0504 56.2201 33.4619 56.0536 32.929 56.8593C32.3961 57.6649 31.8117 58.2172 31.4844 58.5318C25.2887 64.4829 16.7795 62.4073 13.8202 60.5997C11.6051 59.1575 10.2822 55.5071 12.5124 52.599C13.4406 52.1164 15.5569 50.7426 17.0448 49.4802C15.6027 52.3779 15.4763 55.0717 16.8511 57.4979C18.959 60.9879 27.9732 63.0447 32.8874 56.4359Z" fill="#14142B"/>
<path fill-rule="evenodd" clip-rule="evenodd" d="M32.8874 56.4359C33.0504 56.2201 33.4619 56.0536 32.929 56.8593C32.3961 57.6649 31.8117 58.2172 31.4844 58.5318C25.2887 64.4829 16.7795 62.4073 13.8202 60.5997C11.6051 59.1575 10.2822 55.5071 12.5124 52.599C13.4406 52.1164 15.5569 50.7426 17.0448 49.4802C15.6027 52.3779 15.4763 55.0717 16.8511 57.4979C18.959 60.9879 27.9732 63.0447 32.8874 56.4359Z" fill="#14142B"/>
<path fill-rule="evenodd" clip-rule="evenodd" d="M26.0611 39.4229C26.8616 38.0485 20.9929 37.2161 20.2582 39.3222C19.4517 41.4767 14.4513 47.8195 9.72432 52.0895C8.51777 53.1794 7.17356 54.365 6.16336 54.8847C6.71622 55.0321 19.9977 48.643 26.0611 39.4229Z" fill="#14142B"/>
<path fill-rule="evenodd" clip-rule="evenodd" d="M32.0915 57.4877C32.4894 57.5241 32.4951 57.5674 33.4592 56.2263C34.4234 54.8853 35.8356 51.7498 35.6219 48.1462C35.4305 46.546 35.2886 44.8087 33.8246 42.2802C32.4848 40.0008 30.1009 39.4705 28.6117 40.218C27.1629 40.9452 26.4138 42.849 27.6619 44.5385C29.23 46.3462 32.2825 45.3948 31.4798 43.6529C30.9411 42.5416 29.3137 42.9413 29.3066 43.9921C28.5204 43.0885 29.346 41.898 30.6602 42.2782C32.2784 42.7319 33.8017 45.4028 34.2919 47.4974C34.6279 49.0626 35.1729 53.6192 32.0915 57.4877Z" fill="#14142B"/>
<path d="M6.70442 49.0488C5.43944 51.7604 5.10373 52.4799 3.48778 56.1469C1.62967 60.3632 2.38671 61.597 3.68149 62.1733C5.78208 62.8212 9.07944 62.5341 11.9431 60.2486C10.3947 61.1526 8.32276 61.3109 7.52795 60.7351C6.72756 60.0135 7.09855 58.6969 8.53089 55.4522C10.635 50.6856 11.296 49.3522 12.3772 47.1714C12.655 46.6111 12.9605 45.9949 13.3254 45.2501C13.5274 44.8376 13.7266 44.443 13.917 44.0656C15.4092 41.1088 16.3714 39.2021 14.0685 37.963C11.8146 36.7503 7.84818 38.3245 6.06 39.4187C5.4922 39.7404 4.87198 40.169 4.22984 40.7508C3.16877 41.7859 3.17109 43.0383 3.77909 43.7428C4.22978 44.2288 4.87178 44.1835 5.38663 43.9542C6.06469 43.5947 6.49534 42.7139 6.8502 41.9882C6.86788 41.9521 6.88537 41.9163 6.90269 41.881C5.66648 43.3126 4.91825 42.9286 4.94817 42.1656C5.0082 41.5648 5.8436 40.7835 6.76886 40.1031C6.76963 40.103 6.77039 40.1028 6.77115 40.1026C9.99622 38.1877 10.9309 40.189 10.2734 41.5481C10.0254 42.0784 9.81113 42.5163 9.54811 43.0538C9.0964 43.9771 8.5008 45.1943 7.34311 47.6792C7.10439 48.1916 6.89397 48.6426 6.70442 49.0488Z" fill="#14142B"/>
<path fill-rule="evenodd" clip-rule="evenodd" d="M25.5517 54.5848L27.8917 53.3549L28.1724 51.3035L26.3122 50.035L24.2517 50.4487L23.9259 53.1959L25.5517 54.5848ZM29.7082 50.7944L29.4783 48.5083C29.1757 48.2939 28.4893 47.8149 28.0843 47.578L26.1847 48.0409L26.2205 49.8369L28.2922 51.2178L29.7082 50.7944ZM25.4618 56.1252L27.2137 57.0415L29.0203 55.898L29.3468 54.329L28.0411 53.4017L25.6445 54.6531L25.4618 56.1252ZM22.9063 49.216L21.2154 50.4779V52.4353L22.4973 53.9477L23.6653 53.1852L24.0162 50.3337L22.9063 49.216ZM24.1066 47.6992L24.0853 47.7083L23.801 46.85C22.5156 47.4334 21.4894 48.5021 20.9445 49.8277L21.2531 50.3079L22.781 49.1542L22.7716 49.1435L24.1066 47.6992ZM24.31 47.6254L26.3044 47.8725L27.9012 47.4938L27.8299 46.6343C27.292 46.4655 26.7187 46.3736 26.1245 46.3736C25.3796 46.3736 24.667 46.5169 24.0162 46.7781L24.31 47.6254ZM30.7507 52.6066L30.7595 52.5446L31.7393 52.7647C31.7702 52.5225 31.7863 52.2761 31.7863 52.0257C31.7863 50.57 31.2493 49.2394 30.3637 48.215L29.7083 48.5028L29.9299 50.6468L30.7507 52.6066ZM31.7862 52.9685L30.8724 52.7647L30.8522 52.9097L30.7879 52.9018L30.799 52.8239L29.5306 54.3138L29.1661 55.9385L29.9105 56.2011L29.9587 56.2225C30.9074 55.3829 31.5694 54.2478 31.7862 52.9685ZM22.9172 56.7686L23.2031 56.1834L22.4706 54.3461L21.1647 52.7647L20.583 53.2211C20.887 54.6959 21.7427 55.9583 22.9172 56.7686ZM23.1082 56.8146L22.932 56.7463C23.8386 57.3339 24.9261 57.6764 26.0953 57.6764C26.3302 57.6764 26.561 57.6623 26.7891 57.6348L26.9978 57.1085L25.2049 56.2247L23.3709 56.3012L23.1082 56.8146ZM26.0632 46.1191C29.3317 46.1191 31.9813 48.7675 31.9813 52.0338C31.9813 55.2996 29.3317 57.9485 26.0632 57.9485C22.7951 57.9485 20.1455 55.2996 20.1455 52.0338C20.1455 48.7675 22.7951 46.1191 26.0632 46.1191ZM26.0488 45.6531C22.5315 45.6531 19.6794 48.5056 19.6794 52.0229C19.6794 55.5403 22.5315 58.3924 26.0488 58.3924C29.566 58.3924 32.4187 55.5403 32.4187 52.0229C32.4187 48.5056 29.566 45.6531 26.0488 45.6531Z" fill="#14142B"/>
</g>
<defs>
<clipPath id="clip0_1466_1385">
<rect width="120" height="100" fill="white"/>
</clipPath>
</defs>
</svg>
