<svg width="236" height="224" viewBox="0 0 236 224" fill="none" xmlns="http://www.w3.org/2000/svg">
<g clip-path="url(#clip0_4736_120908)">
<path d="M105.823 65.0824L109.035 70.6H113.935L109.965 64.473L110.138 64.3989C111.029 64.0417 111.798 63.4356 112.353 62.6531C112.973 61.668 113.291 60.5228 113.267 59.359V59.2108C113.307 58.4048 113.159 57.6005 112.835 56.8616C112.51 56.1227 112.018 55.4694 111.398 54.9532C110.155 53.9485 108.293 53.4297 105.881 53.4297H94.9277V70.6329H98.9877V65.033H105.823V65.0824ZM98.9547 61.5743V56.8308H105.823C106.724 56.7663 107.626 56.9455 108.433 57.3496C108.713 57.5495 108.936 57.8185 109.08 58.1303C109.224 58.4421 109.285 58.786 109.257 59.1284V59.2767C109.279 59.6266 109.205 59.976 109.042 60.2867C108.879 60.5974 108.635 60.8576 108.335 61.039C107.478 61.4554 106.526 61.64 105.576 61.5743H98.9547Z" fill="#F3F5F8"/>
<path d="M140.345 60.4638H128.174V56.8321H141.655V53.4062H123.875V70.6013H128.174V63.7414H140.345V60.4638Z" fill="#F3F5F8"/>
<path d="M140.345 87.2446H128.174V83.6211H141.655V80.1953H123.875V97.3903H128.174V90.5304H140.345V87.2446Z" fill="#F3F5F8"/>
<path d="M111.645 90.2422V86.9564H99.2347V83.6211H113.44V80.1953H94.9277V97.3903H113.589V93.9645H99.2347V90.2422H111.645Z" fill="#F3F5F8"/>
<path d="M113.729 137.363V123.173C105.651 123.116 95.612 120.299 86.0757 115.441C78.6641 111.669 68.1972 104.941 60.0361 94.2762L59.9538 94.1609L60.0773 94.0867C71.3265 87.7127 78.1123 78.967 80.8464 67.3472C83.6546 55.3732 81.8099 40.8629 75.37 24.2114C72.0989 15.778 68.0402 7.67169 63.2478 0L46.4316 15.4656C52.081 19.7973 58.4879 28.3784 63.1902 37.9147C68.716 49.1392 71.3101 60.3555 70.4948 69.5048C69.556 80.0046 64.3431 87.6963 55.0127 92.3903C59.5585 105.641 74.9171 129.218 103.897 134.044H103.995V134.143C104.234 136.728 105.107 150.333 98.9802 163.789C96.3489 169.762 92.3418 175.028 87.2863 179.156C81.5217 183.768 74.3982 186.716 66.0807 187.918C67.6619 189.137 69.2513 190.282 70.8077 191.319C109.538 186.551 113.729 152.005 113.729 137.363Z" fill="#F3F5F8"/>
<path d="M173.072 37.9147C177.775 28.3784 184.182 19.7973 189.831 15.4656L173.015 0C168.222 7.67169 164.164 15.778 160.893 24.2114C154.453 40.8629 152.608 55.3732 155.416 67.3472C158.15 78.967 164.936 87.7127 176.185 94.0867L176.309 94.1609L176.226 94.2762C171.722 100.164 163.553 108.614 150.187 115.441C140.675 120.299 130.612 123.116 122.533 123.173V137.363C122.533 152.005 126.725 186.551 165.447 191.303C167.003 190.265 168.592 189.121 170.174 187.902C161.856 186.699 154.716 183.784 148.968 179.14C143.913 175.011 139.905 169.746 137.274 163.773C131.147 150.349 132.02 136.745 132.259 134.126V134.027H132.358C161.337 129.201 176.696 105.624 181.242 92.3738C171.911 87.6798 166.698 80.0211 165.76 69.4883C164.953 60.3555 167.588 49.1392 173.072 37.9147Z" fill="#F3F5F8"/>
<path d="M176.539 44.7578C175.814 46.5943 175.147 48.4472 174.571 50.3248C189.317 62.0286 200.06 78.0268 205.313 96.105C210.566 114.183 210.07 133.447 203.892 151.231C197.715 169.015 186.162 184.439 170.833 195.367C155.504 206.296 137.157 212.19 118.331 212.232C99.5052 212.275 81.1315 206.464 65.7534 195.604C50.3753 184.745 38.7532 169.373 32.4957 151.618C26.2383 133.862 25.6551 114.6 30.8267 96.4985C35.9983 78.3968 46.669 62.3503 61.3619 50.5801C60.7937 48.6942 60.1431 46.8166 59.4267 44.9719C42.5808 57.3507 30.0793 74.7381 23.709 94.6488C17.3387 114.56 17.4257 135.974 23.9575 155.833C30.4893 175.691 43.1316 192.976 60.0775 205.218C77.0234 217.46 97.4053 224.031 118.31 223.993C139.215 223.954 159.573 217.309 176.474 205.005C193.375 192.702 205.954 175.37 212.413 155.488C218.872 135.606 218.881 114.191 212.438 94.3038C205.995 74.4165 193.43 57.0749 176.539 44.7578Z" fill="#F3F5F8"/>
<path d="M118.176 30.9477C128.999 30.9517 139.734 32.9044 149.865 36.7123C150.315 34.8237 150.812 32.9653 151.355 31.1371C129.889 23.5168 106.454 23.5168 84.9883 31.1371C85.5373 32.9653 86.0341 34.8237 86.4788 36.7123C96.6129 32.9038 107.35 30.9511 118.176 30.9477Z" fill="#F3F5F8"/>
</g>
<defs>
<clipPath id="clip0_4736_120908">
<rect width="198.262" height="223.98" fill="white" transform="translate(19)"/>
</clipPath>
</defs>
</svg>
