<svg xmlns="http://www.w3.org/2000/svg" xml:space="preserve" width="523.69025" height="380.56354" viewBox="0 0 523.69024 380.56354"><g style="stroke-width:.502276"><g style="fill:#9c824a;stroke-width:.502276"><path d="M0 0c.53.063 1.068.363 1.505.88.834.985.824 2.151-.005 2.849-.365.311-.773.426-1.18.38a1.862 1.862 0 0 1-.79-.291c.127.46.055.951-.378 1.316a1.381 1.381 0 0 1-1.046.306c-.404-.048-.826-.263-1.18-.68-.68-.804-.578-1.767-.004-2.252.292-.248.611-.328.918-.291.15.018.3.062.442.128-.284-.688-.202-1.422.402-1.938A1.714 1.714 0 0 1 0 0m-1.374 3.316a.769.769 0 0 0-.509-.292.68.68 0 0 0-.523.169c-.33.277-.339.709-.053 1.047.144.17.326.271.51.292a.705.705 0 0 0 .533-.171c.319-.273.336-.701.042-1.045m.591-.498c.226.268.5.411.772.444.281.033.565-.059.804-.259.468-.396.506-1.018.049-1.562-.234-.274-.506-.426-.78-.457a.992.992 0 0 0-.765.254c-.476.397-.537 1.035-.08 1.58m-4.473 9.136c-.957-1.484-2.214-3.146-3.233-4.437a92.6 92.6 0 0 0-1.279-1.588c-.32-.389-.513-.618-.513-.618l.216-.221c2.729 2.231 5.799 6.364 5.803 6.368l.022.032.236 1.37-1.235-.883zm-4.537 4.57c-.001 0-.906-.262-2.176-.714-1.158-.414-2.62-.982-3.986-1.656-.997-.494-1.944-1.045-2.685-1.633l.172-.258s.199.106.56.281c.363.182.883.43 1.523.702 1.575.677 3.863 1.53 6.206 1.95.164.029.329.059.492.083l.036.003 1.43.958-1.536.293zm3.614-17.41.658-.478.598.818 3.31-2.412.583.796L-4.999.732zm-17.528 58.508c.783 1.744 1.856 3.729 2.731 5.278.438.775.827 1.439 1.106 1.91.281.472.451.749.451.749l-.251.186c-2.546-2.836-5.15-7.764-5.154-7.771l-.018-.032-.026-1.474 1.15 1.126zm3.439-14.534.01.028c.542 1.832 1.34 3.943 2 5.595.33.827.63 1.537.843 2.044.212.501.344.798.344.8l-.271.15c-2.146-3.146-4.071-8.384-4.073-8.389l-.012-.035.172-1.46zM98.368-1.469l3.799 3.107-1.264 1.549-.627-.514.64-.787-3.175-2.59zM94.709 10.42a2.43 2.43 0 0 1-1.855-.522c-1.159-.91-1.244-2.532-.401-3.604a2.652 2.652 0 0 1 1.734-.99 2.499 2.499 0 0 1 1.877.522c1.165.919 1.226 2.527.373 3.611a2.655 2.655 0 0 1-1.728.983m.721-3.79c-.409-.319-.859-.44-1.276-.387-.391.05-.75.254-1.019.591-.54.687-.43 1.649.352 2.264.41.321.857.44 1.27.388a1.517 1.517 0 0 0 1.003-.584c.55-.698.457-1.652-.33-2.272m-5.322 5.726-2.7.161-.07-.066 2.636-2.918.62.551-1.028 1.143a8.853 8.853 0 0 1-.424.414s.207-.051.414-.093c.082-.016.161-.027.23-.033l.608-.06c.86-.085 1.608.016 2.087.449.626.567.725 1.492-.057 2.362a1.962 1.962 0 0 1-1.093.635c-.414.078-.859.007-1.3-.228l.422-.856c.3.132.577.186.822.142a.897.897 0 0 0 .502-.292c.301-.332.326-.748-.016-1.054-.356-.327-.821-.306-1.653-.257M2.593 4.907a1.7 1.7 0 0 1 1.456-.523c.476.056.967.292 1.397.707.929.9 1.033 2.06.279 2.841-.376.391-.833.536-1.298.485a1.998 1.998 0 0 1-.653-.202c.171.446.146.939-.247 1.348-.289.297-.71.45-1.158.397-.366-.041-.747-.215-1.095-.549-.755-.73-.753-1.7-.226-2.244A1.167 1.167 0 0 1 2.061 6.8c.11.013.215.038.32.072-.35-.656-.342-1.393.212-1.965m1.482 2.7c.319.039.631-.08.874-.33.427-.443.4-1.065-.109-1.555-.229-.222-.48-.345-.725-.37a.965.965 0 0 0-.832.315c-.434.446-.427 1.09.081 1.583.222.215.467.33.711.357M2.353 7.57a.67.67 0 0 0-.572.216c-.296.309-.264.74.053 1.05.14.132.305.212.47.229a.685.685 0 0 0 .58-.217c.295-.305.266-.729-.056-1.041a.84.84 0 0 0-.475-.237M95.89 1.596l4.111 2.689-1.096 1.677-.679-.449.553-.853-3.426-2.239ZM-29.769 81.978c-.723 1.852-1.723 4.055-2.867 5.488l-.26-.171c.002 0 .038-.069.102-.195.461-.891 2.343-4.717 2.939-8.58l.006-.035.017-.03.941-1.399.29 1.536-.008.036c-.003.003-.44 1.498-1.16 3.35m5.218 12.896.002.035c-.002.004.022 1.768-.12 3.92-.1 1.523-.283 3.239-.62 4.666l-.307-.045s.014-.3.032-.806c.052-1.516.133-4.884-.073-7.523l-.002-.027.444-1.455zm-5.321-46.473c-.006.001-3.545 3.741-6.518 5.636l-.188-.245s.22-.203.584-.556c1.098-1.05 3.504-3.41 5.196-5.442l.018-.022 1.331-.735-.398 1.336zm6.504-15.389s-1.037.826-2.495 1.852c-1.541 1.088-3.551 2.397-5.332 3.212l-.154-.269s.406-.286 1.055-.755c.647-.473 1.535-1.129 2.493-1.872 1.182-.916 2.471-1.959 3.548-2.94l.023-.018 1.505-.573-.614 1.338zm-11.861 36.945-.253-.179c0-.001.148-.258.394-.703.736-1.328 2.331-4.296 3.341-6.742l.012-.027.021-.019 1.033-1.076.015 1.393-.017.032c-.002.007-2.271 4.631-4.546 7.321m8.508-47.482c.102.007.708.044 1.625.044a33.356 33.356 0 0 0 4.415-.265 25.516 25.516 0 0 0 2.517-.452c.225-.056.454-.114.678-.175l.033-.008 1.696.283-1.281.898-.037.008-.399.048h-.002c-.339.042-.88.105-1.546.164-.104.008-.211.016-.318.026-.574.044-1.222.086-1.903.11-.998.042-2.071.045-3.098-.022a7.358 7.358 0 0 1-.492-.041 12.617 12.617 0 0 1-1.953-.314l.051-.307zm21.962 5.394c.097-.523.186-1.085.264-1.672v-.004c.008-.057.015-.118.021-.176l.003-.001a27.701 27.701 0 0 0 .209-3.011c.002-.337-.003-.677-.017-1.014l-.003-.031.659-1.59.588 1.447-.001.039c-.003.002-.04.441-.126 1.14-.05.394-.112.862-.192 1.388v.003l-.014.076c-.015.111-.035.228-.053.344-.051.311-.105.626-.164.96-.04.192-.078.392-.118.593-.017.085-.034.172-.054.257a29.542 29.542 0 0 1-.371 1.593c-.299 1.128-.666 2.222-1.124 3.102l-.287-.116s.027-.086.073-.245c.134-.477.439-1.613.707-3.082M8.269 8.836c.382.089.751.295 1.068.603.237.229.415.493.533.767.301.708.19 1.508-.405 2.122a2.208 2.208 0 0 1-.453.355 1.75 1.75 0 0 1-1.296.203 1.907 1.907 0 0 1-.888-.503 1.412 1.412 0 0 1-.415-.779s.048.459-.002.757l-.356 2.146-.781-.763.436-2.613c.119-.739.288-1.311.736-1.774a1.881 1.881 0 0 1 1.823-.521m-1.105 2.817c.177.169.365.275.558.323.229.054.46.026.674-.076a1.13 1.13 0 0 0 .358-.259c.293-.299.396-.699.289-1.072a1.189 1.189 0 0 0-.312-.519 1.193 1.193 0 0 0-.556-.319c-.371-.086-.752.039-1.037.332-.415.427-.472 1.1.026 1.59m-18.982 17.626v.029a50.859 50.859 0 0 0-.11 2.738 67.797 67.797 0 0 0-.007 1.622c.007 1.266.039 2.433.071 3.28.031.85.061 1.379.061 1.382l-.307.043c-.37-1.523-.582-3.36-.703-4.998a73.12 73.12 0 0 1-.099-1.7c-.065-1.512-.059-2.583-.059-2.585v-.036l.675-1.315zm-4.429 75.534c1.057 1.969 2.506 3.784 3.691 5.11a37.01 37.01 0 0 0 1.494 1.573 20.906 20.906 0 0 0 .607.577l-.187.249c-1.558-.968-3.236-2.713-4.532-4.218a44.851 44.851 0 0 1-2.209-2.771l-.021-.032-.24-1.546 1.381 1.03zm-7.191-31.134c1.233 1.863 2.841 3.543 4.143 4.75a34.598 34.598 0 0 0 1.631 1.431c.205.165.369.298.482.387l.173.133-.162.264c-3.269-1.644-7.344-6.34-7.352-6.345l-.024-.03-.377-1.517 1.467.899zm2.621 14.094c1.233 1.862 2.84 3.542 4.142 4.752a34.399 34.399 0 0 0 2.113 1.818c.115.087.174.131.176.131l-.165.263c-3.271-1.641-7.343-6.336-7.351-6.342l-.025-.03-.379-1.519 1.47.9zm8.652-63.661c.425-.485.894-.974 1.389-1.456.344-.338.702-.668 1.068-.995l.035-.031c.32-.285.646-.565.968-.84 2.613-2.199 5.18-3.89 5.18-3.89l-.159 2.228s-1.172.821-2.806 3.317a25.394 25.394 0 0 0-.669 1.083l-.078.123-.04.076a9.783 9.783 0 0 0-.637 1.359c-1.109 2.889-1.126 6.327-1.113 7.186l.004.187v.022l-.004-.027a3.949 3.949 0 0 0-.04-.194c-.525-2.351-2.946-6.123-2.946-6.123zm2.647 1.096a1.331 1.331 0 0 0 1.048-.595 1.32 1.32 0 0 0 .227-.793 1.368 1.368 0 0 0-.096-.427l-.072-.152a1.313 1.313 0 0 0-2.067-.33 1.326 1.326 0 0 0-.425 1.024c.033.732.652 1.3 1.385 1.273M57.2-5.551l-.148-.021-.042-.006-.008-.034-.714-2.534-1.195-4.244 1.072.135.248.932 2.795.355.472-.842 1.146.147-1.729 2.916zm-.532-4.786.52 1.978h-.004l.007.019c.069.248.12.557.154.758.085-.191.224-.487.355-.713l.098-.173.895-1.611zM118.6 21.812h.029c.395-.023 1.188-.229 1.863-.423.677-.198 1.251-.386 1.255-.386l.145.267c-.23.185-.594.354-.986.506a7.452 7.452 0 0 1-.313.12c.419.021.842.044 1.257.067.267-.115.669-.217 1.113-.31.463-.093.958-.176 1.336-.232l.618-.09.04.314a5.021 5.021 0 0 0-.663.15c-.306.086-.638.193-.944.294.098.014.188.021.29.034a28.51 28.51 0 0 1 1.742.28c1.308-.577 3.611-.751 4.288-.799l.187-.009.028.307c-1.129.167-2.482.522-3.287.746a61.026 61.026 0 0 1 3.908.959c.154.043.28.082.375.116.1.034.164.058.215.086l-.107.288c-.003 0-.737-.162-1.797-.381a81.677 81.677 0 0 0-3.247-.59c.61.644.953 1.444.96 1.453l-.281.135c-.306-.568-1.165-1.239-1.718-1.625a4.385 4.385 0 0 0-.233-.154 24.56 24.56 0 0 0-1.423-.159c-.101-.005-.203-.012-.299-.018l-.002.002c-.817-.043-1.667-.067-2.474-.096l1.087.628-.135.279-2.446-.982a12.91 12.91 0 0 1-1.487-.178c-.417-.09-.732-.191-.929-.384l-.269-.271.383.007s.807.013 1.921.049m4.748 71.306a142.05 142.05 0 0 0 1.717-4.452c.043 1.003-.037 2.591-.913 3.66-.188.227-.494.493-.804.792m-13.991-62.646c.282 1.149 1.992.886 1.992.886-.58.321-1.092.659-1.545 1.002-.48.364-.898.737-1.247 1.109-.034-.13-.077-.257-.118-.382-.382-1.15-.971-2.296-.971-2.296s1.262.935 1.889-.319m-6.326-12.008.077.373s.167.791.381 1.881c.112.419.595 1.33.985 2.003.037.07.075.137.114.204.227.395.402.679.402.68l-.229.202c-.211-.161-.422-.425-.634-.724l-.065-.093-.002-.004c-.07-.1-.137-.204-.207-.308.017.089.032.176.05.266v.004c.014.07.024.135.036.202l.001.003c.043.257.09.518.128.773.092.116.181.262.274.437v.002c.065.121.133.25.194.387l.041.075c.21.452.416.958.566 1.338.14.352.232.601.232.604l-.292.107v-.003a5.164 5.164 0 0 0-.262-.542 18.035 18.035 0 0 0-.536-.92c.046.369.083.77.112 1.199l.013.254c.009.197.021.397.03.603.502.669.942 1.69 1.265 2.56.326.889.529 1.613.529 1.617l-.293.097c-.421-1.066-1.069-2.302-1.466-3.034.016 1 .011 1.991-.011 2.794-.011.488-.029.907-.047 1.225-.01.156-.02.29-.028.392-.013.103-.021.172-.041.228l-.303-.045a90.772 90.772 0 0 0-.168-4.932c-.002-.066-.008-.131-.013-.198-.489.74-1.197 1.257-1.204 1.264l-.194-.244c.466-.404.909-1.328 1.161-1.956.054-.131.099-.248.136-.346a23.418 23.418 0 0 0-.179-1.466l-.002-.027c-.014-.079-.023-.157-.04-.224v-.002c-.016-.107-.038-.217-.058-.328-.082-.454-.171-.911-.259-1.363-.032-.167-.066-.335-.094-.498-.017-.083-.029-.161-.048-.243l-.074.243-.297.961-.3-.07.153-.966.253-1.638a14.465 14.465 0 0 1-.151-1.26c-.027-.537-.013-.949.158-1.223zm21.011 57.133c-.243.281-.644 1.003-.969 1.641-.33.644-.589 1.208-.592 1.211l-.297-.077c.022-.294.151-.674.303-1.067.043-.103.086-.21.132-.314-.304.295-.613.591-.916.874-.143.412-.53 1.043-.9 1.605a25.09 25.09 0 0 1-.734 1.061l-.252-.182.001-.002c.153-.212.365-.62.563-1.029.071-.151.141-.3.207-.444-.458.394-1.015.827-1.617 1.27-.277.789-.884 1.722-1.427 2.478-.553.763-1.044 1.334-1.044 1.336l-.247-.191c.65-.937 1.321-2.164 1.705-2.907a59.877 59.877 0 0 1-2.326 1.549 27.64 27.64 0 0 1-1.388.839c-.093.05-.151.078-.21.099l-.132-.279.42-.292a92.08 92.08 0 0 0 3.741-2.718 5.632 5.632 0 0 1-1.721-.296l.092-.297c.27.069.625.082.996.058a10.39 10.39 0 0 0 1.643-.262c.496-.405.945-.795 1.303-1.138.59-.571 1.186-1.172 1.764-1.738l-1.206.365-.109-.295 2.39-1.109c.414-.382.793-.712 1.13-.952.344-.245.636-.406.907-.425l.028-.003.383-.008-.268.275s-.565.575-1.353 1.364m1.37-17.512c-.16.333-.356 1.14-.497 1.846-.149.708-.251 1.323-.251 1.323l-.308.007a1.607 1.607 0 0 1-.027-.232c-.024-.345.022-.792.081-1.218-.215.366-.433.733-.653 1.087-.028.436-.233 1.148-.442 1.79-.214.654-.424 1.214-.424 1.216l-.292-.11c.091-.246.189-.694.271-1.143.029-.165.055-.326.081-.485a25.889 25.889 0 0 1-1.23 1.657c-.054.838-.388 1.894-.715 2.765-.33.884-.649 1.566-.651 1.569l-.287-.121c.377-1.077.699-2.437.875-3.254a72.698 72.698 0 0 1-1.83 2.111c-.331.363-.618.669-.841.897a8.886 8.886 0 0 1-.279.278 1.22 1.22 0 0 1-.178.151l-.2-.234.328-.391a98.07 98.07 0 0 0 2.887-3.615c-.362.099-.725.15-1.022.17-.414.023-.713.002-.717.002l.011-.311.084-.006c.754-.042 1.895-.607 2.404-.889.372-.524.702-1.017.957-1.445.418-.707.835-1.447 1.238-2.143l-1.065.67-.184-.253 2.01-1.704c.3-.487.586-.911.85-1.237.271-.326.512-.558.773-.64l.365-.11-.182.333s-.39.704-.94 1.669m3.636 15.523c.295.94.538 2.259.121 3.532-.156.476-.701 1.094-1.083 1.746.328-1.366.598-2.707.789-3.99.062-.417.118-.853.173-1.288m-7.627-29.23c-.114.355-.195 1.18-.244 1.893a41.832 41.832 0 0 0-.063 1.349l-.302.047c-.075-.211-.11-.491-.13-.802a8.018 8.018 0 0 1-.014-.642c-.165.39-.33.782-.499 1.161l.005.025c.024.447-.09 1.2-.208 1.862a28.3 28.3 0 0 1-.244 1.209v.006h-.003l-.302-.068v-.005c.08-.351.114-1.061.125-1.654a28.133 28.133 0 0 1-.981 1.801l.003.03c.052.844-.144 1.949-.347 2.855-.203.901-.423 1.598-.423 1.6l-.299-.077c.227-1.12.358-2.51.418-3.345a72.568 72.568 0 0 1-1.523 2.347c-.276.402-.519.745-.706 1.003-.097.123-.175.231-.24.313a.955.955 0 0 1-.154.171l-.236-.201s.102-.161.278-.433c.467-.751 1.468-2.376 2.359-3.975-.797.342-1.644.4-1.691.407l-.016-.003-.022-.306c.372-.058.856-.279 1.292-.536.424-.244.809-.518 1.049-.695.297-.568.556-1.106.748-1.562.315-.755.628-1.548.931-2.295l-.959.811-.22-.222 1.756-1.968c.233-.524.457-.985.676-1.343.221-.363.425-.622.677-.742l.346-.157-.139.355c0 .001-.287.753-.698 1.786m-15.38-27.945-.147-.098a54.015 54.015 0 0 0-2.219-1.402 49.544 49.544 0 0 0-2.122-1.197c.859-.361 2.134-.845 2.757-.859.962-.021 2.942.917 3.773-.263.826-1.178-.891-2.15-.891-2.15 1.595.258 2.964.205 4.041-.037-.692 1.088-.515 2.412-.515 2.412s-1.119-.397-1.523.041c-.402.44-.565 1.335-.778 1.974a.95.95 0 0 1-.209.284c-.421.402-1.357.893-2 1.214a2.17 2.17 0 0 0-.167.081m.123-1.824v-.002l.005-.043zm3.749-14.817a35.98 35.98 0 0 1 1.348-1.168c-.626.965-1.111 2.007-1.111 2.007s-.01-.459-.237-.839m16.142 33.052c.357.109 1.18.181 1.898.221.722.039 1.344.048 1.347.048l.049.304c-.228.081-.544.123-.885.146-.179.011-.368.013-.553.017.393.159.784.317 1.166.481l.049-.005c.451-.025 1.204.079 1.857.19.65.11 1.199.23 1.199.23l-.063.303h-.002c-.356-.075-1.065-.1-1.66-.104.545.259 1.168.589 1.816.961l.08-.005c1.684-.103 4.4.715 4.412.717l-.075.302c-1.124-.214-2.514-.329-3.349-.383.856.52 1.687 1.054 2.36 1.501.405.27.752.511 1.01.693.127.092.236.171.318.235.08.067.134.109.174.153l-.2.234s-.16-.1-.436-.267a92.927 92.927 0 0 0-4.004-2.314c.364.812.428 1.68.428 1.692l-.308.035c-.063-.375-.287-.854-.547-1.287a12.286 12.286 0 0 0-.707-1.041 22.422 22.422 0 0 0-1.572-.73c-.762-.309-1.553-.61-2.304-.902l.822.947-.224.22-1.982-1.734a12.052 12.052 0 0 1-1.348-.656c-.365-.221-.63-.422-.75-.67l-.161-.346.356.135s.753.28 1.789.679m-11.909.643c-.228-.293-.435-.813-.603-1.317-.032.42-.057.846-.093 1.262.173.402.308 1.137.41 1.8.105.674.17 1.263.172 1.275v.001l-.309.033c-.041-.356-.24-1.04-.421-1.608a27.892 27.892 0 0 1-.346 2.027c.48 1.138.645 2.996.709 3.927.02.346.024.558.024.56l-.309.026c-.15-1.133-.477-2.492-.692-3.301a67.853 67.853 0 0 1-.679 2.714c-.13.467-.247.873-.344 1.174a5.82 5.82 0 0 1-.123.376c-.037.096-.061.16-.087.214l-.287-.118c0-.002.178-.731.41-1.789.2-.923.444-2.09.651-3.234a5.742 5.742 0 0 1-1.475.932l-.131-.28c.665-.345 1.477-1.422 1.818-1.924a20.63 20.63 0 0 0 .197-1.719c.05-.762.092-1.552.13-2.306l.012-.165-.394.651-.257.427-.278-.144.158-.366.866-2.06.014-.107c.049-.548.111-1.034.2-1.427.093-.392.2-.688.391-.872l.274-.258-.011.377c0 .002-.028.8-.083 1.909v.004l.001.067c.02.317.142.868.279 1.41.106.424.228.846.321 1.162l.157.526zm-4.09-18.199.736-.362c.322-.183.938-.741 1.456-1.24.257-.255.495-.493.669-.669.172-.175.28-.288.28-.288l.257.168c-.116.273-.359.592-.631.913-.076.09-.156.17-.232.256.383-.18.774-.36 1.154-.534.181-.236.495-.516.85-.811.368-.305.776-.613 1.08-.837.281-.208.479-.348.479-.348l.181.255c-.182.131-.458.388-.737.664-.159.16-.316.329-.468.485a26.584 26.584 0 0 1 1.936-.677c.247-.309.568-.627.923-.93 1.161-1.002 2.651-1.881 2.653-1.885l.171.261c-.919.683-1.948 1.624-2.553 2.198a67.801 67.801 0 0 1 2.616-.689c.469-.117.876-.208 1.195-.272.32-.069.541-.107.662-.114l.044-.004.037.307c-.003 0-.725.199-1.765.507-.904.269-2.047.621-3.147.995a5.588 5.588 0 0 1 1.53.836l-.185.25c-.576-.386-1.77-.578-2.419-.646h-.002a1.871 1.871 0 0 0-.138-.013c-.598.223-1.155.447-1.601.655-.338.16-.678.325-1.023.487l-1.212.588.336.014.923.03.012.314-1.055.109-1.568.169a22.42 22.42 0 0 1-.687.288c-.539.21-.999.355-1.355.379a1.02 1.02 0 0 1-.359-.034l-.365-.115.344-.171c0-.003.384-.196.978-.489m.287-10.206c.87-.058 1.684.178 1.692.179l-.071.302a2.702 2.702 0 0 0-.623-.023c-.71.043-1.552.279-1.989.414-.468.44-.892.862-1.222 1.231-.549.609-1.108 1.25-1.636 1.855l1.177-.446.129.28-2.305 1.279c-.395.421-.755.781-1.078 1.047-.334.265-.613.443-.886.476l-.379.036.247-.291s.519-.616 1.251-1.454c.221-.297.571-1.048.849-1.71.284-.665.502-1.249.505-1.249l.302.051c0 .298-.098.689-.227 1.09-.036.108-.071.217-.108.323l.851-.941c.115-.422.457-1.077.786-1.666.337-.6.652-1.108.652-1.108l.267.163c-.138.223-.322.648-.489 1.072-.06.155-.121.309-.174.46.427-.43.952-.901 1.526-1.382.218-.81.757-1.787 1.245-2.577.499-.8.945-1.405.945-1.407l.261.172c-.58.985-1.164 2.258-1.494 3.02a64.444 64.444 0 0 1 2.209-1.71c.394-.289.736-.533.996-.715.133-.088.24-.162.329-.218.088-.057.149-.09.204-.113l.153.267-.401.318a95.485 95.485 0 0 0-3.538 2.981c.015 0 .029-.005.044-.006M52.986-7.438l-.638-2.048c-.07-.222-.141-.509-.187-.702a7.353 7.353 0 0 1-.254.695l-1.133 2.528-.41.919-.161-.005h-.037l-.29-.72-1.113-2.784a9.378 9.378 0 0 1-.234-.707 7.83 7.83 0 0 1-.208.698l-1.193 3.382-.002.009h-.038l-1.121-.022.027-.076 2.344-6.4.162.002h.04l1.556 3.843c.077.19.158.441.213.606a6.68 6.68 0 0 1 .219-.599l1.662-3.779.16.001.043.003 1.586 4.943.521 1.616-1.083-.018zm95.872 69.606.004.003h-.004c-.183.433-.483.8-.835 1.085a1.877 1.877 0 0 1-.567.315 2.67 2.67 0 0 1-.452.106c-.348.04-.653.017-.955-.031a5.07 5.07 0 0 1-1.386-.433c-.092-.047-.185-.094-.279-.146a3.217 3.217 0 0 1-.801.213h-.006a3.266 3.266 0 0 1-1.052-.034 3.976 3.976 0 0 1-1.108-.398 3.747 3.747 0 0 1-1.081-.877 4.064 4.064 0 0 1-.504-.757 5.553 5.553 0 0 1-.207.068l.116.091c.301.246.563.536.762.868.198.328.33.697.377 1.067v.006c.053.386.003.755-.088 1.082.146.075.296.149.452.237.623.35 1.281.773 1.871 1.318.291.277.567.583.804.953.236.368.43.804.512 1.306v.002l.017.131c.054.419.05.834-.042 1.238a2.574 2.574 0 0 1-.345.833c.296.309.599.637.868.997a5.7 5.7 0 0 1 .479.756c.138.27.269.583.321.984v.003l.014.135.002.006c.023.333-.019.66-.105.953a3.077 3.077 0 0 1-.566 1.048c.097.113.202.228.297.357.137.182.27.384.384.618.117.236.216.515.258.844v.005c.034.26.029.558-.051.854l.001.005-.005.01a2.644 2.644 0 0 1-.474.976 2.43 2.43 0 0 1-.42.417c.031.131.063.264.082.412.028.229.037.487.003.766-.026.206-.08.428-.168.648a2.466 2.466 0 0 1-.646.918c-.286.26-.622.446-.974.573a2.216 2.216 0 0 1-.379.091 2.07 2.07 0 0 1-.735-.044l-.001.002-.002-.002a3.278 3.278 0 0 1-.882-.345 5.157 5.157 0 0 1-1.37-1.103 3.176 3.176 0 0 1-1.179-.164c-.057-.017-.105-.039-.158-.061-.03.184-.078.365-.146.528a2.28 2.28 0 0 1-.081.171c.091.068.182.138.276.212.528.421 1.083.916 1.567 1.507.237.294.466.618.65.98.187.362.338.77.4 1.234a3.777 3.777 0 0 1-.136 1.523c-.074.255-.19.501-.341.727-.074.112-.16.212-.251.309.194.29.387.586.563.903.133.241.253.492.353.753.104.265.193.545.237.877.025.182.032.379.01.6l-.002.004-.003.007.003.002a2.683 2.683 0 0 1-.268.907 3.004 3.004 0 0 1-.742.936c.039.061.082.119.12.19.199.357.396.768.473 1.313v.002c.025.187.03.398.005.616a2.275 2.275 0 0 1-.191.68v.005l-.006.006v.002a2.803 2.803 0 0 1-.444.674 2.578 2.578 0 0 1-.679.539c.013.176.02.364 0 .571a2.83 2.83 0 0 1-.162.731c-.14.384-.402.792-.783 1.097a2.825 2.825 0 0 1-1.308.561l-.001-.021.001.021-.063.011h-.004a1.893 1.893 0 0 1-.873-.094h-.003a2.522 2.522 0 0 1-.489-.221 4.135 4.135 0 0 1-.68-.5 5.033 5.033 0 0 1-.871-1.015l-.088-.14a3.221 3.221 0 0 1-1.667-.729 3.313 3.313 0 0 1-.169-.148 2.423 2.423 0 0 1-.518 1.238l.072.079c.407.465.834 1.001 1.203 1.599.359.603.681 1.275.792 2.076.045.352.045.73-.041 1.12v.003a3.813 3.813 0 0 1-.287.862c-.19.408-.47.781-.841 1.052l-.008.006c.079.184.156.376.23.573.17.464.319.942.386 1.462.025.182.035.375.029.58a2.403 2.403 0 0 1-.109.676c-.139.46-.398.85-.688 1.135a3.112 3.112 0 0 1-.655.494c.115.3.218.633.27 1.013.031.253.042.533-.009.843a2.37 2.37 0 0 1-.4.974 2.742 2.742 0 0 1-.886.79 2.343 2.343 0 0 1-.455.192 3.472 3.472 0 0 1-.045.303 3.234 3.234 0 0 1-.208.646 2.6 2.6 0 0 1-.759.98 2.554 2.554 0 0 1-1.266.524l-.018.004a3.248 3.248 0 0 1-.483.021h-.005l-.001-.002-.006.002v-.002a1.892 1.892 0 0 1-.825-.221h-.005a2.94 2.94 0 0 1-.766-.601l-.002-.002a4.97 4.97 0 0 1-1.027-1.684 3.35 3.35 0 0 1-.677-.313 3.317 3.317 0 0 1-.824-.717 3.921 3.921 0 0 1-.611-1.066 3.506 3.506 0 0 1-.22-.856c-.069-.52-.02-.994.077-1.418a2.88 2.88 0 0 1-1.308-.934 3.127 3.127 0 0 1-.547-1.028l-.003-.006-.001-.006h.001a3.557 3.557 0 0 1-.144-.642 4.481 4.481 0 0 1 .168-1.825c.111-.381.256-.721.404-1.028a4.732 4.732 0 0 1-.423-.327 3.5 3.5 0 0 1-.962-1.357l-.009-.034c-.256.456-.499.892-.717 1.272a5.635 5.635 0 0 0-.184.527l-.02.084c.042.152.093.337.152.542.077.29.163.618.212.996.036.294.058.634-.017 1.025v.011a2.048 2.048 0 0 1-.326.775c-.12.176-.251.314-.379.427.109.306.202.653.255 1.038l.002.005c.071.551.05 1.182-.148 1.83-.167.562-.464 1.081-.894 1.468a2.65 2.65 0 0 1-1.448.665h-.007l-.042.003a9.312 9.312 0 0 1-.044.507c-.084.711-.222 1.478-.505 2.231a4.815 4.815 0 0 1-.568 1.112 3.371 3.371 0 0 1-1.012.972c-.436.268-.89.456-1.384.521h-.004a2.566 2.566 0 0 1-.787-.023 9.728 9.728 0 0 1-.625 1.251c-.154.252-.32.499-.533.738-.211.235-.465.48-.85.677a2.803 2.803 0 0 1-.862.26h-.006a2.984 2.984 0 0 1-1.243-.114l-.055.127c-.161.315-.36.65-.671.972a2.633 2.633 0 0 1-.577.462 2.258 2.258 0 0 1-.842.29l-.029.005a2.599 2.599 0 0 1-.803-.015 2.501 2.501 0 0 1-.802-.279c-.046.035-.085.067-.134.099a2.982 2.982 0 0 1-1.28.504l-.013.002a2.497 2.497 0 0 1-1.231-.159 2.83 2.83 0 0 1-1.05-.746h-.002l-.002-.002a1.94 1.94 0 0 1-.377-.633v-.003a2.343 2.343 0 0 1-.116-.501 3.764 3.764 0 0 1 .008-.908c.059-.444.178-.904.373-1.365.034-.079.072-.158.109-.235a3.347 3.347 0 0 1-.282-.964l-.003-.017c-.079-.612.027-1.317.348-1.993.242-.522.592-.94.961-1.253.192-.166.392-.296.585-.416a3.015 3.015 0 0 1-.224-.815l-.005-.007a3.133 3.133 0 0 1 .372-1.877c.286-.522.67-.923 1.071-1.23a5.748 5.748 0 0 1 1.767-.883c-.011-.05-.022-.098-.029-.153a3.884 3.884 0 0 1-.009-.949c.032-.339.13-.704.297-1.057.219-.457.528-.841.889-1.174.541-.498 1.21-.892 1.991-1.21a10.704 10.704 0 0 1 1.767-.523c-.015-.202-.01-.41.023-.618l-.01-.002a3.172 3.172 0 0 1-.936-.373c-.128.154-.27.315-.431.47a3.71 3.71 0 0 1-.636.476 2.53 2.53 0 0 1-.935.32 2.046 2.046 0 0 1-.531.004 2.633 2.633 0 0 1-1.515-.679c-.244.101-.521.19-.843.235a2.763 2.763 0 0 1-.715-.003 2.542 2.542 0 0 1-1.147-.461 2.843 2.843 0 0 1-.814-.963l-.004-.002v-.003l-.004-.004v-.001a1.877 1.877 0 0 1-.199-.643 2.513 2.513 0 0 1 .005-.624c.044-.311.131-.588.238-.863a5.33 5.33 0 0 1 .692-1.217c.051-.064.101-.125.154-.188-.01-.062-.025-.129-.033-.204l-.004-.006a3.232 3.232 0 0 1 .098-1.292c.129-.467.373-.935.725-1.366a3.73 3.73 0 0 1 1.381-1.048 5.08 5.08 0 0 1 .522-.193l-.015-.081v-.01c-.05-.382-.033-.82.098-1.26.136-.444.381-.874.719-1.231a3.893 3.893 0 0 1 1.391-.953c.482-.2.957-.3 1.394-.36.165-.022.324-.033.479-.041.008-.103.015-.205.032-.312.041-.268.111-.555.228-.845a2.608 2.608 0 0 1-.483-.281l-.14-.119a3.118 3.118 0 0 1-.901.258 2.473 2.473 0 0 1-.709 0 2.452 2.452 0 0 1-1.123-.448 2.816 2.816 0 0 1-.815-.93 1.842 1.842 0 0 1-.224-.685v-.002a2.222 2.222 0 0 1 .004-.608v-.002a3.75 3.75 0 0 1 .221-.859c.155-.409.374-.821.664-1.219.049-.061.095-.121.145-.181a5.259 5.259 0 0 1-.051-.275l-.002-.006a3.34 3.34 0 0 1 .089-1.268 3.74 3.74 0 0 1 .684-1.335 3.742 3.742 0 0 1 1.431-1.111c.153-.071.302-.125.45-.169-.011-.054-.021-.103-.028-.157v-.007a3.017 3.017 0 0 1 .094-1.233c.126-.434.361-.852.677-1.208a4.03 4.03 0 0 1 1.448-1.018 5.846 5.846 0 0 1 1.451-.375c.115-.015.224-.021.334-.029.002-.132.014-.26.034-.397l.03-.138a2.47 2.47 0 0 1-.943-.152 2.88 2.88 0 0 1-1.021-.678h-.003V75.5h-.004a1.948 1.948 0 0 1-.429-.692l-.001-.003a2.409 2.409 0 0 1-.127-.542 3.735 3.735 0 0 1-.004-.871 5.16 5.16 0 0 1 .318-1.339c.027-.065.056-.129.082-.195l-.061-.123a3.183 3.183 0 0 1-.283-.967v-.002l-.003-.013a3.72 3.72 0 0 1 .278-1.867A3.8 3.8 0 0 1 112 67.465c.143-.118.287-.22.43-.315a3.162 3.162 0 0 1-.287-.931v-.009a3.137 3.137 0 0 1 .313-1.765c.181-.37.418-.678.671-.944a3.021 3.021 0 0 1-.597.397 2.496 2.496 0 0 1-.819.253l-.013.002c-.336.043-.7.013-1.041-.09a2.937 2.937 0 0 1-.926-.485h-.003a1.855 1.855 0 0 1-.437-.48v-.003a2.34 2.34 0 0 1-.268-.596l-.004-.002a3.537 3.537 0 0 1-.106-.533v-.002a5.039 5.039 0 0 1 .055-1.545v-.001a5.86 5.86 0 0 1 .1-.417 4.25 4.25 0 0 1-.227-.365 3.35 3.35 0 0 1-.357-1.121v-.007l-.002-.002a3.82 3.82 0 0 1 .108-1.446 3.791 3.791 0 0 1 .941-1.656c.093-.099.186-.185.283-.268a2.979 2.979 0 0 1-.49-1.279l-.004-.014c-.06-.452-.01-.931.143-1.385.022-.067.046-.124.072-.183a3.11 3.11 0 0 1-.699-.143l-.003-.003h-.003a1.866 1.866 0 0 1-.589-.33h-.002a2.512 2.512 0 0 1-.515-.585v-.002a4.094 4.094 0 0 1-.418-.895 5.108 5.108 0 0 1-.235-1.014c-.016-.118-.022-.235-.032-.354a3.251 3.251 0 0 1-1.024-1.195 3.695 3.695 0 0 1-.352-1.189l-.001-.006a2.55 2.55 0 0 1-.026-.231 3.826 3.826 0 0 1 .35-1.871c.057-.122.12-.233.177-.34l-.073-.059h-.004a3.02 3.02 0 0 1-.703-.826c-.041-.066-.07-.139-.106-.209a2.755 2.755 0 0 1-.535.133l-.009.004a3.498 3.498 0 0 1-.639.013 1.922 1.922 0 0 1-.798-.254l-.002-.002a2.84 2.84 0 0 1-.723-.609v-.002a4.881 4.881 0 0 1-.717-1.114l.003.003-.006-.003a5.515 5.515 0 0 1-.256-.671 3.222 3.222 0 0 1-.542-.271 3.252 3.252 0 0 1-.848-.774 3.826 3.826 0 0 1-.607-1.162c-.019-.052-.026-.104-.042-.156-1.187.316-2.355.509-3.467.714-1.034.19-2.325.269-3.389.265-.631.004-1.42-.02-2.241-.102-.986-.072-4.686-.518-5.91-.753l-1.043-1.759s4.036.569 5.636.802l-.001-.004c.072.013.15.025.225.037.74.108 1.464.21 2.014.274l.33.032c2.796.139 5.516-.367 7.74-.969.027-.235.072-.456.127-.659a3.168 3.168 0 0 1-.757-.463 2.925 2.925 0 0 1-.604-.702 3.192 3.192 0 0 1-.383-.899 3.99 3.99 0 0 1-.087-.454c-.09-.704.025-1.349.203-1.898a6.26 6.26 0 0 1 .503-1.124 4.142 4.142 0 0 1-.368-.308l-.04-.038a3.548 3.548 0 0 1-.653-.876 3.243 3.243 0 0 1-.229-.522v-.001l-.004-.006v-.004l-.011-.035a4.334 4.334 0 0 1-.107-.462c-.396.15-.792.292-1.188.419-1.138.368-2.26.644-3.362.815-.741.111-1.474.18-2.194.202-.683-.008-1.218-.202-1.56-.521a1.32 1.32 0 0 1-.431-1.005c.002-.361.129-.764.408-1.184 1.467-1.828 4.115-2.654 4.115-2.654-3.907 2.384-2.883 3.89-1.704 3.865.279-.024.558-.051.837-.088.159-.022.317-.051.474-.073.04-.115.084-.231.142-.358 1.127-2.446 2.967-3.874 5.747-4.449a2.767 2.767 0 0 1-.532-.981l-.003-.01v-.006a2.691 2.691 0 0 1-.098-.46l-.001-.007a2.805 2.805 0 0 1 .05-.995c.127-.545.381-.974.643-1.314v-.002c.391-.512.822-.878 1.165-1.172.172-.152.321-.279.427-.38h.004c.051-.048.094-.091.126-.12l.026-.034.004-.003.002-.001a4.47 4.47 0 0 0 .273-.44c.114-.199.235-.436.352-.673-.073-.042-.146-.077-.217-.115-1.798.178-3.647.48-5.436.93l-.146.035a67.176 67.176 0 0 1-4.409 4.499 58.2 58.2 0 0 1-5.678 4.648c-.183.131-.367.265-.551.392l-.178.114c-.711.516-4.018 2.7-4.953 3.163l-.808-1.13s2.863-1.796 4.023-2.583l.604-.429c-.004-.005.623-.445.941-.673 2.587-1.843 5.369-4.175 8.217-7.135a65.356 65.356 0 0 0 2.092-2.269 75.176 75.176 0 0 0 4.197-5.239c12.247-16.75 18.481-17.528 20.642-17.3v-.001c3.783.323 6.365 1.615 7.508 3.614.571 1 .78 2.178.594 3.5 0 0-.006-2.681-2.859-4.36-.726-.425-1.637-.786-2.775-1.019.051.061.1.125.148.19l.139.039c.039.051.077.103.112.158v.001c.108.159.171.314.214.446l.03.12c1.024 1.794 1.643 4.591.013 8.594.194-.065.402-.121.639-.15a2.44 2.44 0 0 1 .554-.014c.333.03.652.125.924.257.408.195.71.464.947.728.067-.046.132-.09.206-.135h.002c.355-.204.772-.407 1.327-.484.186-.022.386-.029.6-.006.216.022.442.083.665.178v-.001c.259.115.501.271.703.452.229.202.402.428.534.659.194-.016.399-.024.627-.003.226.021.47.07.723.164.382.138.779.396 1.078.775.296.359.471.793.556 1.235 1.014-3.347 1.07-6.198.696-8.508-.731-4.549-3.112-7.004-3.112-7.004s-8.626-3.926-9.489-10.204c0 0-11.108-3.376-24.596 14.41-.847 1.121-1.674 2.21-2.477 3.271a778.503 778.503 0 0 1-3.247 4.261 361.5 361.5 0 0 1-2.534 3.279c-.596.762-1.183 1.505-1.759 2.219-.161.203-.325.398-.481.6-3.579 4.601-6.509 7.297-9.18 9.236l-.006-.003-3.653 2.843-1.1-1.085 4.676-3.592c2.49-2.017 4.777-4.174 7.802-7.895l.956-1.184c.039-.054.086-.109.125-.162l.738-.934C75.812 2.899 68.985-2.636 49.551-2.656h-.184c-19.664.02-26.414 5.681-36.466 10.839l.727.89.872 1.057c2.714 3.245 5.486 6.167 8.383 8.778l3.39 3.065-1.08 1.083-3.341-3.045c-.002.004-.008.005-.01.007-.138-.125-.269-.261-.408-.388l-.741-.679.015-.014c-2.673-2.539-5.16-5.287-7.663-8.291-.162-.198-.325-.391-.489-.59-.33-.401-.663-.809-1.002-1.223-.901-1.105-1.83-2.27-2.788-3.476A998.727 998.727 0 0 1 4.871.395L2.329-2.861c-13.743-17.594-24.796-14.062-24.796-14.062-.775 6.293-9.346 10.342-9.346 10.342S-34.245-4.004-34.86.711c-.518 3.98.257 9.484 4.89 16.242 1.758-.599 3.689-.99 5.733-.965l.068.004c-.06-.058-.124-.11-.183-.169-1.597-1.508-2.834-3.166-3.686-4.453-.851-1.287-1.318-2.22-1.337-2.254l-.836-1.665 1.794-.507c.044-.011 1.435-.401 3.426-.678.45-.066.938-.122 1.446-.168-2.422-4.921-1.465-8.186-.208-10.076.097-.148.2-.285.3-.416-1.511.338-2.611.886-3.412 1.512-2.173 1.698-2.147 3.951-2.147 3.951-.187-1.208-.042-2.294.409-3.246 1.029-2.164 3.649-3.59 7.586-3.984 2.16-.255 8.406.435 20.892 17.004a71.96 71.96 0 0 0 6.395 7.421c2.681 2.697 6.387 5.672 8.995 7.528 1.367.945 4.642 3.034 4.642 3.034l-.809 1.13c-.597-.297-3.143-1.899-3.864-2.393-.015-.007-.029-.018-.042-.028-3.251-2.233-8.092-6.146-11.725-10.099a34.545 34.545 0 0 0-3.425-.644l-.77.455c-.002.232-.004.496-.002.765.002.35.014.702.036.946v.001-.001c.006.101.016.174.027.224l.048.111c.072.165.149.363.235.604.261.737.608 1.901.9 3.396 2.605.583 4.37 1.971 5.485 4.306.058.119.107.237.143.353l.476.066c.283.033.561.054.84.073 1.179.009 2.18-1.508-1.759-3.84 0 0 2.656.787 4.148 2.592.286.418.422.819.429 1.182.002.092-.004.18-.016.264a1.343 1.343 0 0 1-.4.746c-.341.326-.872.528-1.555.544a16.944 16.944 0 0 1-2.192-.173 21.495 21.495 0 0 1-3.378-.764 27.787 27.787 0 0 1-1.674-.581c.007.215.011.435.016.657.002.164 0 .329-.002.49-.003.321-.009.639-.025.965a12.37 12.37 0 0 1-.076 1.155c-.042.366-.1.729-.17 1.091a18.949 18.949 0 0 1-.58 2.18c-.093.279-.184.558-.286.829-.169.457-.349.898-.538 1.333 2.043.515 4.535.94 7.289.846.489-.024.962-.06 1.419-.098.221-.023.438-.035.661-.067l-.003.005c1.67-.169 5.65-.665 5.65-.665l-.718 1.673s-4.158.379-5.711.483v.001h-.012l-.81.051-.65.042c-.361.022-.709.043-1.02.06-1.865.106-6.008-.798-6.718-.955-.28.575-.563 1.133-.838 1.659-.551 1.053-1.078 1.997-1.472 2.753-.193.374-.342.713-.472.975-.325.672-.558 1.439-.71 2.039a20.308 20.308 0 0 0-.218 1.024l-.035.226-.182-.133c-.001-.002-.352-.254-.765-.617-.309-.277-.655-.613-.913-.957-.068.559-.146 1.05-.226 1.478a18.8 18.8 0 0 1-.472 1.865c-.148.492-.26.861-.346 1.298a8.553 8.553 0 0 0-.092.607c-.04.342-.066.749-.075 1.265l-.048 3.375-1.841-1.648c.23.987.408 1.961.525 2.88.109.864.176 1.677.198 2.409.022.731.003 1.38-.057 1.941l-.002.018a14.64 14.64 0 0 0-.075 2.643 9.5 9.5 0 0 0 .068.721c.011.077.019.135.026.171l.007.033.001.012.65 3.289-2.925-1.671h-.003c-.019-.013-1.191-.682-2.644-1.677l-.113-.08c.053.127.108.249.159.382 2.576 6.598 2.801 11.941 2.807 12.043v.001l.077 1.844c.478.671.933 1.392 1.367 2.133 1.177 2.031 2.176 4.211 2.888 5.895a55.56 55.56 0 0 1 1.145 2.89l1.19 3.326-3.246-1.395-.033-.013a76.524 76.524 0 0 0-3.368-1.32 19.183 19.183 0 0 1 2.017 1.966c2.235 2.514 4.409 6.255 5.793 11.815l.455 1.831-1.885.079c-.062.003-.824.032-2.018-.105a21.232 21.232 0 0 1-1.503-.232 21.18 21.18 0 0 1-1.244-.287c.534.352 1.069.727 1.599 1.139 1.367 1.068 2.69 2.345 3.759 3.876 2.112 3.014 2.939 6.217 3.25 8.656.314 2.443.111 4.149.103 4.235l-.191 1.601-1.59-.267v-.002a1.401 1.401 0 0 1-.137-.023c-.398-.078-1.615-.341-3.248-.961-2.444-.927-5.84-2.659-8.734-5.812a19.973 19.973 0 0 1-3.731-5.851 22.513 22.513 0 0 1-1.417-4.999c-.591 2.639-1.516 4.784-2.336 6.43-.446.893-.859 1.648-1.159 2.235-.15.292-.271.545-.352.738l-.004.009-.004.007-.034.061c-.155.286-.806 1.541-1.129 2.978l-.046.215-.171-.132c-.007-.007-1.029-.788-1.602-1.845-.014-.026-1.23-2.278-2.414-5.153-.592-1.439-1.179-3.033-1.598-4.61a19.82 19.82 0 0 1-.488-2.345 10.51 10.51 0 0 1-.095-2.251l.042-.423c.044-.377.105-.759.179-1.141.237-1.214.612-2.437 1.038-3.609.64-1.755 1.402-3.392 2.02-4.651.307-.629.58-1.163.778-1.555.098-.195.178-.358.23-.468l.047-.103c.058-.214.129-.541.187-.832.041-.211.074-.407.098-.546l.006-.027-.015-.129c-.048.209-.097.422-.154.626-.49 1.788-1.28 3.354-2.177 4.711-1.344 2.041-2.929 3.625-4.156 4.827-.613.597-1.141 1.101-1.481 1.477-.169.182-.29.339-.346.423v.002h-.002l-.027.045-.003.004-.002.015-.02.022c-.619.774-.982 1.434-1.189 1.903a4.935 4.935 0 0 0-.206.54l-.039.142-.007.035-.002.011-.06.295-.186-.24c-1.093-1.407-1.299-2.753-1.301-2.765v-.003a81.006 81.006 0 0 1-.49-4.346 58.662 58.662 0 0 1-.22-3.839c-.022-1.141.002-2.248.116-3.246.016-.135.033-.27.051-.402.054-.362.114-.72.183-1.073.443-2.294 1.255-4.466 2.605-6.727.202-.334.42-.675.644-1.019-.574.478-1.143.912-1.685 1.302-2.342 1.664-4.246 2.525-4.304 2.551l-2.35 1.062.179-2.571c.004-.049.282-3.98.714-8.808a18.014 18.014 0 0 1 .26-1.859A16.46 16.46 0 0 1-39.88 66.2c1.042-1.524 2.362-2.929 3.943-4.231-.909.452-1.834.819-2.744 1.115-2.344.762-4.605 1.073-6.352 1.179l-3.189.195 1.841-2.622h.003c.037-.054.346-.511.711-1.165.378-.673.808-1.568 1.052-2.397.172-.575.475-1.456.909-2.525.658-1.594 1.606-3.582 2.862-5.437.628-.924 1.335-1.819 2.135-2.612a10.597 10.597 0 0 1 2.258-1.731 17.871 17.871 0 0 1-2.217-.115 19.69 19.69 0 0 1-1.539-.237h.002a24.181 24.181 0 0 1-1.882-.446l-1.989-.553 1.096-1.747c.343-.554.565-.913.718-1.177.229-.402.308-.566.491-.961.182-.39.441-.949.957-1.961.411-.797 1.03-1.664 1.833-2.585a23.62 23.62 0 0 1 4.705-4.09c1.89-1.24 4.065-2.259 6.413-2.631.236-.035.462-.072.681-.105a4.36 4.36 0 0 1 .117-.142c-.105-.006-.209-.003-.314-.012-.27-.021-.541-.046-.811-.079a27.96 27.96 0 0 1-2.157-.338c-2.461-.478-4.722-1.222-6.381-1.839-1.658-.626-2.713-1.133-2.745-1.15l-1.891-.906 1.436-1.532c.052-.055 1.763-1.88 4.552-3.717a25.183 25.183 0 0 1 4.014-2.162c-4.382-6.491-5.374-11.89-4.994-16.028.534-5.806 3.754-9.132 4.091-9.509 0 0 7.691-3.642 8.357-9.049l.114-.92.884-.281c.197-.062 1.994-.599 4.964-.235 4.981.613 12.74 3.676 21.422 14.783l.643.822c11.666-4.616 22.469-13.088 45.339-13.086h.019c22.482 0 33.3 8.196 44.748 12.858l.424-.564c8.522-11.229 16.237-14.4 21.208-15.085 2.968-.407 4.773.105 4.97.162l.887.269.127.922c.743 5.393 8.488 8.926 8.488 8.926.338.363 3.523 3.558 4.199 9.209.494 4.107-.346 9.525-4.579 16.093.331.206.625.444.867.741.184.223.322.478.42.745.483-.058.99-.099 1.502-.085.278.012.558.033.858.098.293.065.615.164.958.38l.011.009.006.011c.43.281.743.669.93 1.053.116.23.194.458.246.674.326-.027.68-.037 1.073.022.248.046.517.112.798.249.274.131.558.34.792.629l.003.006.013.013c.312.393.501.86.557 1.298l.001.018c.012.083.014.16.016.239.196.09.397.187.603.33.245.167.498.394.71.698.207.306.364.686.418 1.088l.002.015c.054.415.002.834-.12 1.219l-.001.003-.004.005a1.886 1.886 0 0 1-.322.608l-.003.004a2.481 2.481 0 0 1-.594.522c-.291.19-.59.326-.913.44-.322.11-.673.194-1.046.245a3.79 3.79 0 0 1-.265.021 2.995 2.995 0 0 1-.33.41 3.253 3.253 0 0 1-.892.657c-.357.18-.764.307-1.208.363l-.007.001a2.019 2.019 0 0 1-.161.021 3.82 3.82 0 0 1-1.879-.322c-.12-.054-.229-.113-.342-.174l-.076.103c-.052.066-.116.13-.176.19.131.125.252.253.352.397.169.24.281.494.36.742.716-.08 1.531-.133 2.366-.047.464.05.936.14 1.411.317.472.176.961.45 1.369.894l.003.002.006.005c.227.251.423.516.574.806.156.292.263.611.306.941v.009c.012.094.013.185.013.275.444.097.901.215 1.349.377.278.102.553.22.826.382v-.001l.003.001c.268.159.554.363.818.697l.003.005.006.005c.321.412.49.891.544 1.317v.014c.033.254.022.487.001.707.218.055.439.119.665.212.27.115.558.262.841.5h.003c.136.121.282.262.408.436.128.171.238.373.314.599v.001l.004.001c.061.18.102.366.125.549v.006c.055.401 0 .78-.101 1.104a3.08 3.08 0 0 1 .715.92c.12.236.216.515.258.823l.001.017c.043.33.017.69-.086 1.026a2.858 2.858 0 0 1-.472.918 1.766 1.766 0 0 1-.483.451c-.229.143-.433.22-.619.279a3.36 3.36 0 0 1-.55.113 4.96 4.96 0 0 1-1.524-.051 5.951 5.951 0 0 1-.396-.088c-.118.082-.237.166-.381.238a3.12 3.12 0 0 1-1.134.362l-.006.004a3.807 3.807 0 0 1-1.263-.065c.245.358.395.764.444 1.145l.004.017c.007.064.007.125.013.186.165.022.33.046.506.075.703.122 1.467.297 2.202.617a4.9 4.9 0 0 1 1.077.629 3.3 3.3 0 0 1 .908 1.049l.007.006.004.006c.221.406.374.819.43 1.262v.004c.038.289.031.584-.028.868l-.016.064c.405.201.822.424 1.211.695.245.166.481.347.71.568h.004a2.8 2.8 0 0 1 .627.888c.104.236.168.483.202.721l.001.011c.066.53-.03.999-.165 1.381.231.125.472.272.71.459.205.168.416.37.605.643.187.265.352.617.407 1.029l.001.011.011.087v.011a2.648 2.648 0 0 1-.375 1.616l.051.075c.198.317.392.723.46 1.232l.002.015c.052.394.004.856-.178 1.28M94.219 27.649a24.502 24.502 0 0 0 2.854-.909c.013-.09.028-.18.05-.273a7.68 7.68 0 0 1 .58-1.596c-1.586.508-2.703 1.415-3.484 2.778M.973 26.543c1.148.451 2.278.804 3.385 1.066-.81-1.369-1.957-2.262-3.576-2.743.074.53.14 1.093.191 1.677M-21.445-4.121c-1.621 1.3-3.261 4.468-.36 10.118.88-.021 1.795.007 2.715.11.398.044.793.106 1.191.182.341.068.681.148 1.017.246a17.33 17.33 0 0 1-.503-.914c-.984-1.947-1.523-3.861-1.907-5.363-.193-.752-.35-1.402-.486-1.87a7.428 7.428 0 0 0-.182-.546 1.475 1.475 0 0 0-.057-.124l-.008-.016zm1.621-.584a4.095 4.095 0 0 0-.519-.04c-.091.03-.188.068-.289.115l.15-.013c.14-.006.279-.007.408-.006.332.012.678.062 1.032.134.372.08.756.193 1.147.339-.778-.311-1.419-.468-1.929-.529m18.538 16.423c-.182-.247-.36-.478-.54-.714.06.236.118.477.18.718l.217.355c.097-.057.193-.115.288-.173l-.145-.186m-25.457 76.04a1.141 1.141 0 1 0-.092-2.278 1.141 1.141 0 0 0 .092 2.278m-12.105-63.35s5.825 2.797 11.553 3.256c.524.042 1.056.04 1.588-.005a13.12 13.12 0 0 0 2.049-.342c.431-.107.855-.234 1.273-.371a19.333 19.333 0 0 0 1.584-.615 26.225 26.225 0 0 0 3.256-1.708c.406-.247.769-.481 1.087-.693.802-.538 1.309-.927 1.393-.965.312-.139 2.16.102 2.16.102-.745.689-1.556 1.553-2.279 2.371-.3.341-.584.671-.846.98-.798.944-1.358 1.656-1.358 1.656l-.597.314c-.386.209-.914.488-1.439.765-.929.495-1.843.989-1.933 1.053-.171.123-1.092-.008-5.301.617-.317.047-.65.099-1.007.156-.252.039-.507.091-.758.149-5.182 1.182-9.834 5.925-11.061 8.334-1.351 2.655-.84 1.989-2.232 4.218 6.542 1.817 10.339.072 14.416-2.508 2.342-1.482 3.858-4.207 4.743-6.32.658-1.562.972-2.789 1.02-2.927.022-.065.166-.19.382-.347.723-.534 2.254-1.447 2.738-1.731.091-.056.148-.089.148-.089l-.091.127a67.315 67.315 0 0 0-2.758 4.104 53.11 53.11 0 0 0-1.345 2.297c-2.853 5.172-3.247 8.054-3.247 8.054s-1.922 1.03-2.671 1.315c-.748.285-2.566-.717-6.977 1.436-4.415 2.148-7.212 9.559-7.822 11.612-.612 2.057-1.989 4.017-1.989 4.017 3.292-.202 8.576-1.184 12.169-4.695 3.596-3.512 4.782-10.03 4.833-10.351.048-.318 1.961-1.539 1.961-1.539-1.752 3.562-1.911 8.831-1.911 8.831s-1.105 3.913-5.719 7.277c-4.616 3.366-6.986 7.334-7.417 12.172-.431 4.835-.71 8.779-.71 8.779s7.284-3.285 10.515-9.38c3.232-6.097 1.742-12.883 1.742-12.883l1.289-2.528c-.25 4.639.671 14.493.623 14.812-.05.318-.818 1.683-1.244 2.144-5.492 5.979-7.517 9.7-8.208 14.425-.561 3.835.54 11.39.54 11.39-.061-1.517 6.386-5.024 8.2-11.633 1.236-4.501.819-12.208.819-12.208l.455-1.447c.991 4.715 1.929 13.612 1.929 13.612s-.178 1.139-.376 1.828c-.197.687-3.895 6.952-4.266 11.607-.369 4.651 4.415 13.506 4.415 13.506-.394-1.343 3.184-4.996 4.261-11.721.808-5.049-2.894-12.326-2.894-12.326l.014-2.374c1.201 4.361 5.302 13.127 5.302 13.127.708 16.832 16.32 19.456 16.32 19.456s.761-6.342-3.082-11.824c-3.846-5.484-11.684-7.883-11.684-7.883s-1.617-2.275-3.873-7.698c-2.257-5.422-2.656-8.893-2.656-8.893.856.788 1.235 2.231 1.457 2.985.221.748 1.001 5.724 6.014 10.335 5.012 4.61 11.342 4.344 11.342 4.344-3.047-12.238-9.876-14.741-11.887-15.8-2.009-1.054-6.437-2.266-7.551-4.627-1.113-2.365-2.165-10.818-2.165-10.818l1.202 1.408c2.012 7.144 5.482 11.248 10.109 12.703 4.625 1.455 7.982 2.899 7.982 2.899s-2.946-8.247-6.336-11.973c-3.389-3.726-9.422-5.44-10.764-5.7-1.343-.261-2.377-2.246-2.377-2.246-.877-4.276-.134-15.276-.134-15.276l1.073 1.412s-.084 8.565 2.306 12.587c2.387 4.021 10.668 7.983 10.668 7.983s-.215-5.189-2.703-11.551c-2.487-6.365-6.627-8.348-8.058-9.174-1.43-.828-2.748-3.564-2.748-3.564 1.263-7.662 3.811-11.889 3.811-11.889l.116 1.265c-.449 8.892 2.861 15.223 4.994 17.73 2.134 2.513 6.684 5.11 6.684 5.11s-.324-1.634-.044-4.054c.279-2.425-.424-8.605-2.797-12.246-2.372-3.644-7.923-7.469-7.923-7.469l-.287-2.273.016-.038c.227-.571.497-1.16.794-1.759 1.018-2.043 2.388-4.182 3.691-6.041a88.328 88.328 0 0 1 2.24-3.043c.3-.384.57-.729.808-1.028.597-.75.971-1.193.971-1.193l.11 1.136a22.357 22.357 0 0 0-1.052 2.076c-.036.083-.073.164-.111.248a21.938 21.938 0 0 0-1.27 4.013 23.254 23.254 0 0 0 .222 10.498c1.059 4.077 5.803 8.317 5.803 8.317.05-3.361.881-3.204 1.283-7.221.188-1.881-.086-8.111-.086-8.111.396 3.406 2.674 7.815 2.674 7.815-.151-.877 1.514-3.367 3-6.416.21-.429.413-.871.614-1.32.187-.431.367-.865.533-1.31.09-.243.18-.484.265-.73.418-1.248.72-2.517.79-3.758l.014-.291c.023-.496.032-.98.028-1.455l-.007-.439a27.328 27.328 0 0 0-.041-.97c-.016-.26-.036-.517-.055-.768a33.06 33.06 0 0 0-.08-.78 28.27 28.27 0 0 0-.461-2.793c-.398-1.834-.857-3.041-.99-3.284-.235-.42-.174-2.569-.153-3.221l.007-.195 1.83-1.08 1.341-.79.123-.074-.186-.249a73.815 73.815 0 0 0-.842-1.156 4.103 4.103 0 0 1-.195.111c-.522.311-1.141.689-1.766 1.073l-1.146-1.859c-.428-1.745-.839-3.247-1.286-4.575a37.66 37.66 0 0 0-.171-.508c-3.1-3.649-6.695-7.36-10.034-9.641l-.176-.05c-2.217-.613-4.052-.775-4.052-.775.997 1.282 1.078 7.293 5.197 11.583 4.122 4.293 9.593 5.248 9.593 5.248.518.295.9.745 1.166 1.142-.176.111-.344.217-.509.319-1.084.677-1.931 1.218-1.931 1.218l-1.916-.3s-.256-.328-.719-.861c-1.226-1.394-3.904-4.206-7.25-6.224-1.637-.985-3.724-1.332-5.736-1.373a25.472 25.472 0 0 0-1.804.044c-2.913.185-5.29.852-5.29.852s3.113 6.211 8.036 8.667c1.292.647 2.651.972 3.962 1.103.792.078 1.568.088 2.296.047.05-.005.1-.005.151-.008a17.935 17.935 0 0 0 1.689-.187c1.694-.269 2.871-.686 3.009-.723.313-.076 2.341-.098 2.341-.098-.736.425-2.119 1.605-3.285 2.646-.34.308-.66.601-.944.861l-.013.01c-.607.559-1.024.954-1.024.954l-.099-.002-2.442-.084c-2.285-.03-1.941-3.976-9.937-4.083-1.658-.027-3.252.261-4.742.723-.488.154-.964.323-1.429.511-4.933 1.981-8.377 5.653-8.377 5.653m15.281 4.484c.306-.036.573-.056.804-.075.421-.033.721-.054.904-.067.204-.114.495-.273.851-.464.071-.038.147-.081.222-.119l-.132-.099-.107.043c-.808.31-1.659.58-2.542.781m4.192-1.489.01.006c.131-.068.254-.135.371-.198-.127.063-.251.13-.381.192M-28.557 43a1.335 1.335 0 0 0 1.387 1.275 1.328 1.328 0 0 0 1.271-1.386 1.33 1.33 0 0 0-2.658.111m-.83 30.143c.033-.067.064-.124.086-.176v-.026c-.03.069-.059.135-.086.202m7.301 9.218a1.332 1.332 0 0 0-1.385-1.274 1.329 1.329 0 0 0-1.273 1.384 1.332 1.332 0 0 0 1.386 1.275 1.327 1.327 0 0 0 1.272-1.385m-1.844-11.774a9.666 9.666 0 0 1-.904-1.256 10.804 10.804 0 0 1-.614-1.227c.044.439.096.84.156 1.179.1.161.259.403.447.634.159.192.34.375.489.486h.002c.073.058.139.097.186.122l.057.026.017.004h.004l.004.003c.049.007.104.019.156.029m1.016-19.072a2.769 2.769 0 0 1-1.715.21l-.065-.016c-.018.095-.033.187-.05.283.136.247.32.571.543.914.225.345.484.704.737.991l.003.003c.245.283.505.499.626.569h.001l.002.001c.249.144.666.369 1.167.675a28.243 28.243 0 0 1-1.249-3.63m.12-2.669a1.33 1.33 0 1 0-2.657.113 1.33 1.33 0 0 0 2.657-.113m3.463-12.959c.248.371.677.611 1.153.592l.017-.001a1.337 1.337 0 0 0 1.259-1.385 1.345 1.345 0 0 0-.079-.375 1.315 1.315 0 0 0-.977-.869 1.33 1.33 0 0 0-1.604 1.355c.011.254.097.487.231.683m-.769 3.663.033.275a53.19 53.19 0 0 1 2.618 2.047l.231.2a25.497 25.497 0 0 1-.409-4.112c-.144.028-.29.055-.444.063-.151.007-.298 0-.445-.019-.075-.008-.15-.021-.224-.032-.115-.022-.227-.056-.337-.089-.217.342-.325.517-.33.527zm6.303-19.619c.002.065.015.122.026.186a1.321 1.321 0 0 0 1.278 1.084l.08.003a1.323 1.323 0 0 0 1.18-.837l.006-.019a1.327 1.327 0 0 0-1.854-1.649l-.068.043a1.323 1.323 0 0 0-.648 1.189m63.255-34.29C27.296-14.357 16.967-6.351 5.174-1.58l.532.679c.25.322.506.648.755.971l.97 1.235a477.637 477.637 0 0 0 4.402 5.56c10.023-5.1 17.332-11.199 37.534-11.178h.184c19.952-.021 27.327 5.926 37.162 10.991a545.5 545.5 0 0 0 4.077-5.313l.95-1.25c.301-.394.605-.797.91-1.2l.542-.719C81.627-6.595 71.277-14.357 49.458-14.359m48.24 29.653c-.092-.026-.156-.04-.196-.053l-.032-.008h-.004l-.151-.038.003-.007a1.587 1.587 0 0 1-.257-.109l.083-.11.082-.115c.149-.195.292-.389.43-.583-.352.44-.706.874-1.055 1.296l.092-.015c.397-.07.804-.132 1.217-.191-.077-.024-.154-.05-.212-.067m3.08-5.159c-.265.355-.535.715-.808 1.087.115.049.231.105.361.167.073-.095.148-.187.214-.278.127-.173.234-.334.297-.443a45.498 45.498 0 0 0-.064-.533M117.936-5.01c-.368.053-.81.155-1.322.33a6.764 6.764 0 0 1 1.537-.343c.07-.01.141-.02.207-.022a4.986 4.986 0 0 0-.422.035m3.576 4.108-.101.148c.045.151.086.31.109.494l.002.006c.045.358.034.766-.066 1.182a3.88 3.88 0 0 1-.556 1.242l-.006.009-.004.001a3.603 3.603 0 0 1-.747.811 4.043 4.043 0 0 1-1.03.592c.031.12.058.242.075.377v.002a2.98 2.98 0 0 1-.071 1.144l-.038.12a2.894 2.894 0 0 1 .935.385l.061.046c1.365-2.761 1.673-4.924 1.437-6.559m10.032 11.525c-.279.319-.613.62-1.002.886l-.135.083a3.395 3.395 0 0 1-.183.769 3.265 3.265 0 0 1-.538.931 3.948 3.948 0 0 1-.896.801l-.017.007a3.753 3.753 0 0 1-1.562.567h-.005a4.037 4.037 0 0 1-.612.029 3.52 3.52 0 0 1-.154.626 3.12 3.12 0 0 1-.528.89c-.237.276-.53.517-.863.706-.203.11-.407.196-.615.267l.033.044c.354-.167.73-.337 1.137-.489a8.069 8.069 0 0 1 1.763-.46c.36-.046.738-.061 1.132-.013l.042.004c1.309-1.997 2.289-3.88 3.003-5.648m15.844 47.473c-.088-1.038-2.54-1.613-2.54-1.613s1.354-1.187.891-2.253c-.463-1.068-3.828-2.234-3.828-2.234s1.902-.233.95-1.998c-.954-1.761-5.489-1.721-5.489-1.721.548-.348 1.194-1.864-.393-2.442-1.592-.575-3.117.554-3.117.554s-.193-1.172-.77-1.313c-.579-.144-1.455.09-2.109.262-1.077.286-3.237-1.449-4.357-2.444-1.417-3.911-3.326-7.518-6.563-12.137 1.025.465 2.814 1.416 3.142 2.762.226.93.134 3.076 1.526 3.455 1.394.38 1.722-1.567 1.722-1.567.626 3.298 2.171 5.247 3.427 5.571 1.259.321 2.544-.911 2.544-.911s.628 2.611 2.325 3.152c1.704.539 2.418-1.697 2.418-1.697s.531 2.102 2.104 2.494c1.573.392 2.167-.845 2.167-.845.917.615 2.475.552 2.734.203 1.068-1.432-1.382-2.347-1.382-2.347s1.055-.608.714-1.594c-.336-.989-2.86-.946-2.86-.946s1.028-1.484.319-2.406c-.711-.923-4.256-1.233-4.256-1.233s1.789-.689.433-2.169c-1.354-1.475-5.743-.337-5.743-.337.449-.473.705-2.097-.974-2.268-1.681-.173-2.894 1.293-2.894 1.293s-.466-1.089-1.062-1.089c-.593.003-1.371.474-1.981.771-1.299.638-4.054-.589-4.934-1.012a86.154 86.154 0 0 0-1.094-1.506c-.281-.379-.567-.767-.869-1.163-.247-.323-.5-.658-.756-.995a41.234 41.234 0 0 0-3.801-4.269c1.082.159 2.596.502 3.094 1.286.515.81 1.139 2.858 2.576 2.759 1.438-.098 1.109-2.046 1.109-2.046.211.364.426.704.647 1.02.295.42.603.798.91 1.135 1.282 1.406 2.604 2.05 3.52 1.976 1.293-.113 2.099-1.697 2.099-1.697s1.452 2.256 3.234 2.206c1.781-.052 1.725-2.397 1.725-2.397s1.189 1.809 2.805 1.66c1.614-.144 1.771-1.511 1.771-1.511 1.065.28 2.517-.3 2.647-.708.535-1.707-2.08-1.761-2.08-1.761s.799-.921.155-1.741c-.644-.818-3.016.046-3.016.046s.482-1.73-.492-2.371c-.974-.639-4.426.237-4.426.237s1.414-1.205-.219-2.145l-.082-.042c-.428-.232-.974-.255-1.555-.163-1.816.287-3.983 1.734-3.983 1.734.27-.59-.019-2.213-1.667-1.823-1.644.391-2.303 2.174-2.303 2.174s-.799-.871-1.36-.676c-.562.201-1.106.939-1.619 1.381-.793.679-3.127.823-4.125.851a45.465 45.465 0 0 0-2.071-1.842l-.026-.016c-.33-.281-.665-.552-.997-.815a45.49 45.49 0 0 0-2.151-1.614c.826.021 1.749.09 2.2.271.243.098.535.297.851.512.351.243.74.507 1.137.69l.061.029c.514.223 1.037.305 1.523-.003.806-.498.562-1.339.298-1.865a2.724 2.724 0 0 0-.209-.36c-.041-.064-.068-.098-.068-.098.156.098.308.186.458.275 2.647 1.527 4.927 1.658 5.957.995 1.094-.704 1.063-2.481 1.063-2.481s2.339 1.31 3.893.431c1.551-.88.401-2.926.401-2.926s1.894 1.043 3.252.151c1.359-.884.859-2.166.859-2.166 1.073-.252 2.083-1.443 2.005-1.863-.326-1.757-2.661-.585-2.661-.585s.27-1.184-.686-1.603c-.952-.422-2.636 1.453-2.636 1.453s-.39-1.764-1.548-1.866c-.568-.052-1.492.496-2.291 1.066-.824.595-1.508 1.217-1.508 1.217s.363-.917-.174-1.439c-.206-.205-.551-.351-1.115-.351-2.005-.012-4.156 3.982-4.156 3.982-.024-.354-.335-.896-.821-1.141.144-.124.264-.259.357-.394.732-1.073.011-2.699.011-2.699s2.671.296 3.758-1.12c1.083-1.415-.778-2.847-.778-2.847s2.158.216 3.06-1.13c.905-1.349-.059-2.331-.059-2.331.682-.499 1.116-1.485 1.176-2.081.02-.182.005-.332-.053-.416-.2-.303-.426-.457-.663-.523-.935-.247-2.012 1.023-2.012 1.023s-.218-1.195-1.258-1.213c-1.045-.016-1.865 2.367-1.865 2.367s-.684-.961-1.533-1.139a17.184 17.184 0 0 1 1.913-1.139c-2.014 1.002-4.8 3.015-8.476 6.967-.214.225-.423.454-.637.687l-.003.009a15.22 15.22 0 0 0-.182 1.224c-.084-.16-.258-.34-.479-.484l-.011-.006a88.097 88.097 0 0 0-2.186 2.546l.009.05c.141.702.437 1.198.437 1.198s-1.182.071-1.385.629c-.203.563-.003 1.452.047 2.124.039.518-1.122 1.881-1.67 2.492a39.945 39.945 0 0 0-1.723-.828l-.081-.041c-.337.47-.656.913-.953 1.341l.028.009c.419.113 1.473.452 3.027 1.235.522.262 1.093.573 1.72.944-.039.101-.094.226-.154.369-.305.7-.836 1.789-1.222 2.313-.572.769-2.533 1.755-2.111 3.136.422 1.378 2.243.621 2.243.621a12.624 12.624 0 0 0-1.778 2.033 8.374 8.374 0 0 0-.818 1.493c-.136.341-.24.663-.3.963a3.43 3.43 0 0 0-.077.704c-.002.251.027.479.09.677a1.965 1.965 0 0 0 .24.469c.555.801 1.664 1.135 1.856 1.185l.028.008s-1.873 1.924-1.42 3.651c.447 1.726 2.721 1.14 2.721 1.14s-.572.606-.889 1.43c-.176.467-.267 1.007-.131 1.546l.034.134c.505 1.538 1.873 1.385 1.873 1.385-.034 1.103.854 2.386 1.283 2.419 1.782.142 1.25-2.421 1.25-2.421s1.073.568 1.726-.247c.658-.81-.723-2.922-.723-2.922s.286.011.651-.043c-.01.12-.017.23-.01.34.089 1.295 1.66 2.128 1.66 2.128s-2.282 1.415-2.264 3.201c.021 1.784 2.37 1.759 2.37 1.759s-1.826 1.165-1.706 2.778c.119 1.621 1.485 1.798 1.485 1.798-.305 1.062.25 2.525.661 2.658 1.695.567 1.794-2.048 1.794-2.048s.908.808 1.739.18c.833-.63.004-3.012.004-3.012s1.725.508 2.382-.452c.653-.963-.164-4.433-.164-4.433s1.217 1.483 2.195-.265c.974-1.745-1.481-5.557-1.481-5.557.584.275 2.213.009 1.849-1.638-.364-1.651-2.139-2.343-2.139-2.343s.579-.508.705-1.004a.654.654 0 0 0-.003-.346c-.103-.318-.377-.637-.674-.945-.231-.241-.479-.473-.677-.694-.312-.341-.466-1.775-.533-2.635a47.98 47.98 0 0 1 2.327 2.547c.292.348.543.66.747.93.05.064.101.134.156.205 1.247 1.634 3.669 4.587 6.049 9.616-.346.521-1.505 2.236-2.837 2.73-.902.33-3.082.101-3.473 1.487-.393 1.387 1.546 1.734 1.546 1.734-3.305.589-5.271 2.113-5.61 3.372-.335 1.253.883 2.549.883 2.549s-2.62.6-3.177 2.295c-.56 1.693 1.672 2.435 1.672 2.435s-2.108.504-2.518 2.074c-.408 1.569.819 2.178.819 2.178-.627.91-.575 2.47-.232 2.731 1.418 1.084 2.36-1.355 2.36-1.355s.598 1.059 1.589.731c.989-.328.977-2.847.977-2.847s1.468 1.04 2.4.343c.931-.699 1.284-4.246 1.284-4.246s.669 1.803 2.157.464c1.49-1.341.405-5.741.405-5.741.467.451 2.088.729 2.277-.951.194-1.677-1.257-2.905-1.257-2.905s1.09-.451 1.097-1.05c.004-.597-.48-1.369-.745-1.99-.226-.515.444-2.665.681-3.391a55.206 55.206 0 0 1 1.946 4.903c1.113 3.245 1.782 5.877 2.181 8.147-.436.801-1.411 2.411-2.874 2.682-.94.171-3.062-.326-3.644.996-.581 1.317 1.295 1.933 1.295 1.933-3.358.126-5.511 1.368-6.019 2.564-.504 1.197.521 2.647.521 2.647s-2.674.234-3.461 1.834c-.787 1.601 1.32 2.643 1.32 2.643s-2.157.211-2.779 1.706c-.622 1.502.516 2.272.516 2.272-.75.814-.912 2.367-.61 2.673 1.255 1.269 2.526-1.019 2.526-1.019s.449 1.133 1.472.946c1.028-.19 1.361-2.69 1.361-2.69s1.313 1.238 2.329.671c1.016-.563 1.853-4.028 1.853-4.028s.416 1.877 2.076.757c1.662-1.122 1.187-5.633 1.187-5.633.399.514 1.973 1.012 2.391-.623.419-1.638-.849-3.051-.849-3.051s1.145-.301 1.232-.893c.084-.586-.361-1.405-.466-2.07-.166-1.045.364-2.51.77-3.437.527 3.445.452 6.046.478 8.768.03 2.944-.207 5.932-.605 8.993-.707.649-1.967 1.604-3.476 1.587-.959-.016-2.867-1.127-3.775-.009-.916 1.118.73 2.21.73 2.21-3.269-.77-5.674-.146-6.481.873-.807 1.019-.201 2.692-.201 2.692s-2.643-.486-3.823.848c-1.183 1.336.572 2.896.572 2.896s-2.138-.366-3.135.913c-.998 1.278-.106 2.325-.106 2.325-.939.586-1.507 2.04-1.296 2.414.874 1.558 2.706-.31 2.706-.31s.127 1.212 1.166 1.301c1.042.09 2.028-2.231 2.028-2.231s.937 1.541 2.067 1.266c1.131-.275 2.855-3.393 2.855-3.393s-.095 1.919 1.802 1.28c1.9-.64 2.64-5.111 2.64-5.111.248.597 1.631 1.498 2.472.03.839-1.47-.012-3.169-.012-3.169s1.185.013 1.425-.534c.241-.543.027-1.448.103-2.12.123-1.105.952-2.209 1.626-2.946-.21 1.526-.457 3.068-.731 4.632a79.465 79.465 0 0 1-2.428 10.078c-.613.345-2.085 1.064-3.593.738-.939-.204-2.844-1.186-3.779-.088-.934 1.099.687 2.22.687 2.22-3.251-.838-5.67-.265-6.497.736-.83 1.002-.259 2.686-.259 2.686s-2.632-.54-3.843.767c-1.212 1.309.505 2.911.505 2.911s-2.124-.416-3.148.841-.159 2.321-.159 2.321c-.947.567-1.55 2.006-1.348 2.386.843 1.575 2.713-.249 2.713-.249s.102 1.21 1.139 1.324c1.036.114 2.074-2.185 2.074-2.185s.903 1.559 2.039 1.308c1.138-.249 2.928-3.328 2.928-3.328s-.138 1.916 1.777 1.317c1.91-.596 2.747-5.054 2.747-5.054.236.607 1.6 1.531 2.47.086.872-1.451.055-3.167.055-3.167s1.187.036 1.441-.502c.252-.539.009-1.459.147-2.118.192-.938 1.024-1.695 1.651-2.143-.099.309-.199.611-.293.907-1.018 3.09-4.291 10.078-4.877 11.077-.368.631-1.174 1.884-1.719 2.727-.586.329-1.306.685-1.808.775-.945.165-3.047-.459-3.685.834-.636 1.292 1.209 1.99 1.209 1.99-3.36-.024-5.568 1.121-6.127 2.295-.556 1.171.406 2.669.406 2.669s-2.682.114-3.538 1.677c-.858 1.565 1.199 2.7 1.199 2.7s-2.163.116-2.849 1.585c-.689 1.468.412 2.291.412 2.291-.781.78-1.016 2.322-.725 2.644 1.198 1.322 2.568-.907 2.568-.907s.397 1.152 1.428 1.008c1.035-.142 1.479-2.626 1.479-2.626s1.258 1.291 2.298.775c1.041-.522 2.028-3.941 2.028-3.941s.335 1.889 2.044.842c1.704-1.046 1.43-5.572 1.43-5.572.376.528 1.925 1.097 2.419-.521.489-1.618-.718-3.084-.718-3.084s1.159-.253 1.274-.838c.11-.581-.222-1.433-.373-2.088-.074-.311.124-.914.349-1.469.961-1.702 2.611-4.644 3.02-5.52.117-.25.439-.958.883-1.992.557 1.161 2.211.371 2.211.371-2.327 2.417-3.021 4.806-2.562 6.016.466 1.217 2.215 1.55 2.215 1.55s-1.766 2.022-1.224 3.723c.544 1.696 2.78.99 2.78.99s-1.407 1.646-.817 3.155c.59 1.513 1.945 1.282 1.945 1.282.027 1.105.98 2.339 1.415 2.349 1.783.044 1.11-2.484 1.11-2.484s1.108.506 1.719-.341c.609-.845-.883-2.877-.883-2.877s1.804-.022 2.147-1.133c.341-1.113-1.456-4.188-1.456-4.188s1.597 1.062 2.02-.895c.421-1.959-3.049-4.883-3.049-4.883.646.093 2.122-.637 1.291-2.109-.832-1.472-2.728-1.61-2.728-1.61s.617-1.009.273-1.497c-.345-.483-1.171-.866-1.771-1.169-.852-.429-1.326-3.223-1.478-4.289.825-2.336 1.646-4.866 2.306-7.37.027.14.076.275.156.408.743 1.234 2.323.054 2.323.054-1.824 2.816-2.05 5.295-1.364 6.396.688 1.102 2.469 1.096 2.469 1.096s-1.348 2.321-.488 3.889c.857 1.563 2.915.44 2.915.44s-1.063 1.885-.197 3.255c.868 1.369 2.155.886 2.155.886.233 1.077 1.41 2.105 1.834 2.032 1.764-.297.622-2.65.622-2.65s1.179.285 1.615-.661c.439-.949-1.413-2.658-1.413-2.658s1.764-.365 1.888-1.523c.125-1.159-2.23-3.833-2.23-3.833s1.772.739 1.812-1.265c.037-2.002-3.925-4.207-3.925-4.207.649-.032 1.96-1.03.864-2.317-1.1-1.284-2.985-1.058-2.985-1.058s.411-1.109-.017-1.521c-.436-.41-.925-.65-1.906-1.079-.73-.314-2.15-2.592-2.685-3.479.53-4.696.694-10.141.364-15.204.647 1.091 1.567 2.879 1.326 4.162-.179.944-1.589 2.638-.641 3.722.945 1.086 2.296-.35 2.296-.35-1.304 3.09-1.094 5.568-.226 6.536.87.965 2.62.652 2.62.652s-.923 2.519.19 3.911c1.122 1.391 2.954-.075 2.954-.075s-.721 2.042.372 3.239c1.093 1.2 2.274.498 2.274.498.419 1.022 1.758 1.831 2.161 1.685 1.681-.602.149-2.721.149-2.721s1.215.075 1.481-.931c.263-1.011-1.858-2.373-1.858-2.373s1.673-.663 1.594-1.826c-.079-1.162-2.859-3.385-2.859-3.385s1.871.418 1.562-1.562c-.313-1.976-4.598-3.461-4.598-3.461.629-.144 1.75-1.356.446-2.43-1.304-1.076-3.126-.522-3.126-.522s.215-1.168-.281-1.495c-.499-.329-1.417-.318-2.074-.458-1.18-.25-3.06-2.799-3.846-3.936-.245-3.019-.667-5.865-1.303-8.284a59.898 59.898 0 0 0-1.186-3.993c.916.921 1.943 2.198 2.172 3.529.16.948-.621 3.018.639 3.726 1.258.706 2.047-1.101 2.047-1.101-.198 3.349.834 5.615 1.972 6.234 1.142.619 2.687-.261 2.687-.261s-.028 2.683 1.49 3.623c1.52.933 2.757-1.06 2.757-1.06s.002 2.168 1.434 2.929c1.428.765 2.311-.29 2.311-.29.736.822 2.264 1.133 2.6.863 1.385-1.129-.769-2.614-.769-2.614s1.168-.332 1.079-1.373m-14.9-14.617a4.746 4.746 0 0 1-.399-.483 6.026 6.026 0 0 1-.44-.708 4.114 4.114 0 0 1-.901.233c-.39.049-.825.042-1.272-.074-.601-.156-1.127-.463-1.591-.858-.068-.055-.132-.125-.201-.187.072.187.149.375.221.568.478.408 1.083.894 1.65 1.26a5.7 5.7 0 0 0 .89.499c.1.039.182.064.227.074.371-.099.837-.221 1.362-.287h.001c.141-.021.297-.03.453-.037m-9.229-14.146-.051.125c-.85-.328-1.68-.884-2.483-1.645a9.98 9.98 0 0 1-.557-.582c-.16.127-.329.249-.489.378.297.404.587.798.865 1.187.369.167.883.379 1.412.553.359.116.727.214 1.042.266.304.058.573.064.704.044h.008l.074-.012.01-.004.013-.007a4.507 4.507 0 0 1-.596-.178zm-7.562-10.073c-.063-.017-.123-.03-.188-.045a10.957 10.957 0 0 1-.821-.273 2.532 2.532 0 0 1-.326.499 3.027 3.027 0 0 1-.398.369l.039-.004.016-.005c.397-.05.792-.123 1.082-.207.144-.042.267-.087.333-.12l.075-.036c.048-.042.112-.104.188-.178m3.305 20.867-.021.13.545-.085c.199-.025.372-.047.5-.073.062-.01.114-.023.148-.029l.043-.009.006-.004h.001c.124-.046.323-.16.537-.325.314-.251.657-.622.936-.963l.11-.145a44.402 44.402 0 0 0-2.591-4.547 2.894 2.894 0 0 1-.114.664 2.678 2.678 0 0 1-.423.84c-.172.227-.371.41-.579.558.155.334.309.689.445 1.072.194.544.363 1.123.443 1.737.048.376.064.768.014 1.179m-5.587 23.1.03-.025-.005-.001zm10.301-9.572c.135-.002.267-.002.386-.002.182 0 .349.002.478-.002.123 0 .224-.007.264-.013h.013l.01-.002c.127-.024.265-.079.43-.189.25-.161.535-.453.779-.772l.107.078-.107-.081a7.06 7.06 0 0 0 .326-.483 48.996 48.996 0 0 0-.756-3.256 3.513 3.513 0 0 1-.258.993 2.735 2.735 0 0 1-.939 1.167c-.248.175-.512.29-.771.368.072.669.113 1.42.038 2.194m-.22 17.231c.184.045.354.094.506.135a7.6 7.6 0 0 0 .436.109c.051.011.094.019.12.021l.028.003a2.1 2.1 0 0 0 .286-.015h.007c.373-.048.771-.202 1.139-.423.201-.12.39-.255.565-.392.209-1.691.363-3.352.45-4.988a3.324 3.324 0 0 1-.357.083c-.007.165-.01.332-.023.508-.055.713-.157 1.49-.402 2.253-.126.38-.29.764-.525 1.133a3.389 3.389 0 0 1-.967 1.017 3.673 3.673 0 0 1-1.263.556m-1.588 15.023c.137.004.276 0 .419-.019l.006-.003a4.175 4.175 0 0 0 1.153-.336c.248-.819.495-1.683.736-2.599a1.809 1.809 0 0 1-.252.049h-.011a2.672 2.672 0 0 1-.645-.002c-.048.161-.102.32-.158.487-.241.676-.545 1.395-.986 2.065-.081.121-.17.237-.262.358m9.747 8.535v-.018l-.022-.004zm-2.59-4.513c.042-.217.092-.414.143-.605a3.369 3.369 0 0 1-.483-.238 3.4 3.4 0 0 1-1.201-1.148 3.525 3.525 0 0 1-.34-.733c-.071.192-.138.386-.203.576.081.515.214 1.215.383 1.829.105.381.227.736.329.933v.002l.05.088c.26.131.578.29.914.49.115.068.233.145.351.227a5.325 5.325 0 0 1 .057-1.421m3.961-16.494a3.83 3.83 0 0 1-.715-.228 3.406 3.406 0 0 1-1.183-.841l.103-.092-.103.091a3.627 3.627 0 0 1-.364-.494c-.007.082-.016.161-.022.24.258.416.594.944.934 1.42.234.331.473.635.657.84.086.098.164.168.199.205.184.08.352.157.514.227l-.004-.025a6.197 6.197 0 0 1-.016-1.343m2.398-15.109-.131.043c-.042-.133-.073-.258-.105-.379-.296.031-.618.04-.965-.003a3.393 3.393 0 0 1-1.177-.371l-.004-.002-.002-.003a3.72 3.72 0 0 1-1.043-.855c-.443-.505-.788-1.116-1.062-1.818-.038-.086-.062-.176-.093-.264.029.309.06.612.088.923.378.529.902 1.231 1.431 1.835.322.364.648.693.907.902.13.107.241.185.309.224l.042.021.007.005c.088.017.22.039.378.058.26.034.587.067.948.137.17.036.362.079.556.145a6.782 6.782 0 0 1-.215-.555zm-25.85-28.957c-.171-1.908-2.816-4.404-2.816-4.404.577.114 1.868-.409 1.546-1.634a1.699 1.699 0 0 0-.145-.401 2.7 2.7 0 0 0-.643-.833l-.058-.056a3.777 3.777 0 0 0-1.187-.669c-.427-.155-.748-.194-.748-.194s.668-.979.352-1.485c-.319-.5-1.147-.886-1.708-1.261-.418-.284-.706-1.512-.827-2.107a38.381 38.381 0 0 1 2.989 2.059 70.536 70.536 0 0 1 2.817 2.26l.016.013c.377.322.747.643 1.106.961a74.12 74.12 0 0 1 3.439 3.23c-.265.669-.972 2.332-1.582 2.834-.573.471-1.975.869-2.551 1.687m.281-6.053v.008c.06.46 0 .93-.159 1.341a2.683 2.683 0 0 1-.457.756l.009.01c.349.44.714.942 1.031 1.497.076-.04.154-.082.22-.115.182-.091.34-.17.451-.232.057-.032.096-.058.13-.078l.034-.023.001-.003a.794.794 0 0 0 .082-.098c.043-.057.095-.136.149-.221v-.001c.162-.264.352-.624.505-.971a74.844 74.844 0 0 0-1.996-1.87M65.262-8.62c.525.418.805.953.812 1.6l.002.029c0 .203-.026.416-.08.64-.274 1.158-1.114 1.836-2.326 1.832-.295 0-.616-.038-.952-.123l-1.598-.379.948-3.977.55-2.302 1.077.255-.381 1.588.526.123c.164.042.322.096.48.154l1.489-1.358 1.244.296-.081.072zm-.443.98a1.125 1.125 0 0 0-.179-.244c-.221-.22-.566-.399-1.062-.517l-.487-.119-.004.022-.665 2.777.489.117c.249.06.477.09.676.09.371-.002.656-.101.87-.283.215-.183.358-.457.445-.814.04-.164.06-.316.06-.457 0-.211-.05-.401-.143-.572M42.49-5.771l-1.635.171-.668-6.421 1.099-.115.17 1.623.536-.055c.168-.016.336-.017.503-.017l.955-1.776 1.271-.132-.052.098-1.101 2.03c.842.288 1.348.929 1.447 1.893.01.11.015.216.015.318.002.651-.224 1.21-.657 1.623-.431.409-1.066.677-1.883.76m1.406-2.583c-.042-.414-.174-.724-.409-.938-.235-.214-.579-.334-1.066-.335-.113 0-.236.009-.368.022l-.497.05.297 2.865.498-.055c.557-.056.945-.213 1.193-.443.249-.232.362-.542.366-.937a2.34 2.34 0 0 0-.014-.229M28.139-2.477l-1.998-6.079 1.05-.344.641 1.947 2.552-.838.311.943-2.552.839.759 2.309 2.806-.922.307.932-3.857 1.269zm8.16-2.181c-.254.057-.51.085-.76.085-1.512 0-2.849-.997-3.199-2.61a3.495 3.495 0 0 1-.084-.759c0-1.557 1.072-2.846 2.63-3.187.255-.056.508-.084.756-.084 1.507 0 2.845.998 3.196 2.613.056.254.085.509.085.754 0 1.558-1.073 2.852-2.624 3.188m1.441-3.703c-.247-1.118-1.097-1.843-2.135-1.845a2.31 2.31 0 0 0-.503.057c-1.075.234-1.725 1.104-1.728 2.155 0 .187.021.377.062.571.246 1.118 1.103 1.841 2.145 1.841a2.4 2.4 0 0 0 .505-.055c1.071-.234 1.715-1.1 1.718-2.151 0-.188-.02-.378-.064-.573M141.6 53.464l-.143.275c-1.039-.481-2.36-.929-3.158-1.185a71.818 71.818 0 0 1 1.926 2.028c.327.363.607.678.811.918.102.122.186.226.249.307.064.084.107.137.135.191l-.253.178c-.003 0-.131-.135-.358-.365a93.71 93.71 0 0 0-3.315-3.216c.031.165.049.329.058.488.043.677-.058 1.246-.058 1.254l-.31-.041a2.4 2.4 0 0 0 0-.294c-.045-.752-.44-1.778-.653-2.269a21.286 21.286 0 0 0-1.343-1.091c-.665-.483-1.359-.974-2.014-1.438l.562 1.121-.266.161-1.503-2.164a12.35 12.35 0 0 1-1.149-.968c-.297-.3-.504-.562-.561-.833l-.072-.375.311.218c.004 0 .665.457 1.573 1.1.32.19 1.1.464 1.787.673.688.214 1.293.373 1.294.373l-.026.304-.054.004c-.363.025-.89-.072-1.379-.192.343.252.682.505 1.016.755.433.066 1.12.342 1.737.609.62.272 1.142.53 1.168.541l.001.003-.137.278c-.232-.113-.672-.255-1.112-.379-.163-.045-.318-.088-.471-.127.467.383.99.857 1.522 1.378 1.662.276 4.176 1.778 4.185 1.78m-16.136 39.812c-.021-.38-.005-.68.118-.905l.186-.33.101.366c0 .002.211.777.478 1.854.114.351.533 1.071.92 1.675.385.614.736 1.127.739 1.127l-.219.219c-.242-.17-.504-.472-.763-.807a9.12 9.12 0 0 1-.203-.272c.097.412.191.823.281 1.231.281.331.626.991.921 1.596.289.603.519 1.127.535 1.168l.004.004v.002l-.285.125c-.148-.331-.534-.928-.877-1.418.103.593.191 1.297.263 2.038.538.643 1.032 1.64 1.401 2.492.374.872.615 1.58.615 1.581l-.286.119c-.476-1.042-1.188-2.247-1.631-2.959.015.187.03.371.041.553.064 1.003.102 1.961.115 2.698.008.368.008.682.007.918-.004.118-.007.216-.011.296a.821.821 0 0 1-.023.183l-.307-.028-.005-.11a95.99 95.99 0 0 0-.453-5.007c-.45.768-1.125 1.319-1.13 1.327l-.21-.231c.269-.264.529-.728.731-1.189.202-.448.352-.895.44-1.18a21.55 21.55 0 0 0-.312-1.705c-.187-.797-.398-1.62-.594-2.403l-.303 1.22-.303-.054.267-2.621c-.129-.601-.222-1.139-.248-1.573m-9.51 12.592c-.177.329-.406 1.124-.58 1.821a38.516 38.516 0 0 0-.307 1.313l-.307-.008a2.12 2.12 0 0 1-.015-.144c-.022-.356.045-.84.13-1.3a64.36 64.36 0 0 1-.699 1.055c-.047.432-.288 1.136-.519 1.766-.24.647-.475 1.191-.476 1.198h-.003l-.286-.121c.102-.241.218-.686.317-1.135.038-.163.074-.321.106-.48-.359.489-.81 1.039-1.3 1.605-.094.833-.472 1.875-.837 2.729a21.444 21.444 0 0 1-.718 1.539l-.282-.132c.426-1.059.804-2.404 1.015-3.212a65.97 65.97 0 0 1-1.924 2.028 36.3 36.3 0 0 1-.874.858c-.116.107-.214.197-.291.266a1.423 1.423 0 0 1-.186.144l-.189-.242s.129-.139.345-.378a91.176 91.176 0 0 0 3.04-3.482c-.266.06-.529.096-.767.112-.545.034-.97-.018-.973-.018l.02-.314c.055.003.111 0 .169-.001.763-.045 1.858-.532 2.359-.781.392-.509.745-.987 1.02-1.402.445-.688.896-1.409 1.331-2.086l-1.095.623-.174-.259 2.086-1.615c.322-.475.623-.886.903-1.198.288-.315.533-.536.799-.607l.372-.093-.199.328c-.003 0-.422.684-1.011 1.623m14.749-29.318.17.341c0 .002.351.725.828 1.734.181.325.724.943 1.216 1.465.25.264.486.506.659.678l.282.288-.168.253c-.273-.121-.588-.368-.906-.646a9.372 9.372 0 0 1-.255-.236c.176.388.348.776.513 1.161.342.272.808.858 1.214 1.394.408.545.739 1.03.749 1.042l.001.003v.001l-.257.178c-.149-.215-.458-.555-.781-.88a15.968 15.968 0 0 0-.347-.344c.213.566.437 1.238.649 1.953.651.527 1.325 1.409 1.852 2.175.533.779.903 1.431.907 1.433l-.264.169c-.666-.929-1.594-1.973-2.161-2.587.248.923.475 1.839.648 2.603.214.939.35 1.632.365 1.876v.057l-.303.029c0-.001-.192-.727-.484-1.77a87.53 87.53 0 0 0-.947-3.162c-.298.839-.856 1.513-.857 1.521l-.25-.188c.212-.311.377-.816.491-1.311.107-.476.173-.944.204-1.24a21.725 21.725 0 0 0-.629-1.614c-.339-.747-.702-1.512-1.044-2.241l-.064 1.252-.309.005-.242-2.623c-.35-.828-.604-1.531-.639-2.025-.008-.143 0-.268.039-.383zM72.338-3.927c-.582.781-1.445 1.205-2.441 1.202a4.15 4.15 0 0 1-1.397-.254l-1.698-.611.021-.054.918-2.551 1.249-3.469 1.693.609c1.508.543 2.362 1.678 2.362 3.009 0 .385-.067.787-.215 1.193-.124.351-.292.66-.492.926M70.29-8.153l-.594-.209-.959 2.659-.563 1.56.596.215c.38.137.73.199 1.044.199.633 0 1.128-.254 1.492-.706.182-.223.336-.492.446-.803.117-.32.175-.63.175-.922 0-.856-.496-1.576-1.637-1.993m50.303 98.41c-.252.278-.67.991-1.007 1.623-.342.634-.615 1.197-.615 1.197l-.297-.082c.028-.294.165-.671.325-1.064l.139-.307c-.313.285-.625.573-.935.853-.153.408-.553 1.033-.934 1.587-.394.566-.755 1.042-.755 1.042l-.251-.186c.157-.209.38-.614.587-1.022.077-.148.149-.294.216-.44-.469.386-1.038.81-1.649 1.236-.292.786-.915 1.703-1.474 2.444-.571.756-1.073 1.315-1.073 1.318l-.243-.196c.671-.927 1.368-2.139 1.767-2.87a67.237 67.237 0 0 1-2.359 1.499c-.415.251-.779.465-1.058.619-.138.076-.253.14-.348.186a1.106 1.106 0 0 1-.212.092l-.127-.281s.158-.101.428-.279a94.35 94.35 0 0 0 3.797-2.636 5.508 5.508 0 0 1-1.709-.336l.097-.294c.301.086.72.099 1.138.072a10.565 10.565 0 0 0 1.501-.218 21.71 21.71 0 0 0 1.331-1.108c.6-.557 1.211-1.148 1.798-1.702l-1.209.339-.104-.292 2.41-1.062c.418-.369.804-.686 1.143-.92.347-.236.638-.39.909-.41l.043-.002.384-.002-.275.268s-.576.566-1.379 1.334m11.683-29.654.222.308c.003 0 .476.649 1.116 1.558.232.285.88.802 1.457 1.234a41.417 41.417 0 0 0 1.095.787l-.127.279c-.286-.071-.639-.26-.998-.48a7.012 7.012 0 0 1-.288-.182c.239.351.478.705.705 1.052.385.209.941.7 1.435 1.159.496.463.904.882.919.895v.002l.004.002-.226.219c-.181-.187-.548-.466-.922-.732l-.402-.277c.313.518.645 1.14.978 1.809.732.405 1.552 1.159 2.202 1.821.66.676 1.14 1.254 1.144 1.255l-.227.211c-.82-.798-1.915-1.665-2.578-2.17a75.15 75.15 0 0 1 1.132 2.556c.189.45.346.841.458 1.135.058.149.101.275.132.371.035.101.055.165.064.226l-.296.085c0-.002-.314-.686-.782-1.663-.41-.849-.94-1.92-1.485-2.947-.147.877-.576 1.637-.579 1.645l-.279-.139c.154-.341.23-.859.253-1.356a10.42 10.42 0 0 0-.01-1.277 20.048 20.048 0 0 0-.904-1.48c-.466-.682-.952-1.369-1.417-2.03l.16 1.247-.306.062-.696-2.544a13.98 13.98 0 0 1-.704-1.183c-.178-.356-.293-.658-.31-.918a.822.822 0 0 1 .002-.165z" style="fill:#9c824a;fill-opacity:1;fill-rule:nonzero;stroke:none;stroke-width:.502276" transform="matrix(2.65458 0 0 -2.65458 128.01 330.217)"/></g><g style="stroke-width:1.23604"><path fill="#9c824a" stroke="#9c824a" stroke-miterlimit="282" stroke-width="0.980181" d="M161.396.396C122.96.396 52.087 10.34 15.994 31.328c-47.52 168.475 17.107 283.042 145.402 348.068 128.296-65.026 192.923-180.16 145.402-348.067C270.669 10.34 199.831.396 161.396.396Z" transform="matrix(.81095 0 0 .80713 126.654 20.506)"/><path fill="#023474" stroke="#023474" stroke-miterlimit="282" stroke-width="0.980181" d="M161.396 11.228c-37.761 0-80.278 4.83-135.962 27.558-41.452 147.061 6.637 264.931 135.962 329.174 129.325-64.243 177.378-182.114 135.926-329.174-55.684-22.728-98.165-27.558-135.926-27.558Z" transform="matrix(.81095 0 0 .80713 126.654 20.506)"/><path fill="#fff" stroke="#fff" stroke-miterlimit="282" stroke-width="0.980181" d="M161.219 11.086c-37.584 0-77.936 5.575-114.349 19.355-37.761 150.577-9.901 260.526 114.562 337.413zm.213 356.768c124.462-76.887 152.287-186.836 114.525-337.413-36.412-13.78-76.729-19.355-114.312-19.355Z" transform="matrix(.81095 0 0 .80713 126.654 20.506)"/><path fill="#ef0107" stroke="#ef0107" stroke-miterlimit="282" stroke-width="0.980181" d="M161.432 11.051c-37.797 0-76.055 5.717-107.144 16.548-39.11 157.822-7.702 264.397 107.179 337.235z" transform="matrix(.81095 0 0 .80713 126.654 20.506)"/><path fill="#db0007" stroke="#db0007" stroke-miterlimit="282" stroke-width="0.980181" d="M161.503 11.051c37.796 0 76.055 5.717 107.179 16.548 39.11 157.822 7.701 264.397-107.214 337.235z" transform="matrix(.81095 0 0 .80713 126.654 20.506)"/><path fill="#fff" d="M112.598 249.203c-16.68 11.437-29.953 15.556-45.356 19.64l-9.298-14.454c14.161-7.173 28.818-17.153 43.582-31.606 1.242 14.026 7.771 23.969 11.072 26.42z" style="stroke-width:1.99349" transform="matrix(.81095 0 0 .80713 126.654 20.506)"/><path fill="#9c824a" d="M110.326 248.6c-15.828 10.866-37.868 18.431-63.101 22.124l-5.146-7.812c21.613-8.099 42.481-20.172 58.665-37.147 2.449 10.866 6.175 18.076 9.582 22.835z" style="stroke-width:1.99349" transform="matrix(.81095 0 0 .80713 126.654 20.506)"/><path fill="#fff" d="M68.165 182.225a10.954 10.954 0 0 1-10.966 10.974c-6.069 0-11.002-4.901-11.002-10.974s4.933-10.973 11.002-10.973c6.069 0 10.966 4.9 10.966 10.973z" style="stroke-width:1.99349" transform="matrix(.81095 0 0 .80713 126.654 20.506)"/><path fill="#fff" d="M66.993 160.597v41.409h32.615c2.129-13.886 10.008-28.624 27.859-41.409H66.993" style="stroke-width:1.99349" transform="matrix(.81095 0 0 .80713 126.654 20.506)"/><path fill="#fff" d="M68.307 202.006c-7.276.106-13.273-9.021-13.38-20.456-.071-11.436 5.75-20.811 13.061-20.953h.249" style="stroke-width:1.99349" transform="matrix(.81095 0 0 .80713 126.654 20.506)"/><path fill="#9c824a" d="M63.551 182.225c0 4.688-3.407 8.453-7.595 8.453s-7.595-3.764-7.595-8.453c0-4.688 3.407-8.452 7.595-8.452 4.188-.001 7.595 3.764 7.595 8.452zM67.881 162.764v37.217h32.367c2.555-12.358 8.837-25.498 24.523-37.217h-56.89" style="stroke-width:1.99349" transform="matrix(.81095 0 0 .80713 126.654 20.506)"/><path fill="#9c824a" d="M69.087 199.981c-6.85.143-12.457-8.096-12.563-18.36-.071-10.263 5.43-18.716 12.279-18.857h.213" style="stroke-width:1.99349" transform="matrix(.81095 0 0 .80713 126.654 20.506)"/><path fill="#fff" d="M223.325 211.701c0 34.556-27.965 62.539-62.497 62.539-34.496 0-62.497-27.983-62.497-62.539 0-34.554 28.001-62.539 62.497-62.539 34.532 0 62.497 27.985 62.497 62.539z" style="stroke-width:1.99349" transform="matrix(.81095 0 0 .80713 126.654 20.506)"/><path fill="#9c824a" d="M220.062 211.701c0 32.744-26.512 59.271-59.233 59.271-32.686 0-59.197-26.527-59.197-59.271 0-32.707 26.511-59.271 59.197-59.271 32.721-.001 59.233 26.528 59.233 59.271z" style="stroke-width:1.99349" transform="matrix(.81095 0 0 .80713 126.654 20.506)"/><path fill="#fff" d="M210.23 211.701c0 27.31-22.111 49.436-49.402 49.436-27.256 0-49.366-22.126-49.366-49.436s22.11-49.435 49.366-49.435c27.291 0 49.402 22.125 49.402 49.435z" style="stroke-width:1.99349" transform="matrix(.81095 0 0 .80713 126.654 20.506)"/><path fill="#9c824a" d="M206.966 211.701c0 25.498-20.656 46.132-46.138 46.132-25.446 0-46.101-20.634-46.101-46.132 0-25.498 20.655-46.131 46.101-46.131 25.482-.001 46.138 20.633 46.138 46.131z" style="stroke-width:1.99349" transform="matrix(.81095 0 0 .80713 126.654 20.506)"/><path fill="#fff" d="M180.063 211.701c.036 10.619-8.588 19.249-19.2 19.284-10.646 0-19.271-8.629-19.271-19.248v-.036c0-10.619 8.589-19.248 19.235-19.248 10.611-.035 19.235 8.595 19.235 19.213l.001.035z" style="stroke-width:1.99349" transform="matrix(.81095 0 0 .80713 126.654 20.506)"/><path fill="#9c824a" d="M177.793 211.701c0 9.377-7.561 16.976-16.929 16.976-9.369 0-16.964-7.563-17-16.939v-.036c0-9.375 7.595-16.976 16.964-16.976s16.965 7.565 16.965 16.94z" style="stroke-width:1.99349" transform="matrix(.81095 0 0 .80713 126.654 20.506)"/><path fill="#fff" d="M169.559 211.701c0 4.794-3.904 8.7-8.73 8.735-4.791 0-8.695-3.905-8.695-8.735 0-4.829 3.904-8.7 8.695-8.735a8.727 8.727 0 0 1 8.73 8.735z" style="stroke-width:1.99349" transform="matrix(.81095 0 0 .80713 126.654 20.506)"/><path fill="#9c824a" d="M167.146 211.701a6.31 6.31 0 0 1-6.317 6.321 6.31 6.31 0 0 1-6.317-6.321c0-3.479 2.839-6.32 6.317-6.32a6.309 6.309 0 0 1 6.317 6.32z" style="stroke-width:1.99349" transform="matrix(.81095 0 0 .80713 126.654 20.506)"/><path fill="#fff" d="M154.192 164.504h13.131v30.647h-13.131z" style="stroke-width:1.99349" transform="matrix(.81095 0 0 .80713 126.654 20.506)"/><path fill="#9c824a" d="M156.25 160.1h9.049v38.958h-9.049z" style="stroke-width:1.99349" transform="matrix(.81095 0 0 .80713 126.654 20.506)"/><path fill="#fff" d="m197.418 181.798 7.169 11.009-25.694 16.693-7.133-11.01z" style="stroke-width:1.99349" transform="matrix(.81095 0 0 .80713 126.654 20.506)"/><path fill="#9c824a" d="m202.21 181.124 4.933 7.6-32.651 21.237-4.933-7.635z" style="stroke-width:1.99349" transform="matrix(.81095 0 0 .80713 126.654 20.506)"/><path fill="#fff" d="m142.409 214.187 7.027 11.08-25.872 16.408-7.027-11.116z" style="stroke-width:1.99349" transform="matrix(.81095 0 0 .80713 126.654 20.506)"/><path fill="#9c824a" d="m146.81 213.548 4.862 7.671-32.863 20.846-4.863-7.671z" style="stroke-width:1.99349" transform="matrix(.81095 0 0 .80713 126.654 20.506)"/><path fill="#fff" d="M154.192 229.281h13.131v30.646h-13.131z" style="stroke-width:1.99349" transform="matrix(.81095 0 0 .80713 126.654 20.506)"/><path fill="#9c824a" d="M156.25 224.913h9.049v38.922h-9.049z" style="stroke-width:1.99349" transform="matrix(.81095 0 0 .80713 126.654 20.506)"/><path fill="#ef0107" stroke="#ef0107" stroke-miterlimit="282" stroke-width="0.385026" d="M148.017 226.013c1.775 1.491 3.726 2.841 6.175 3.871l-.071 27.345c-12.386-1.598-21.755-7.706-28.853-16.406l22.785-14.81" transform="matrix(.81095 0 0 .80713 126.654 20.506)"/><path fill="#db0007" stroke="#db0007" stroke-miterlimit="282" stroke-width="0.385026" d="M173.604 226.12c-1.81 1.456-3.727 2.841-6.175 3.835l.035 27.346c12.386-1.598 21.756-7.706 28.854-16.407l-22.749-14.773" transform="matrix(.81095 0 0 .80713 126.654 20.506)"/><path fill="#db0007" d="m179.815 214.649 27.114-3.268c.213 6.782-1.42 12.749-3.727 18.467l-23.459-15.199" style="stroke-width:1.99349" transform="matrix(.81095 0 0 .80713 126.654 20.506)"/><path fill="#fff" stroke="#fff" stroke-miterlimit="282" stroke-width="0.385026" d="M179.851 214.542c.106-.426.071-.816.249-2.059l26.76-3.48c.106 1.243.035 1.704 0 2.272z" transform="matrix(.81095 0 0 .80713 126.654 20.506)"/><path fill="#fff" d="M219.458 191.992h35.1c-1.101 4.154-2.166 8.38-7.206 10.263-8.056 3.02-24.771 5.931-24.771 5.931-.32-4.582-1.349-10.798-3.123-16.194z" style="stroke-width:1.99349" transform="matrix(.81095 0 0 .80713 126.654 20.506)"/><path fill="#fff" d="m195.006 159.994 91.705.106-3.229 33.524-62.64 3.268c-3.372-14.987-14.765-29.298-25.836-36.898z" style="stroke-width:1.99349" transform="matrix(.81095 0 0 .80713 126.654 20.506)"/><path fill="#9c824a" d="m198.27 162.373 117.081.106-4.472 27.311-90.854 4.475c-3.585-13.567-11.782-23.475-21.755-31.892Z" style="stroke-width:1.99349" transform="matrix(.81095 0 0 .80713 126.654 20.506)"/><path fill="#9c824a" d="M219.458 191.992h32.33c-1.064 3.692-1.81 7.066-6.565 8.735-7.559 2.699-22.784 4.83-22.784 4.83-.639-4.438-1.562-8.949-2.981-13.565zM183.968 111.305c0 1.492-.319 5.576-.496 6.712h18.171c-1.102-4.831-1.599-11.542-1.74-16.727 0 .355-.319-10.406-.319-10.406 0-.746.319-1.882.78-2.237.64-.746 1.279-.746 2.06-.746.78-.355 2.2-.355 2.377 2.593l.462 11.151c.177 5.22.177 12.288-.462 16.372h17.497c-.143-1.492-.639-5.221-.781-6.322 2.2 4.83 6.956 7.422 13.273 7.422 3.762 0 6.636-1.457 8.837-2.948 0 .355.923 1.848.923 1.848h32.509c-1.42-4.831-2.343-11.542-2.839-16.727l-4.579-36.437-16.716-2.983c1.421 4.83 2.379 11.897 2.981 16.727l2.555 23.439c.462 4.084.782 8.559.782 13.388v.355l-.64-1.492c-1.277-2.983-1.881-6.676-2.378-12.252l-.603-7.458c-.958-11.897-7.417-17.083-21.649-17.083-2.342 0-8.34.355-11.995 1.492l.958 13.353 3.798-2.202c3.159-1.882 5.501-2.628 8.339-2.628 2.237 0 3.656.747 4.295 2.238-2.696.39-5.679 1.136-9.014 2.592-5.04 2.237-8.199 5.61-9.618 9.304v-.355L220.239 89c-.283-7.813-5.358-12.998-13.096-12.998-3.442 0-6.602 1.101-9.44 2.983-.177-.391-.319-.747-.497-1.137l-.639-1.492-14.516-.746c.639 2.628 1.598 10.051 1.74 12.644-.782-3.694-2.84-7.778-6.638-10.761-2.98-1.882-6.778-2.983-10.717-2.983-5.36 0-10.896 2.237-14.516 5.966-3.797 3.693-5.679 8.914-5.856 14.845-1.419-1.492-3.3-2.948-5.501-3.693l-6.637-3.374h-.319c-1.561-.747-1.739-1.102-1.739-1.457.178-.746 1.739-1.492 3.798-1.492 2.839 0 6.779 1.492 9.937 3.339l.319-11.897c-2.378-1.137-5.678-1.847-10.434-1.847-2.52 0-7.24.355-11.357 2.592a43.082 43.082 0 0 0-2.981 2.238l.142-3.375c-3.797-.71-7.879-.71-12.919 4.12-.177-.391-.497-2.238-.816-2.983l-15.615.746c1.1 4.44 1.277 10.761.958 16.337l-.319 5.966v.746c-.178 2.983-.319 6.321-.639 9.304-1.278-4.12-2.662-9.695-3.798-14.134l-7.736-34.945-22.075 3.338c.142.355.461 1.492.639 2.592.143 1.492.143 4.475-1.916 10.796-3.62 10.016-8.66 25.286-13.557 36.046-.639 1.492-1.916 3.729-1.916 3.729h17.212c.32-2.593 1.42-7.067 2.52-10.406 2.378 0 8.518 0 11.356-.391.639 2.628 1.278 5.966 1.456 8.203l.284 2.593h34.425c-.781-5.576-.462-12.999-.177-17.118.319-4.83 1.277-8.168 3.336-10.015 1.561-1.882 3.3-2.237 4.578-2.237-.177 6.676 4.082 9.66 7.879 11.506l6.778 3.373c2.378 1.492 2.378 1.847 2.378 2.593-.142 1.101-2.059 1.492-3.797 1.492-3.62 0-8.518-2.238-13.877-8.168l-.319 15.59c4.259 2.237 9.618 3.338 14.374 3.338 7.879 0 16.254-3.694 18.455-10.761 3.939 7.422 11.676 10.761 19.271 10.761 6.777.006 11.816-2.197 16.253-7.061zM65.432 96.069c.958-2.592 1.738-4.83 3.158-8.914.958 4.084 1.419 6.677 1.881 8.559-1.881.355-2.839.355-5.039.355zm96.603-4.084c0-5.185 1.881-7.422 3.763-7.422.639 0 2.058-.391 2.696 2.237.319 1.101.461 1.847.461 2.202 0 1.492-.78 1.882-1.738 1.882v.355s-2.662.746-5.182 1.882v-1.136zm17.993 10.796c-3.337 2.948-5.714 4.83-9.653 4.83-3.158-.391-5.04-2.238-6.14-4.83 3.301-1.136 16.077-5.966 19.732-7.458 0 2.983.143 6.321.143 6.321v6.322zm58.842 5.186c-2.98 0-3.62-2.238-3.762-3.694.142-1.492.603-3.729 5.358-5.22a93.08 93.08 0 0 0 .319 3.338v1.491c.143 1.136.143 2.237.284 3.338-.602.391-1.382.391-2.199.747" style="stroke-width:1.99349" transform="matrix(.81095 0 0 .80713 126.654 20.506)"/><path fill="#fff" d="M143.225 78.597c-1.561-.355-3.939-1.101-7.736-1.101-2.981 0-6.921.746-9.938 2.238-3.478 2.237-5.998 5.185-6.14 8.559-.319 5.185 2.378 7.422 6.317 9.269 2.662 1.492 5.217 2.983 6.779 3.729 2.058 1.101 3.939 2.237 3.797 4.83-.177 2.593-2.555 4.475-6.494 4.475-3.301 0-8.021-2.237-11.357-5.221l-.142 7.813c2.839 1.492 7.417 2.237 11.676 2.237 7.24 0 16.254-3.338 16.396-11.542.177-6.321-4.258-8.559-6.92-10.015-2.697-1.136-5.395-2.627-6.636-2.983-1.278-.746-3.798-1.491-3.62-4.475.284-2.592 3.301-3.729 6.459-3.729 2.662 0 5.359.746 7.417 1.882M78.385 64.853 61.634 67.09c.32 2.238-.319 6.677-2.058 11.897-3.442 10.015-9.121 26.741-13.558 36.436h10.435c.603-3.373 1.384-6.321 2.981-10.405l15.474-.391c.603 2.983 1.739 7.813 1.881 10.796h14.054c-1.739-4.119-3.939-12.643-5.358-18.609ZM61.634 98.662l7.595-21.912 4.579 21.557M118.454 78.597l-.319 7.458c-2.52-.39-5.678.355-8.198 2.948-2.201 2.237-3.62 5.576-3.939 11.542-.32 4.83-.462 10.406-.178 14.88H94.001c.781-4.474 1.101-9.66 1.242-14.524l.319-5.931c.319-4.83.319-9.66-.461-14.134l10.434-.355c.462 1.492.781 4.084.604 6.676 4.578-7.069 9.014-8.56 12.315-8.56M267.298 67.09l-10.754-1.882c1.101 4.866 1.42 8.204 2.059 13.033l2.521 23.404c.496 4.83.958 9.305.815 13.779h11.677c-1.136-4.474-1.597-8.949-2.059-13.779M219.139 115.424c-.604-4.474-.924-8.949-1.102-13.779l-.461-12.252c-.319-6.712-4.116-10.405-10.434-10.405-3.442 0-7.56 1.101-11.037 5.575-.142-1.136-.639-4.084-1.277-5.575l-9.44-.391c.78 4.475 1.1 8.914 1.241 13.744l.178 9.304c.142 4.83 0 9.305-.319 13.779h11.818c-.604-4.474-.923-8.949-1.101-13.779l-.319-10.405c-.142-3.729 2.697-6.322 5.537-6.322 3.3 0 4.897 2.237 5.04 5.576l.496 11.151c.143 4.83.143 9.305-.177 13.779M256.083 115.424c-1.419-3.729-2.2-8.203-2.52-13.033l-.64-7.423c-.639-8.914-4.399-14.88-18.951-14.88-2.52 0-6.14.391-9.12 1.101l.461 6.712c2.98-1.847 5.998-3.338 9.795-3.338 3.939 0 7.24 1.847 7.56 7.422-3.798.391-7.276 1.101-11.215 2.983-4.4 1.847-8.979 5.576-8.518 11.506.461 6.712 5.536 9.695 11.854 9.695 4.897 0 8.198-2.237 10.079-4.474.319 1.491.816 2.592 1.277 3.729zm-17.213-4.83c-3.479 0-6.316-1.882-6.459-5.966 0-4.084 2.52-7.422 10.576-8.559l.462 6.322c.177 2.237.177 3.729.496 5.576-1.134 1.491-3.016 2.237-5.075 2.627M175.592 79.733c-2.696-1.882-5.855-2.628-9.155-2.628-7.737 0-17.994 5.576-17.675 19.71.142 14.49 11.215 18.964 18.952 18.964 6.778 0 10.896-2.593 14.195-5.931l-2.378-3.374c-1.738 1.492-4.578 3.729-9.156 3.729-4.898-.355-8.021-3.729-9.76-8.914l21.436-7.813c-.639-7.066-3.158-11.15-6.459-13.743zm-7.417 13.744-8.518 3.338c-.177-1.491-.319-2.983-.319-4.83 0-8.559 4.72-10.05 6.316-10.05 2.521-.355 4.721 1.136 5.536 4.119.924 3.339.605 6.322-3.015 7.423M117.673 190.287l7.204-10.974 25.624 16.762-7.205 11.009z" style="stroke-width:1.99349" transform="matrix(.81095 0 0 .80713 126.654 20.506)"/><path fill="#9c824a" d="m115.295 186.522 4.969-7.6 32.544 21.343-4.969 7.601z" style="stroke-width:1.99349" transform="matrix(.81095 0 0 .80713 126.654 20.506)"/><path fill="#fff" d="m172.363 225.232 7.204-11.01 25.623 16.798-7.204 11.01z" style="stroke-width:1.99349" transform="matrix(.81095 0 0 .80713 126.654 20.506)"/><path fill="#9c824a" d="m169.984 221.467 4.969-7.599 32.545 21.343-4.969 7.565z" style="stroke-width:1.99349" transform="matrix(.81095 0 0 .80713 126.654 20.506)"/></g></g></svg>