<?xml version="1.0" encoding="utf-8"?>
<!-- Generator: Adobe Illustrator 28.1.0, SVG Export Plug-In . SVG Version: 6.00 Build 0)  -->
<svg version="1.1" id="Capa_1" xmlns="http://www.w3.org/2000/svg" xmlns:xlink="http://www.w3.org/1999/xlink" x="0px" y="0px"
	 viewBox="0 0 120 100" style="enable-background:new 0 0 120 100;" xml:space="preserve">
<style type="text/css">
	.st0{fill:#14152A;}
</style>
<path class="st0" d="M4.9,57.3c1.2-4.5,4.4-12.2,7-17.6c2.7-5.6,5.9-10.8,7.5-11.9c1.4-1,10.5-0.2,9.3,1.4c-2,2.8-5.7,8.5-7.9,11.9
	c-3.9,6.1-11.4,20.4-9.9,21.5c0.8,0.6,5-12.5,12-18.3c6.3-5.2,13.1-0.7,11,6.1c-2.1,6.9-7.5,22,3,15.5c0,0-4,6.8-8.5,6.8
	c-3.7,0-5.9-2.8-3.5-11.4c1.2-4.4,2.2-7.7,3-9.7c0.8-2.1-0.8-2.8-2.2-1.5c-2.2,2.1-5,7.3-8.5,14.4s-6.7,8.9-10.2,8
	C3,71.4,2.8,65.2,4.9,57.3z"/>
<path class="st0" d="M98,28.1v7.1h10.6v-4.4c0-1.5,1.2-2.7,2.7-2.7l3.1,0V44c0,1.5-1.2,2.7-2.7,2.7h-3.1v-7.4H98l0,4.7v0
	c0,1.5-1.2,2.7-2.7,2.7l-3,0l0-15.9c0-1.5,1.2-2.7,2.7-2.7L98,28.1z M51.8,28.2v7.1h10.6v-4.4c0-1.5,1.2-2.7,2.7-2.7l3.1,0l0,15.9
	c0,1.5-1.2,2.7-2.7,2.7h-3.1v-7.4H51.8v4.7c0,1.5-1.2,2.7-2.6,2.7l-3,0l0-15.9c0-1.5,1.2-2.7,2.7-2.7L51.8,28.2z M90.5,28.2
	l-1.1,2.6c-0.4,1-1.4,1.7-2.5,1.7h-4.1v11c0,1.2-0.8,2.3-2,2.6l-3.6,0.9V32.4h-7.3v-1.6c0-1.5,1.2-2.7,2.7-2.7L90.5,28.2L90.5,28.2
	L90.5,28.2z M110.4,50.1c1.1,0,1.9,0.5,2.3,1.5l2.5,6.8h-1v1.9H94.4v-1.9h-1.5l3.3-8.2h4.1l-2.5,7h12.8l-1.1-2.9
	c-0.2-0.7-0.9-1.1-2.1-1.1h-6.7v-3.1H110.4z M53.2,50.2C52,52.2,50.6,53.8,49,55l2.3,0v5.9c0,1.1-0.6,1.7-1.9,1.7h-1.7v-6.7
	l-1.9,0.8v-3.7c1.3-0.7,2.4-1.7,3.4-2.9H53.2L53.2,50.2z M81.3,54.7h-0.8l-1,10.7h1.9L81.3,54.7L81.3,54.7z M85.9,54.7h-0.9v10.7H87
	L85.9,54.7z M114.9,62v3.1h-12.5l-3.1,3.8l9.1,0c0.6-0.2,0.7-0.6,0.5-1l-0.6-1.3h4.1l2.8,5.6h-4l-0.8-1.4c-0.9,1-2,1.5-3.4,1.5H96.2
	c-1.6-0.3-2.2-1.4-1.6-3.2l3.1-3.8h-4.3V62L114.9,62L114.9,62L114.9,62z M75.7,50.3c-0.6,3.7-1.8,6.5-3.5,8.4l2.3,0V70
	c0,1.4-0.8,2.1-2.5,2.1h-1.3V60l-1.4,0.6l0-4.4c1.4-0.9,2.4-2.9,3-5.8L75.7,50.3L75.7,50.3z M59.2,50.1v3.1l7.2-2.1v3.5l-7.2,2.1
	v1.9c0,0.4,0.2,0.6,0.6,0.6h7.4v3.1h-8.9v1.9h9v1c0,1.3-0.6,2-1.7,2h-7.3v4.7h-4v-2.6c0-1.4-0.6-2.1-1.9-2.1h-7v-3.1h8.9v-2.4h2.2
	c-0.7-0.4-1.1-1.1-1.1-2.2v-1.8l-2.4,0.6v-3.7l2.4-0.6v-4.1H59.2z M85.1,50.1v1.6h5.6v3h-1.1l1.6,16.7h-3.6l-0.4-3h-2.2v3.6l-3.8,0
	v-1.8c0-1.2-0.4-1.8-1.2-1.8h-1l-0.4,3l-3.6,0l1.8-16.7H76v-3h5.3v-1.6H85.1z"/>
<path class="st0" d="M98,28.1v7.1h10.6v-4.4c0-1.5,1.2-2.7,2.7-2.7l3.1,0V44c0,1.5-1.2,2.7-2.7,2.7h-3.1v-7.4H98l0,4.7v0
	c0,1.5-1.2,2.7-2.7,2.7l-3,0l0-15.9c0-1.5,1.2-2.7,2.7-2.7L98,28.1z M51.8,28.2v7.1h10.6v-4.4c0-1.5,1.2-2.7,2.7-2.7l3.1,0l0,15.9
	c0,1.5-1.2,2.7-2.7,2.7h-3.1v-7.4H51.8v4.7c0,1.5-1.2,2.7-2.6,2.7l-3,0l0-15.9c0-1.5,1.2-2.7,2.7-2.7L51.8,28.2z M90.5,28.2
	l-1.1,2.6c-0.4,1-1.4,1.7-2.5,1.7h-4.1v11c0,1.2-0.8,2.3-2,2.6l-3.6,0.9V32.4h-7.3v-1.6c0-1.5,1.2-2.7,2.7-2.7L90.5,28.2L90.5,28.2
	L90.5,28.2z M110.4,50.1c1.1,0,1.9,0.5,2.3,1.5l2.5,6.8h-1v1.9H94.4v-1.9h-1.5l3.3-8.2h4.1l-2.5,7h12.8l-1.1-2.9
	c-0.2-0.7-0.9-1.1-2.1-1.1h-6.7v-3.1H110.4z M53.2,50.2C52,52.2,50.6,53.8,49,55l2.3,0v5.9c0,1.1-0.6,1.7-1.9,1.7h-1.7v-6.7
	l-1.9,0.8v-3.7c1.3-0.7,2.4-1.7,3.4-2.9H53.2L53.2,50.2z M81.3,54.7h-0.8l-1,10.7h1.9L81.3,54.7L81.3,54.7z M85.9,54.7h-0.9v10.7H87
	L85.9,54.7z M114.9,62v3.1h-12.5l-3.1,3.8l9.1,0c0.6-0.2,0.7-0.6,0.5-1l-0.6-1.3h4.1l2.8,5.6h-4l-0.8-1.4c-0.9,1-2,1.5-3.4,1.5H96.2
	c-1.6-0.3-2.2-1.4-1.6-3.2l3.1-3.8h-4.3V62L114.9,62L114.9,62L114.9,62z M75.7,50.3c-0.6,3.7-1.8,6.5-3.5,8.4l2.3,0V70
	c0,1.4-0.8,2.1-2.5,2.1h-1.3V60l-1.4,0.6l0-4.4c1.4-0.9,2.4-2.9,3-5.8L75.7,50.3L75.7,50.3z M59.2,50.1v3.1l7.2-2.1v3.5l-7.2,2.1
	v1.9c0,0.4,0.2,0.6,0.6,0.6h7.4v3.1h-8.9v1.9h9v1c0,1.3-0.6,2-1.7,2h-7.3v4.7h-4v-2.6c0-1.4-0.6-2.1-1.9-2.1h-7v-3.1h8.9v-2.4h2.2
	c-0.7-0.4-1.1-1.1-1.1-2.2v-1.8l-2.4,0.6v-3.7l2.4-0.6v-4.1H59.2z M85.1,50.1v1.6h5.6v3h-1.1l1.6,16.7h-3.6l-0.4-3h-2.2v3.6l-3.8,0
	v-1.8c0-1.2-0.4-1.8-1.2-1.8h-1l-0.4,3l-3.6,0l1.8-16.7H76v-3h5.3v-1.6H85.1z"/>
</svg>
