<svg width="121" height="101" viewBox="0 0 121 101" fill="none" xmlns="http://www.w3.org/2000/svg">
<mask id="mask0_17_2" style="mask-type:luminance" maskUnits="userSpaceOnUse" x="0" y="0" width="121" height="101">
<path d="M120.56 0.25H0.560059V100.25H120.56V0.25Z" fill="white"/>
</mask>
<g mask="url(#mask0_17_2)">
<mask id="mask1_17_2" style="mask-type:luminance" maskUnits="userSpaceOnUse" x="0" y="35" width="121" height="31">
<path d="M120.56 35.3125H0.560059V65.1875H120.56V35.3125Z" fill="white"/>
</mask>
<g mask="url(#mask1_17_2)">
<path d="M105.077 64.8006C97.0513 64.8006 90.5226 58.2712 90.5226 50.2463C90.5226 42.2213 97.052 35.6913 105.077 35.6913C113.102 35.6913 119.631 42.2206 119.631 50.2463C119.631 58.2719 113.102 64.8006 105.077 64.8006ZM105.077 44.19C101.738 44.19 99.0207 46.9069 99.0207 50.2463C99.0207 53.5856 101.738 56.3025 105.077 56.3025C108.416 56.3025 111.133 53.5856 111.133 50.2463C111.133 46.9069 108.416 44.19 105.077 44.19Z" fill="#14142B"/>
<path d="M43.1687 63.6381C37.9037 61.5325 34.5106 56.36 34.5106 50.6894V36.7512C34.5106 36.3894 34.8043 36.0956 35.1662 36.0956H42.3531C42.715 36.0956 43.0087 36.3894 43.0087 36.7512V50.7031C43.0087 52.61 43.9906 54.41 45.6468 55.3556C50.3262 58.0269 55.1212 54.69 55.1212 50.2531V36.7512C55.1212 36.3894 55.415 36.0956 55.7768 36.0956H62.9637C63.3256 36.0956 63.6193 36.3894 63.6193 36.7512V50.2531C63.6193 60.1819 53.6256 67.8206 43.1687 63.6381Z" fill="#14142B"/>
<path d="M86.8875 45.0338L90.3156 38.8031C90.4925 38.4988 90.3919 38.0994 90.0931 37.9131C86.8594 35.8981 82.9806 35.2138 79.05 36.1006C72.4725 37.5844 67.8712 43.5381 67.8712 50.2806V63.7756C67.8712 64.1375 68.165 64.4313 68.5269 64.4313H75.7137C76.0756 64.4313 76.3694 64.1375 76.3694 63.7756V50.4825C76.3694 47.0869 79.1469 44.2188 82.5419 44.2188C83.9087 44.2188 85.2969 44.8275 85.9644 45.2544C86.28 45.4563 86.6993 45.3576 86.8875 45.0338Z" fill="#14142B"/>
<path d="M16.0431 56.3056C12.6987 56.3056 9.98752 53.5944 9.98752 50.25C9.98752 46.9056 12.7025 44.1944 16.0475 44.1944C19.3925 44.1944 22.0994 46.9056 22.0994 50.25C22.0994 53.5944 19.3875 56.3056 16.0431 56.3056ZM16.0431 64.8087C24.0731 64.8087 30.6056 58.2762 30.6056 50.2462C30.6056 44.0937 26.7694 38.8238 21.3644 36.6944C21.0675 36.5775 20.6994 36.7081 20.545 36.9875L17.2331 42.9812C16.8481 42.9169 16.3612 42.8819 16.0469 42.8819C15.6437 42.8819 15.2456 42.9169 14.8606 42.9812L11.5487 36.9875C11.3944 36.7081 11.0262 36.5775 10.7294 36.6944C5.32502 38.8238 1.48877 44.0937 1.48877 50.2462C1.48877 58.2762 8.02127 64.8087 16.0512 64.8087" fill="#14142B"/>
<path d="M117.508 62.7831V62.9794H116.952V64.4319H116.726V62.9794H116.171V62.7831H117.508Z" fill="#14142B"/>
<path d="M117.708 62.7831H118.028L118.502 64.1775L118.973 62.7831H119.291V64.4325H119.078V63.4594C119.078 63.4256 119.078 63.37 119.08 63.2919C119.082 63.2138 119.083 63.1306 119.083 63.0413L118.612 64.4319H118.391L117.916 63.0413V63.0919C117.916 63.1325 117.917 63.1938 117.919 63.2763C117.921 63.3588 117.922 63.42 117.922 63.4588V64.4319H117.709V62.7825L117.708 62.7831Z" fill="#14142B"/>
</g>
</g>
</svg>
