<svg width="2680" height="3000" viewBox="0 0 2680 3000" fill="none" xmlns="http://www.w3.org/2000/svg">
<rect width="2680" height="3000" fill="white"/>
<path d="M1339.8 2999.6C2079.75 2999.6 2679.6 2401.09 2679.6 1662.8C2679.6 924.506 2079.75 326 1339.8 326C599.849 326 0 924.506 0 1662.8C0 2401.09 599.849 2999.6 1339.8 2999.6Z" fill="#3D3E3F"/>
<path d="M1454.5 700.3C1446.2 676.3 1424.6 665.7 1417.4 664.3C1410.2 662.9 1399.8 661.4 1386.6 668.1C1374.3 674.3 1371.2 693 1376.7 705.2C1380.8 714.2 1409 733.8 1413.2 736.6C1417.4 739.4 1416.5 743 1414.7 742.4C1411.4 741.3 1408.6 740.6 1402.5 740C1396.7 739.4 1347.4 738.8 1342.2 738.7H1341.8C1336.6 738.7 1287.2 739.4 1281.5 740C1275.4 740.6 1272.6 741.3 1269.3 742.4C1267.5 743 1266.6 739.4 1270.8 736.6C1275 733.8 1303.3 714.2 1307.3 705.2C1312.8 693 1309.7 674.4 1297.4 668.1C1284.1 661.4 1273.7 662.9 1266.6 664.3C1259.5 665.7 1237.9 676.3 1229.5 700.3C1221.3 723.8 1221.1 733.3 1222.4 752.1C1223.7 770.9 1230.6 817.1 1239.4 841.2C1248.2 865.3 1282 934.3 1282 934.3L1290.3 950.8C1290.3 950.8 1304 980.1 1306.3 997.8C1307.6 1007.8 1307.9 1011.8 1307.6 1017.1C1307.3 1021.7 1303.1 1024.8 1298.6 1025.9C1290.6 1028 1281.1 1030.3 1270.4 1032.4C1266.5 1033.2 1272.5 1046.1 1295.2 1049.9C1316.4 1053.4 1338.8 1053.2 1341.7 1053.2C1344.6 1053.2 1367 1053.4 1388.2 1049.9C1410.9 1046.1 1416.9 1033.2 1413 1032.4C1402.3 1030.3 1392.8 1027.9 1384.8 1025.9C1380.3 1024.7 1376.1 1021.7 1375.8 1017.1C1375.5 1011.8 1375.8 1007.7 1377.1 997.8C1378.6 986.4 1384.7 970.4 1388.9 960.3L1402 934.4C1402 934.4 1435.8 865.5 1444.6 841.3C1453.4 817.2 1460.4 771 1461.6 752.2C1462.9 733.4 1462.6 723.8 1454.5 700.4V700.3ZM1269.4 773.3C1265.7 778.1 1253.9 782.8 1250 784.3C1249.2 784.6 1248.8 785.3 1248.9 786.1C1250.4 795.7 1259.8 855.6 1261.2 862C1262.7 869 1261.9 869 1261.4 869.1C1260.8 869.1 1260 866.9 1260 866.9C1260 866.9 1253.2 848.6 1250.9 842.1C1249.2 837.2 1244.1 819 1241.7 810.6C1240.9 807.7 1240.2 804.7 1239.7 801.7C1238.1 792.1 1234.6 769.6 1233.4 754.5C1231.8 734.9 1235.8 717.5 1235.8 717.5C1238.9 692.8 1263 677.4 1263 677.4C1284.9 664.1 1296.2 682.5 1296.2 682.5C1303.1 694.1 1294.8 702 1289.7 707.2C1284.6 712.4 1265.1 721.7 1255.1 730.3C1251.5 733.4 1252.4 739.1 1252.4 740.2C1252.7 745.9 1261 751.4 1261.2 751.5C1267.3 755.2 1273.6 756.9 1275.1 761.4C1276.4 765.1 1269.4 773.3 1269.4 773.3ZM1450.7 754.7C1449.5 769.8 1445.9 792.3 1444.4 801.9C1443.9 804.9 1443.3 807.8 1442.4 810.8C1440.1 819.2 1434.9 837.3 1433.2 842.3C1431 848.8 1424.1 867.1 1424.1 867.1C1424.1 867.1 1423.3 869.4 1422.7 869.3C1422.1 869.3 1421.4 869.3 1422.9 862.2C1424.3 855.8 1433.7 795.9 1435.2 786.3C1435.3 785.5 1434.9 784.8 1434.1 784.5C1430.2 783 1418.4 778.2 1414.7 773.5C1414.7 773.5 1407.7 765.4 1409 761.6C1410.5 757.1 1416.8 755.4 1422.9 751.7C1423.1 751.7 1431.4 746.2 1431.7 740.4C1431.7 739.2 1432.6 733.6 1429 730.5C1419 721.9 1399.6 712.6 1394.4 707.4C1389.3 702.2 1381 694.3 1387.9 682.7C1387.9 682.7 1399.2 664.3 1421.1 677.6C1421.1 677.6 1445.2 693 1448.3 717.7C1448.3 717.7 1452.3 735.1 1450.7 754.7Z" fill="#555659"/>
<path d="M543.3 1185.3C535 1161.3 513.4 1150.7 506.2 1149.3C499 1147.9 488.6 1146.4 475.4 1153.1C463.1 1159.3 460 1178 465.5 1190.2C469.6 1199.2 497.8 1218.8 502 1221.6C506.2 1224.4 505.3 1228 503.5 1227.4C500.2 1226.3 497.4 1225.6 491.3 1225C485.5 1224.4 436.2 1223.8 431 1223.7H430.6C425.4 1223.7 376 1224.4 370.3 1225C364.2 1225.6 361.4 1226.3 358.1 1227.4C356.3 1228 355.4 1224.4 359.6 1221.6C363.8 1218.8 392.1 1199.2 396.1 1190.2C401.6 1178 398.5 1159.4 386.2 1153.1C372.9 1146.4 362.5 1147.9 355.4 1149.3C348.3 1150.7 326.7 1161.3 318.3 1185.3C310.1 1208.8 309.9 1218.3 311.2 1237.1C312.5 1255.9 319.4 1302.1 328.2 1326.2C337 1350.3 370.8 1419.3 370.8 1419.3L379.1 1435.8C379.1 1435.8 392.8 1465.1 395.1 1482.8C396.4 1492.8 396.7 1496.8 396.4 1502.1C396.1 1506.7 391.9 1509.8 387.4 1510.9C379.4 1513 369.9 1515.3 359.2 1517.4C355.3 1518.2 361.3 1531.1 384 1534.9C405.2 1538.4 427.6 1538.2 430.5 1538.2C433.4 1538.2 455.8 1538.4 477 1534.9C499.7 1531.1 505.7 1518.2 501.8 1517.4C491.1 1515.3 481.6 1512.9 473.6 1510.9C469.1 1509.7 464.9 1506.7 464.6 1502.1C464.3 1496.8 464.6 1492.7 465.9 1482.8C467.4 1471.4 473.5 1455.4 477.7 1445.3L490.8 1419.4C490.8 1419.4 524.6 1350.5 533.4 1326.3C542.2 1302.2 549.2 1256 550.4 1237.2C551.7 1218.4 551.4 1208.8 543.3 1185.4V1185.3ZM358.2 1258.4C354.5 1263.2 342.7 1267.9 338.8 1269.4C338 1269.7 337.6 1270.4 337.7 1271.2C339.2 1280.8 348.6 1340.7 350 1347.1C351.5 1354.1 350.7 1354.1 350.2 1354.2C349.6 1354.2 348.8 1352 348.8 1352C348.8 1352 342 1333.7 339.7 1327.2C338 1322.3 332.9 1304.1 330.5 1295.7C329.7 1292.8 329 1289.8 328.5 1286.8C326.9 1277.2 323.4 1254.7 322.2 1239.6C320.6 1220 324.6 1202.6 324.6 1202.6C327.7 1177.9 351.8 1162.5 351.8 1162.5C373.7 1149.2 385 1167.6 385 1167.6C391.9 1179.2 383.6 1187.1 378.5 1192.3C373.4 1197.5 353.9 1206.8 343.9 1215.4C340.3 1218.5 341.2 1224.2 341.2 1225.3C341.5 1231 349.8 1236.5 350 1236.6C356.1 1240.3 362.4 1242 363.9 1246.5C365.2 1250.2 358.2 1258.4 358.2 1258.4ZM539.5 1239.7C538.3 1254.8 534.7 1277.3 533.2 1286.9C532.7 1289.9 532.1 1292.8 531.2 1295.8C528.9 1304.2 523.7 1322.3 522 1327.3C519.8 1333.8 512.9 1352.1 512.9 1352.1C512.9 1352.1 512.1 1354.4 511.5 1354.3C510.9 1354.3 510.2 1354.3 511.7 1347.2C513.1 1340.8 522.5 1280.9 524 1271.3C524.1 1270.5 523.7 1269.8 522.9 1269.5C519 1268 507.2 1263.2 503.5 1258.5C503.5 1258.5 496.5 1250.4 497.8 1246.6C499.3 1242.1 505.6 1240.4 511.7 1236.7C511.9 1236.7 520.2 1231.2 520.5 1225.4C520.5 1224.2 521.4 1218.6 517.8 1215.5C507.8 1206.9 488.4 1197.6 483.2 1192.4C478.1 1187.2 469.8 1179.3 476.7 1167.7C476.7 1167.7 488 1149.3 509.9 1162.6C509.9 1162.6 534 1178 537.1 1202.7C537.1 1202.7 541.1 1220.1 539.5 1239.7Z" fill="#555659"/>
<path d="M367.3 1631.4C359 1607.4 337.4 1596.8 330.2 1595.4C323 1594 312.6 1592.5 299.4 1599.2C287.1 1605.4 284 1624.1 289.5 1636.3C293.6 1645.3 321.8 1664.9 326 1667.7C330.2 1670.5 329.3 1674.1 327.5 1673.5C324.2 1672.4 321.4 1671.7 315.3 1671.1C309.5 1670.5 260.2 1669.9 255 1669.8H254.6C249.4 1669.8 200 1670.5 194.3 1671.1C188.2 1671.7 185.4 1672.4 182.1 1673.5C180.3 1674.1 179.4 1670.5 183.6 1667.7C187.8 1664.9 216.1 1645.3 220.1 1636.3C225.6 1624.1 222.5 1605.5 210.2 1599.2C196.9 1592.5 186.5 1594 179.4 1595.4C172.3 1596.8 150.7 1607.4 142.3 1631.4C134.1 1654.9 133.9 1664.4 135.2 1683.2C136.5 1702 143.4 1748.2 152.2 1772.3C161 1796.4 194.8 1865.4 194.8 1865.4L203.1 1881.9C203.1 1881.9 216.8 1911.2 219.1 1928.9C220.4 1938.9 220.7 1942.9 220.4 1948.2C220.1 1952.8 215.9 1955.9 211.4 1957C203.4 1959.1 193.9 1961.4 183.2 1963.5C179.3 1964.3 185.3 1977.2 208 1981C229.2 1984.5 251.6 1984.3 254.5 1984.3C257.4 1984.3 279.8 1984.5 301 1981C323.7 1977.2 329.7 1964.3 325.8 1963.5C315.1 1961.4 305.6 1959 297.6 1957C293.1 1955.8 288.9 1952.8 288.6 1948.2C288.3 1942.9 288.6 1938.8 289.9 1928.9C291.4 1917.5 297.5 1901.5 301.7 1891.4L314.8 1865.5C314.8 1865.5 348.6 1796.6 357.4 1772.4C366.2 1748.3 373.2 1702.1 374.4 1683.3C375.7 1664.5 375.4 1654.9 367.3 1631.5V1631.4ZM182.2 1704.4C178.5 1709.2 166.7 1713.9 162.8 1715.4C162 1715.7 161.6 1716.4 161.7 1717.2C163.2 1726.8 172.6 1786.7 174 1793.1C175.5 1800.1 174.7 1800.1 174.2 1800.2C173.6 1800.2 172.8 1798 172.8 1798C172.8 1798 166 1779.7 163.7 1773.2C162 1768.3 156.9 1750.1 154.5 1741.7C153.7 1738.8 153 1735.8 152.5 1732.8C150.9 1723.2 147.4 1700.7 146.2 1685.6C144.6 1666 148.6 1648.6 148.6 1648.6C151.7 1623.9 175.8 1608.5 175.8 1608.5C197.7 1595.2 209 1613.6 209 1613.6C215.9 1625.2 207.6 1633.1 202.5 1638.3C197.4 1643.5 177.9 1652.8 167.9 1661.4C164.3 1664.5 165.2 1670.2 165.2 1671.3C165.5 1677 173.8 1682.5 174 1682.6C180.1 1686.3 186.4 1688 187.9 1692.5C189.2 1696.2 182.2 1704.4 182.2 1704.4ZM363.5 1685.8C362.3 1700.9 358.7 1723.4 357.2 1733C356.7 1736 356.1 1738.9 355.2 1741.9C352.9 1750.3 347.7 1768.4 346 1773.4C343.8 1779.9 336.9 1798.2 336.9 1798.2C336.9 1798.2 336.1 1800.5 335.5 1800.4C334.9 1800.4 334.2 1800.4 335.7 1793.3C337.1 1786.9 346.5 1727 348 1717.4C348.1 1716.6 347.7 1715.9 346.9 1715.6C343 1714.1 331.2 1709.3 327.5 1704.6C327.5 1704.6 320.5 1696.5 321.8 1692.7C323.3 1688.2 329.6 1686.5 335.7 1682.8C335.9 1682.8 344.2 1677.3 344.5 1671.5C344.5 1670.3 345.4 1664.7 341.8 1661.6C331.8 1653 312.4 1643.7 307.2 1638.5C302.1 1633.3 293.8 1625.4 300.7 1613.8C300.7 1613.8 312 1595.4 333.9 1608.7C333.9 1608.7 358 1624.1 361.1 1648.8C361.1 1648.8 365.1 1666.2 363.5 1685.8Z" fill="#555659"/>
<path d="M543.3 2113.6C535 2089.6 513.4 2079 506.2 2077.6C499 2076.2 488.6 2074.7 475.4 2081.4C463.1 2087.6 460 2106.3 465.5 2118.5C469.6 2127.5 497.8 2147.1 502 2149.9C506.2 2152.7 505.3 2156.3 503.5 2155.7C500.2 2154.6 497.4 2153.9 491.3 2153.3C485.5 2152.7 436.2 2152.1 431 2152H430.6C425.4 2152 376 2152.7 370.3 2153.3C364.2 2153.9 361.4 2154.6 358.1 2155.7C356.3 2156.3 355.4 2152.7 359.6 2149.9C363.8 2147.1 392.1 2127.5 396.1 2118.5C401.6 2106.3 398.5 2087.7 386.2 2081.4C372.9 2074.7 362.5 2076.2 355.4 2077.6C348.3 2079 326.7 2089.6 318.3 2113.6C310.1 2137.1 309.9 2146.6 311.2 2165.4C312.5 2184.2 319.4 2230.4 328.2 2254.5C337 2278.6 370.8 2347.6 370.8 2347.6L379.1 2364.1C379.1 2364.1 392.8 2393.4 395.1 2411.1C396.4 2421.1 396.7 2425.1 396.4 2430.4C396.1 2435 391.9 2438.1 387.4 2439.2C379.4 2441.3 369.9 2443.6 359.2 2445.7C355.3 2446.5 361.3 2459.4 384 2463.2C405.2 2466.7 427.6 2466.5 430.5 2466.5C433.4 2466.5 455.8 2466.7 477 2463.2C499.7 2459.4 505.7 2446.5 501.8 2445.7C491.1 2443.6 481.6 2441.2 473.6 2439.2C469.1 2438 464.9 2435 464.6 2430.4C464.3 2425.1 464.6 2421 465.9 2411.1C467.4 2399.7 473.5 2383.7 477.7 2373.6L490.8 2347.7C490.8 2347.7 524.6 2278.8 533.4 2254.6C542.2 2230.5 549.2 2184.3 550.4 2165.5C551.7 2146.7 551.4 2137.1 543.3 2113.7V2113.6ZM358.2 2186.7C354.5 2191.5 342.7 2196.2 338.8 2197.7C338 2198 337.6 2198.7 337.7 2199.5C339.2 2209.1 348.6 2269 350 2275.4C351.5 2282.4 350.7 2282.4 350.2 2282.5C349.6 2282.5 348.8 2280.3 348.8 2280.3C348.8 2280.3 342 2262 339.7 2255.5C338 2250.6 332.9 2232.4 330.5 2224C329.7 2221.1 329 2218.1 328.5 2215.1C326.9 2205.5 323.4 2183 322.2 2167.9C320.6 2148.3 324.6 2130.9 324.6 2130.9C327.7 2106.2 351.8 2090.8 351.8 2090.8C373.7 2077.5 385 2095.9 385 2095.9C391.9 2107.5 383.6 2115.4 378.5 2120.6C373.4 2125.8 353.9 2135.1 343.9 2143.7C340.3 2146.8 341.2 2152.5 341.2 2153.6C341.5 2159.3 349.8 2164.8 350 2164.9C356.1 2168.6 362.4 2170.3 363.9 2174.8C365.2 2178.5 358.2 2186.7 358.2 2186.7ZM539.5 2168C538.3 2183.1 534.7 2205.6 533.2 2215.2C532.7 2218.2 532.1 2221.1 531.2 2224.1C528.9 2232.5 523.7 2250.6 522 2255.6C519.8 2262.1 512.9 2280.4 512.9 2280.4C512.9 2280.4 512.1 2282.7 511.5 2282.6C510.9 2282.6 510.2 2282.6 511.7 2275.5C513.1 2269.1 522.5 2209.2 524 2199.6C524.1 2198.8 523.7 2198.1 522.9 2197.8C519 2196.3 507.2 2191.5 503.5 2186.8C503.5 2186.8 496.5 2178.7 497.8 2174.9C499.3 2170.4 505.6 2168.7 511.7 2165C511.9 2165 520.2 2159.5 520.5 2153.7C520.5 2152.5 521.4 2146.9 517.8 2143.8C507.8 2135.2 488.4 2125.9 483.2 2120.7C478 2115.5 469.8 2107.6 476.7 2096C476.7 2096 488 2077.6 509.9 2090.9C509.9 2090.9 534 2106.3 537.1 2131C537.1 2131 541.1 2148.4 539.5 2168Z" fill="#555659"/>
<path d="M2337.3 2139C2329 2115 2307.4 2104.4 2300.2 2103C2293 2101.6 2282.6 2100.1 2269.4 2106.8C2257.1 2113 2254 2131.7 2259.5 2143.9C2263.6 2152.9 2291.8 2172.5 2296 2175.3C2300.2 2178.1 2299.3 2181.7 2297.5 2181.1C2294.2 2180 2291.4 2179.3 2285.3 2178.7C2279.5 2178.1 2230.2 2177.5 2225 2177.4H2224.6C2219.4 2177.4 2170 2178.1 2164.3 2178.7C2158.2 2179.3 2155.4 2180 2152.1 2181.1C2150.3 2181.7 2149.4 2178.1 2153.6 2175.3C2157.8 2172.5 2186.1 2152.9 2190.1 2143.9C2195.6 2131.7 2192.5 2113.1 2180.2 2106.8C2166.9 2100.1 2156.5 2101.6 2149.4 2103C2142.3 2104.4 2120.7 2115 2112.3 2139C2104.1 2162.5 2103.9 2172 2105.2 2190.8C2106.5 2209.6 2113.4 2255.8 2122.2 2279.9C2131 2304 2164.8 2373 2164.8 2373L2173.1 2389.5C2173.1 2389.5 2186.8 2418.8 2189.1 2436.5C2190.4 2446.5 2190.7 2450.5 2190.4 2455.8C2190.1 2460.4 2185.9 2463.5 2181.4 2464.6C2173.4 2466.7 2163.9 2469 2153.2 2471.1C2149.3 2471.9 2155.3 2484.8 2178 2488.6C2199.2 2492.1 2221.6 2491.9 2224.5 2491.9C2227.4 2491.9 2249.8 2492.1 2271 2488.6C2293.7 2484.8 2299.7 2471.9 2295.8 2471.1C2285.1 2469 2275.6 2466.6 2267.6 2464.6C2263.1 2463.4 2258.9 2460.4 2258.6 2455.8C2258.3 2450.5 2258.6 2446.4 2259.9 2436.5C2261.4 2425.1 2267.5 2409.1 2271.7 2399L2284.8 2373.1C2284.8 2373.1 2318.6 2304.2 2327.4 2280C2336.2 2255.9 2343.2 2209.7 2344.4 2190.9C2345.6 2172.1 2345.4 2162.5 2337.3 2139.1V2139ZM2152.2 2212.1C2148.5 2216.9 2136.7 2221.6 2132.8 2223.1C2132 2223.4 2131.6 2224.1 2131.7 2224.9C2133.2 2234.5 2142.6 2294.4 2144 2300.8C2145.5 2307.8 2144.7 2307.8 2144.2 2307.9C2143.6 2307.9 2142.8 2305.7 2142.8 2305.7C2142.8 2305.7 2136 2287.4 2133.7 2280.9C2132 2276 2126.9 2257.8 2124.5 2249.4C2123.7 2246.5 2123 2243.5 2122.5 2240.5C2120.9 2230.9 2117.4 2208.4 2116.2 2193.3C2114.6 2173.7 2118.6 2156.3 2118.6 2156.3C2121.7 2131.6 2145.8 2116.2 2145.8 2116.2C2167.7 2102.9 2179 2121.3 2179 2121.3C2185.9 2132.9 2177.6 2140.8 2172.5 2146C2167.4 2151.2 2147.9 2160.5 2137.9 2169.1C2134.3 2172.2 2135.2 2177.9 2135.2 2179C2135.5 2184.7 2143.8 2190.2 2144 2190.3C2150.1 2194 2156.4 2195.7 2157.9 2200.2C2159.2 2203.9 2152.2 2212.1 2152.2 2212.1ZM2333.5 2193.4C2332.3 2208.5 2328.7 2231 2327.2 2240.6C2326.7 2243.6 2326.1 2246.5 2325.2 2249.5C2322.9 2257.9 2317.7 2276 2316 2281C2313.8 2287.5 2306.9 2305.8 2306.9 2305.8C2306.9 2305.8 2306.1 2308.1 2305.5 2308C2304.9 2308 2304.2 2308 2305.7 2300.9C2307.1 2294.5 2316.5 2234.6 2318 2225C2318.1 2224.2 2317.7 2223.5 2316.9 2223.2C2313 2221.7 2301.2 2216.9 2297.5 2212.2C2297.5 2212.2 2290.5 2204.1 2291.8 2200.3C2293.3 2195.8 2299.6 2194.1 2305.7 2190.4C2305.9 2190.4 2314.2 2184.9 2314.5 2179.1C2314.5 2177.9 2315.4 2172.3 2311.8 2169.2C2301.8 2160.6 2282.4 2151.3 2277.2 2146.1C2272 2140.9 2263.8 2133 2270.7 2121.4C2270.7 2121.4 2282 2103 2303.9 2116.3C2303.9 2116.3 2328 2131.7 2331.1 2156.4C2331.1 2156.4 2335.1 2173.8 2333.5 2193.4Z" fill="#555659"/>
<path d="M2513.3 1656.7C2505 1632.7 2483.4 1622.1 2476.2 1620.7C2469 1619.3 2458.6 1617.8 2445.4 1624.5C2433.1 1630.7 2430 1649.4 2435.5 1661.6C2439.6 1670.6 2467.8 1690.2 2472 1693C2476.2 1695.8 2475.3 1699.4 2473.5 1698.8C2470.2 1697.7 2467.4 1697 2461.3 1696.4C2455.5 1695.8 2406.2 1695.2 2401 1695.1H2400.6C2395.4 1695.1 2346 1695.8 2340.3 1696.4C2334.2 1697 2331.4 1697.7 2328.1 1698.8C2326.3 1699.4 2325.4 1695.8 2329.6 1693C2333.8 1690.2 2362.1 1670.6 2366.1 1661.6C2371.6 1649.4 2368.5 1630.8 2356.2 1624.5C2342.9 1617.8 2332.5 1619.3 2325.4 1620.7C2318.3 1622.1 2296.7 1632.7 2288.3 1656.7C2280.1 1680.2 2279.9 1689.7 2281.2 1708.5C2282.5 1727.3 2289.4 1773.5 2298.2 1797.6C2307 1821.7 2340.8 1890.7 2340.8 1890.7L2349.1 1907.2C2349.1 1907.2 2362.8 1936.5 2365.1 1954.2C2366.4 1964.2 2366.7 1968.2 2366.4 1973.5C2366.1 1978.1 2361.9 1981.2 2357.4 1982.3C2349.4 1984.4 2339.9 1986.7 2329.2 1988.8C2325.3 1989.6 2331.3 2002.5 2354 2006.3C2375.2 2009.8 2397.6 2009.6 2400.5 2009.6C2403.4 2009.6 2425.8 2009.8 2447 2006.3C2469.7 2002.5 2475.7 1989.6 2471.8 1988.8C2461.1 1986.7 2451.6 1984.3 2443.6 1982.3C2439.1 1981.1 2434.9 1978.1 2434.6 1973.5C2434.3 1968.2 2434.6 1964.1 2435.9 1954.2C2437.4 1942.8 2443.5 1926.8 2447.7 1916.7L2460.8 1890.8C2460.8 1890.8 2494.6 1821.9 2503.4 1797.7C2512.2 1773.6 2519.2 1727.4 2520.4 1708.6C2521.7 1689.8 2521.4 1680.2 2513.3 1656.8V1656.7ZM2328.2 1729.8C2324.5 1734.6 2312.7 1739.3 2308.8 1740.8C2308 1741.1 2307.6 1741.8 2307.7 1742.6C2309.2 1752.2 2318.6 1812.1 2320 1818.5C2321.5 1825.5 2320.7 1825.5 2320.2 1825.6C2319.6 1825.6 2318.8 1823.4 2318.8 1823.4C2318.8 1823.4 2312 1805.1 2309.7 1798.6C2308 1793.7 2302.9 1775.5 2300.5 1767.1C2299.7 1764.2 2299 1761.2 2298.5 1758.2C2296.9 1748.6 2293.4 1726.1 2292.2 1711C2290.6 1691.4 2294.6 1674 2294.6 1674C2297.7 1649.3 2321.8 1633.9 2321.8 1633.9C2343.7 1620.6 2355 1639 2355 1639C2361.9 1650.6 2353.6 1658.5 2348.5 1663.7C2343.4 1668.9 2323.9 1678.2 2313.9 1686.8C2310.3 1689.9 2311.2 1695.6 2311.2 1696.7C2311.5 1702.4 2319.8 1707.9 2320 1708C2326.1 1711.7 2332.4 1713.4 2333.9 1717.9C2335.2 1721.6 2328.2 1729.8 2328.2 1729.8ZM2509.5 1711.2C2508.3 1726.3 2504.7 1748.8 2503.2 1758.4C2502.7 1761.4 2502.1 1764.3 2501.2 1767.3C2498.9 1775.7 2493.7 1793.8 2492 1798.8C2489.8 1805.3 2482.9 1823.6 2482.9 1823.6C2482.9 1823.6 2482.1 1825.9 2481.5 1825.8C2480.9 1825.8 2480.2 1825.8 2481.7 1818.7C2483.1 1812.3 2492.5 1752.4 2494 1742.8C2494.1 1742 2493.7 1741.3 2492.9 1741C2489 1739.5 2477.2 1734.7 2473.5 1730C2473.5 1730 2466.5 1721.9 2467.8 1718.1C2469.3 1713.6 2475.6 1711.9 2481.7 1708.2C2481.9 1708.2 2490.2 1702.7 2490.5 1696.9C2490.5 1695.7 2491.4 1690.1 2487.8 1687C2477.8 1678.4 2458.4 1669.1 2453.2 1663.9C2448 1658.7 2439.8 1650.8 2446.7 1639.2C2446.7 1639.2 2458 1620.8 2479.9 1634.1C2479.9 1634.1 2504 1649.5 2507.1 1674.2C2507.1 1674.2 2511.1 1691.6 2509.5 1711.2Z" fill="#555659"/>
<path d="M2337.3 1196.4C2329 1172.4 2307.4 1161.8 2300.2 1160.4C2293 1159 2282.6 1157.5 2269.4 1164.2C2257.1 1170.4 2254 1189.1 2259.5 1201.3C2263.6 1210.3 2291.8 1229.9 2296 1232.7C2300.2 1235.5 2299.3 1239.1 2297.5 1238.5C2294.2 1237.4 2291.4 1236.7 2285.3 1236.1C2279.5 1235.5 2230.2 1234.9 2225 1234.8H2224.6C2219.4 1234.8 2170 1235.5 2164.3 1236.1C2158.2 1236.7 2155.4 1237.4 2152.1 1238.5C2150.3 1239.1 2149.4 1235.5 2153.6 1232.7C2157.8 1229.9 2186.1 1210.3 2190.1 1201.3C2195.6 1189.1 2192.5 1170.5 2180.2 1164.2C2166.9 1157.5 2156.5 1159 2149.4 1160.4C2142.3 1161.8 2120.7 1172.4 2112.3 1196.4C2104.1 1219.9 2103.9 1229.4 2105.2 1248.2C2106.5 1267 2113.4 1313.2 2122.2 1337.3C2131 1361.4 2164.8 1430.4 2164.8 1430.4L2173.1 1446.9C2173.1 1446.9 2186.8 1476.2 2189.1 1493.9C2190.4 1503.9 2190.7 1507.9 2190.4 1513.2C2190.1 1517.8 2185.9 1520.9 2181.4 1522C2173.4 1524.1 2163.9 1526.4 2153.2 1528.5C2149.3 1529.3 2155.3 1542.2 2178 1546C2199.2 1549.5 2221.6 1549.3 2224.5 1549.3C2227.4 1549.3 2249.8 1549.5 2271 1546C2293.7 1542.2 2299.7 1529.3 2295.8 1528.5C2285.1 1526.4 2275.6 1524 2267.6 1522C2263.1 1520.8 2258.9 1517.8 2258.6 1513.2C2258.3 1507.9 2258.6 1503.8 2259.9 1493.9C2261.4 1482.5 2267.5 1466.5 2271.7 1456.4L2284.8 1430.5C2284.8 1430.5 2318.6 1361.6 2327.4 1337.4C2336.2 1313.3 2343.2 1267.1 2344.4 1248.3C2345.6 1229.5 2345.4 1219.9 2337.3 1196.5V1196.4ZM2152.2 1269.4C2148.5 1274.2 2136.7 1278.9 2132.8 1280.4C2132 1280.7 2131.6 1281.4 2131.7 1282.2C2133.2 1291.8 2142.6 1351.7 2144 1358.1C2145.5 1365.1 2144.7 1365.1 2144.2 1365.2C2143.6 1365.2 2142.8 1363 2142.8 1363C2142.8 1363 2136 1344.7 2133.7 1338.2C2132 1333.3 2126.9 1315.1 2124.5 1306.7C2123.7 1303.8 2123 1300.8 2122.5 1297.8C2120.9 1288.2 2117.4 1265.7 2116.2 1250.6C2114.6 1231 2118.6 1213.6 2118.6 1213.6C2121.7 1188.9 2145.8 1173.5 2145.8 1173.5C2167.7 1160.2 2179 1178.6 2179 1178.6C2185.9 1190.2 2177.6 1198.1 2172.5 1203.3C2167.4 1208.5 2147.9 1217.8 2137.9 1226.4C2134.3 1229.5 2135.2 1235.2 2135.2 1236.3C2135.5 1242 2143.8 1247.5 2144 1247.6C2150.1 1251.3 2156.4 1253 2157.9 1257.5C2159.2 1261.2 2152.2 1269.4 2152.2 1269.4ZM2333.5 1250.8C2332.3 1265.9 2328.7 1288.4 2327.2 1298C2326.7 1301 2326.1 1303.9 2325.2 1306.9C2322.9 1315.3 2317.7 1333.4 2316 1338.4C2313.8 1344.9 2306.9 1363.2 2306.9 1363.2C2306.9 1363.2 2306.1 1365.5 2305.5 1365.4C2304.9 1365.4 2304.2 1365.4 2305.7 1358.3C2307.1 1351.9 2316.5 1292 2318 1282.4C2318.1 1281.6 2317.7 1280.9 2316.9 1280.6C2313 1279.1 2301.2 1274.3 2297.5 1269.6C2297.5 1269.6 2290.5 1261.5 2291.8 1257.7C2293.3 1253.2 2299.6 1251.5 2305.7 1247.8C2305.9 1247.8 2314.2 1242.3 2314.5 1236.5C2314.5 1235.3 2315.4 1229.7 2311.8 1226.6C2301.8 1218 2282.4 1208.7 2277.2 1203.5C2272 1198.3 2263.8 1190.4 2270.7 1178.8C2270.7 1178.8 2282 1160.4 2303.9 1173.7C2303.9 1173.7 2328 1189.1 2331.1 1213.8C2331.1 1213.8 2335.1 1231.2 2333.5 1250.8Z" fill="#555659"/>
<path d="M2104.2 966.699C2047.9 794.699 1902.1 718.099 1853.9 708.199C1805.6 698.299 1735.4 687.099 1645.7 735.499C1562.7 780.299 1541.8 913.999 1579.2 1001.9C1606.6 1066.5 1797.5 1207.5 1825.9 1227.2C1854.3 1246.9 1848.1 1273 1835.9 1268.5C1813.5 1260.4 1794.7 1255.2 1753.6 1251C1714.6 1247 1381.3 1242.3 1346.1 1241.8C1346.1 1241.8 1345.6 1241.8 1344.6 1241.8C1343.6 1241.8 1343.1 1241.8 1343.1 1241.8C1308 1242.3 974.6 1247 935.6 1251C894.4 1255.2 875.7 1260.4 853.3 1268.5C841.2 1272.9 834.9 1246.9 863.3 1227.2C891.7 1207.5 1082.6 1066.4 1110 1001.9C1147.3 914.099 1126.4 780.399 1043.5 735.499C953.9 687.099 883.7 698.299 835.3 708.199C787.2 718.099 641.3 794.699 585 966.699C529.9 1135.2 528.2 1203.6 536.7 1339C545.2 1474.4 592.1 1805.7 651.7 1979.2C711.3 2152.6 939.6 2647.6 939.6 2647.6L1034.9 2847.8C1034.9 2847.8 1181.1 2900 1290.4 2897.2C1304 2896.9 1314.7 2896.6 1323.1 2896.4V2897.3C1331.4 2897.5 1385.2 2896.8 1398.8 2897.2C1508.1 2900 1654.3 2847.8 1654.3 2847.8L1749.6 2647.6C1749.6 2647.6 1977.9 2152.7 2037.5 1979.2C2097.1 1805.8 2143.9 1474.4 2152.5 1339C2161 1203.6 2159.4 1135.2 2104.2 966.699ZM854 1491.5C828.9 1525.7 749.4 1560 722.7 1570.8C717.5 1572.9 714.5 1578.2 715.3 1583.6C725.5 1652.8 789.2 2082.8 798.4 2128.9C808.5 2179 803.4 2179 799.7 2179.7C796 2180.4 790.2 2164 790.2 2164C790.2 2164 744.1 2032.4 729 1986C717.5 1950.7 682.9 1820.3 667.1 1760C661.6 1739 657.2 1717.7 653.8 1696.3C643.2 1627.6 619.2 1466 611 1357.4C600.3 1216.4 627.4 1091.7 627.4 1091.7C648.2 914.299 811 803.399 811 803.399C958.6 707.499 1034.9 839.699 1034.9 839.699C1081.6 923.099 1025.5 979.499 990.8 1017.1C956.1 1054.7 824.9 1121.1 757.4 1183.2C732.8 1205.8 739.5 1246.2 739.2 1254.6C741 1295.7 797.4 1334.8 798.5 1335.5C839.5 1361.8 882 1374.3 892.5 1406.3C901.3 1433.3 854 1491.5 854 1491.5ZM2078.2 1357.4C2069.9 1466 2046 1627.6 2035.4 1696.3C2032.1 1717.8 2027.7 1739 2022.1 1760C2006.2 1820.3 1971.7 1950.7 1960.2 1986C1945.1 2032.4 1899 2164 1899 2164C1899 2164 1893.3 2180.3 1889.5 2179.7C1885.7 2179.1 1880.7 2179.1 1890.8 2128.9C1900.1 2082.8 1963.7 1652.8 1973.9 1583.6C1974.7 1578.1 1971.7 1572.8 1966.5 1570.8C1939.9 1560 1860.3 1525.8 1835.2 1491.5C1835.2 1491.5 1787.8 1433.2 1796.7 1406.3C1807.2 1374.3 1849.7 1361.8 1890.7 1335.5C1891.8 1334.8 1948.1 1295.7 1950 1254.6C1949.7 1246.2 1956.4 1205.8 1931.8 1183.2C1864.3 1121.2 1733.1 1054.7 1698.4 1017.1C1663.7 979.499 1607.6 923.099 1654.3 839.699C1654.3 839.699 1730.6 707.499 1878.2 803.399C1878.2 803.399 2040.9 914.299 2061.8 1091.7C2061.8 1091.7 2088.9 1216.4 2078.2 1357.4Z" stroke="#616266" stroke-width="100" stroke-miterlimit="10"/>
<path d="M2104.2 966.699C2047.9 794.699 1902.1 718.099 1853.9 708.199C1805.6 698.299 1735.4 687.099 1645.7 735.499C1562.7 780.299 1541.8 913.999 1579.2 1001.9C1606.6 1066.5 1797.5 1207.5 1825.9 1227.2C1854.3 1246.9 1848.1 1273 1835.9 1268.5C1813.5 1260.4 1794.7 1255.2 1753.6 1251C1714.6 1247 1381.3 1242.3 1346.1 1241.8C1346.1 1241.8 1345.6 1241.8 1344.6 1241.8C1343.6 1241.8 1343.1 1241.8 1343.1 1241.8C1308 1242.3 974.6 1247 935.6 1251C894.4 1255.2 875.7 1260.4 853.3 1268.5C841.2 1272.9 834.9 1246.9 863.3 1227.2C891.7 1207.5 1082.6 1066.4 1110 1001.9C1147.3 914.099 1126.4 780.399 1043.5 735.499C953.9 687.099 883.7 698.299 835.3 708.199C787.2 718.099 641.3 794.699 585 966.699C529.9 1135.2 528.2 1203.6 536.7 1339C545.2 1474.4 592.1 1805.7 651.7 1979.2C711.3 2152.6 939.6 2647.6 939.6 2647.6L1034.9 2847.8C1034.9 2847.8 1181.1 2900 1290.4 2897.2C1304 2896.9 1314.7 2896.6 1323.1 2896.4V2897.3C1331.4 2897.5 1385.2 2896.8 1398.8 2897.2C1508.1 2900 1654.3 2847.8 1654.3 2847.8L1749.6 2647.6C1749.6 2647.6 1977.9 2152.7 2037.5 1979.2C2097.1 1805.8 2143.9 1474.4 2152.5 1339C2161 1203.6 2159.4 1135.2 2104.2 966.699ZM854 1491.5C828.9 1525.7 749.4 1560 722.7 1570.8C717.5 1572.9 714.5 1578.2 715.3 1583.6C725.5 1652.8 789.2 2082.8 798.4 2128.9C808.5 2179 803.4 2179 799.7 2179.7C796 2180.4 790.2 2164 790.2 2164C790.2 2164 744.1 2032.4 729 1986C717.5 1950.7 682.9 1820.3 667.1 1760C661.6 1739 657.2 1717.7 653.8 1696.3C643.2 1627.6 619.2 1466 611 1357.4C600.3 1216.4 627.4 1091.7 627.4 1091.7C648.2 914.299 811 803.399 811 803.399C958.6 707.499 1034.9 839.699 1034.9 839.699C1081.6 923.099 1025.5 979.499 990.8 1017.1C956.1 1054.7 824.9 1121.1 757.4 1183.2C732.8 1205.8 739.5 1246.2 739.2 1254.6C741 1295.7 797.4 1334.8 798.5 1335.5C839.5 1361.8 882 1374.3 892.5 1406.3C901.3 1433.3 854 1491.5 854 1491.5ZM2078.2 1357.4C2069.9 1466 2046 1627.6 2035.4 1696.3C2032.1 1717.8 2027.7 1739 2022.1 1760C2006.2 1820.3 1971.7 1950.7 1960.2 1986C1945.1 2032.4 1899 2164 1899 2164C1899 2164 1893.3 2180.3 1889.5 2179.7C1885.7 2179.1 1880.7 2179.1 1890.8 2128.9C1900.1 2082.8 1963.7 1652.8 1973.9 1583.6C1974.7 1578.1 1971.7 1572.8 1966.5 1570.8C1939.9 1560 1860.3 1525.8 1835.2 1491.5C1835.2 1491.5 1787.8 1433.2 1796.7 1406.3C1807.2 1374.3 1849.7 1361.8 1890.7 1335.5C1891.8 1334.8 1948.1 1295.7 1950 1254.6C1949.7 1246.2 1956.4 1205.8 1931.8 1183.2C1864.3 1121.2 1733.1 1054.7 1698.4 1017.1C1663.7 979.499 1607.6 923.099 1654.3 839.699C1654.3 839.699 1730.6 707.499 1878.2 803.399C1878.2 803.399 2040.9 914.299 2061.8 1091.7C2061.8 1091.7 2088.9 1216.4 2078.2 1357.4Z" fill="white"/>
<path d="M1339.8 2906.7C2025.41 2906.7 2581.2 2352.56 2581.2 1669C2581.2 985.438 2025.41 431.301 1339.8 431.301C654.194 431.301 98.4004 985.438 98.4004 1669C98.4004 2352.56 654.194 2906.7 1339.8 2906.7Z" stroke="#616266" stroke-width="160" stroke-miterlimit="10"/>
<path d="M1339.8 2925C2033.8 2925 2596.4 2359.89 2596.4 1662.8C2596.4 965.706 2033.8 400.6 1339.8 400.6C645.799 400.6 83.2002 965.706 83.2002 1662.8C83.2002 2359.89 645.799 2925 1339.8 2925Z" stroke="white" stroke-width="55" stroke-miterlimit="10"/>
<path d="M1518.61 2194.44C1478.73 2192.43 1440.6 2184.89 1404.63 2168.14C1399.07 2165.55 1393.91 2162.11 1388.44 2159.28C1385.32 2157.67 1384.59 2155.45 1384.9 2152.08C1387.33 2125.72 1389.6 2099.34 1391.98 2072.36C1395.81 2074.71 1399.35 2077.02 1403.02 2079.12C1426.14 2092.35 1451.4 2099.34 1477.32 2104.21C1498.36 2108.17 1519.61 2109.96 1540.95 2107.26C1576.55 2102.76 1605.91 2088.12 1623.11 2054.8C1634.13 2033.43 1635.37 2010.46 1633.15 1987.11C1631.5 1969.78 1626.36 1953.48 1616.43 1939.07C1599.61 1914.67 1575.85 1901.57 1546.72 1898.41C1514.68 1894.93 1484.53 1901.62 1456.21 1916.91C1454.96 1917.59 1452.63 1917.59 1451.45 1916.85C1439 1909.15 1426.64 1901.28 1414.37 1893.29C1413.26 1892.57 1412.16 1890.69 1412.24 1889.43C1414.21 1861.02 1416.38 1832.63 1418.44 1804.22C1420.25 1779.3 1421.96 1754.38 1423.74 1729.45C1426.43 1691.74 1429.15 1654.03 1431.87 1616.32C1431.9 1615.85 1432.14 1615.4 1432.36 1614.68C1538.79 1614.68 1645.2 1614.68 1752.32 1614.68C1750.26 1622.14 1748.27 1629.45 1746.22 1636.74C1739.71 1659.77 1733.08 1682.78 1726.75 1705.86C1725.65 1709.86 1724.1 1711.26 1719.76 1711.25C1654.43 1711.09 1589.11 1711.14 1523.79 1711.14C1521.97 1711.14 1520.15 1711.14 1517.66 1711.14C1514.33 1748.51 1511.02 1785.71 1507.69 1823.06C1516.85 1821.6 1525.59 1819.77 1534.43 1818.88C1573.21 1814.94 1611.43 1817.17 1647.66 1832.84C1700 1855.48 1731.67 1895.88 1744.55 1950.81C1753.99 1991.06 1754.16 2031.59 1740.1 2070.96C1722.61 2119.93 1688.26 2153.4 1641.04 2174.12C1602.12 2191.19 1561.25 2196.78 1518.61 2194.44Z" fill="#3D3E3F"/>
<path d="M1112.42 2091.14C1113.79 2090.47 1115.07 2089.98 1115.5 2089.09C1115.96 2088.14 1115.63 2086.81 1115.63 2085.64C1115.63 1967.99 1115.63 1850.34 1115.63 1732.69C1115.63 1731.05 1115.63 1729.4 1115.63 1727.28C1085.19 1733.09 1055.2 1738.82 1024.9 1744.6C1024.9 1712.25 1024.9 1680.32 1024.9 1648.19C1092.91 1635.15 1160.81 1622.13 1229.34 1609C1229.34 1769.83 1229.34 1930.18 1229.34 2091.1C1267.11 2091.1 1304.34 2091.1 1342.14 2091.1C1335.48 2122.63 1328.96 2153.51 1322.38 2184.63C1219.89 2184.63 1117.64 2184.63 1015 2184.63C1015 2153.61 1015 2122.59 1015 2091.14C1047.38 2091.14 1079.67 2091.14 1112.42 2091.14Z" fill="#3D3E3F"/>
</svg>
