<svg width="120" height="100" viewBox="0 0 120 100" fill="none" xmlns="http://www.w3.org/2000/svg">
<g clip-path="url(#clip0_75_5)">
<path d="M57.1231 47.0261L54.9269 40.9008H51.9531L55.8537 50.5797H58.3281L62.245 40.9008H59.3231L57.1231 47.0261Z" fill="#14142B"/>
<path d="M67.5157 46.7627H72.1451V44.6462H67.5157V43.1734H72.6245V40.9008H64.8657V50.5797H72.6926V48.3008H67.5157V46.7627Z" fill="#14142B"/>
<path d="M92.7481 44.5522C91.3975 44.2498 91.0638 44.0547 91.0638 43.6125V43.5799C91.0638 43.2223 91.3813 42.9589 92.0294 42.9589C92.6775 42.9589 93.8469 43.2775 94.7281 43.9117L96.0663 42.0192C95.0231 41.1736 93.74 40.7314 92.1013 40.7314C90.4625 40.7314 88.3694 42.0349 88.3694 43.8264V43.859C88.3694 45.8356 89.9538 46.4177 92.0106 46.8825C93.3325 47.2011 93.65 47.4094 93.65 47.8222V47.8548C93.65 48.2644 93.2644 48.5216 92.5356 48.5216C91.4213 48.5216 90.3719 48.1182 89.4063 47.3573L87.9163 49.1426C89.115 50.2058 90.7281 50.7484 92.4388 50.7484C94.1494 50.7484 96.3425 49.5685 96.3425 47.5982V47.5656C96.3425 45.7515 94.9656 45.0364 92.7563 44.5484" fill="#14142B"/>
<path d="M105.498 46.3531C105.498 47.7086 104.795 48.3459 103.707 48.3459C102.619 48.3459 101.928 47.6791 101.928 46.2816V40.9008H99.2295V46.3368C99.2295 49.3602 100.953 50.7647 103.681 50.7647C106.409 50.7647 108.203 49.3828 108.203 46.2747V40.907H105.504V46.3531H105.498Z" fill="#14142B"/>
<path d="M115.901 44.5522C114.55 44.2498 114.216 44.0547 114.216 43.6125V43.5799C114.216 43.2223 114.534 42.9589 115.182 42.9589C115.83 42.9589 116.999 43.2775 117.881 43.9117L119.219 42.0192C118.169 41.1736 116.893 40.7314 115.254 40.7314C113.615 40.7314 111.522 42.0349 111.522 43.8264V43.859C111.522 45.8356 113.106 46.4177 115.163 46.8825C116.485 47.2011 116.803 47.4094 116.803 47.8222V47.8548C116.803 48.2644 116.417 48.5216 115.688 48.5216C114.574 48.5216 113.524 48.1182 112.559 47.3573L111.069 49.1426C112.268 50.2058 113.881 50.7484 115.591 50.7484C117.302 50.7484 119.495 49.5685 119.495 47.5982V47.5656C119.495 45.7515 118.118 45.0364 115.909 44.5484" fill="#14142B"/>
<path d="M79.0226 45.7158V43.1408H80.2732C80.7588 43.1408 81.1382 43.248 81.4101 43.4657C81.6788 43.6834 81.8182 44.002 81.8182 44.4185V44.4512C81.8182 44.8382 81.6788 45.1499 81.4101 45.3745C81.1413 45.5991 80.762 45.7158 80.2895 45.7158H79.0226ZM83.1432 47.065C83.2045 47.0192 83.2663 46.9803 83.3276 46.9314C83.7001 46.6353 83.9851 46.2715 84.1926 45.8387C84.4001 45.4065 84.5001 44.9091 84.5001 44.3332V44.3006C84.5001 43.7643 84.4063 43.2926 84.2151 42.8667C84.0307 42.4407 83.7582 42.0832 83.412 41.7971C83.0651 41.5011 82.6376 41.2865 82.1451 41.1304C81.6495 40.9742 81.102 40.8964 80.4895 40.8964H76.3557V50.5753H79.0282V47.8052H80.3501C80.467 47.8052 80.5832 47.8052 80.6901 47.7989C81.2701 49.3044 82.6207 50.7478 85.057 50.7478V48.1791C83.9363 48.1791 83.3951 47.6296 83.1395 47.0606" fill="#14142B"/>
<path d="M102.314 57.6447H100.963V58.8315H102.34C102.888 58.8315 103.189 58.6232 103.189 58.2431V58.2268C103.189 57.8787 102.91 57.6447 102.314 57.6447M102.933 55.8143C102.933 55.4567 102.648 55.2648 102.129 55.2648H100.963V56.3964H102.084C102.625 56.3964 102.933 56.2114 102.933 55.8369V55.8143ZM99.2332 53.8277H102.524C103.328 53.8277 103.901 54.0291 104.271 54.3935C104.526 54.657 104.679 54.9982 104.679 55.4404V55.4567C104.679 56.2013 104.254 56.6436 103.691 56.8907C104.471 57.1473 104.967 57.5895 104.967 58.4645V58.4809C104.967 59.583 104.069 60.256 102.541 60.256H99.2332V53.8183V53.8283V53.8277Z" fill="#14142B"/>
<path d="M106.697 53.8277V60.2686H111.899V58.7468H108.453V57.7231H111.534V56.318H108.453V55.3332H111.851V53.8277H106.697Z" fill="#14142B"/>
<path d="M113.383 53.8277V55.3884H115.291V60.2686H117.067V55.3884H118.991V53.8277H113.383Z" fill="#14142B"/>
<path d="M13.3906 47.2701L6.95059 40.8098L0.506836 47.2701L13.3906 60.1908L26.2643 47.2701L19.8275 40.8098L13.3906 47.2701Z" fill="#14142B"/>
<path d="M32.7013 40.8098L26.2644 47.2701L32.7013 53.7305L26.2644 60.1908H32.7013H39.1375L45.5744 53.7305L39.1375 47.2701L45.5744 40.8098H32.7013Z" fill="#14142B"/>
</g>
<defs>
<clipPath id="clip0_75_5">
<rect width="120" height="21" fill="white" transform="translate(0 40)"/>
</clipPath>
</defs>
</svg>
